<svg width="491" height="60" viewBox="0 0 491 60" fill="none" xmlns="http://www.w3.org/2000/svg">
<path d="M16.52 20.256H12.264V30.896H16.352C20.0853 30.896 21.952 29.0667 21.952 25.408C21.952 23.8027 21.4667 22.552 20.496 21.656C19.5253 20.7227 18.2 20.256 16.52 20.256ZM12.264 51H3.64V13.256H16.688C20.9067 13.256 24.2853 14.376 26.824 16.616C29.4 18.856 30.688 21.768 30.688 25.352C30.688 30.728 28.392 34.4427 23.8 36.496L33.376 51H23.072L14.896 37.896H12.264V51ZM58.4224 51H49.7984V13.256H58.4224V51ZM109.982 47.528C106.398 50.1413 101.881 51.448 96.4303 51.448C90.3823 51.448 85.4729 49.712 81.7023 46.24C77.9316 42.768 76.0463 38.0453 76.0463 32.072C76.0463 26.1733 78.0063 21.4507 81.9263 17.904C85.8836 14.3573 90.8863 12.584 96.9343 12.584C101.19 12.584 104.868 13.368 107.966 14.936V23.56C104.382 21.5067 100.705 20.48 96.9343 20.48C93.3876 20.48 90.5689 21.544 88.4783 23.672C86.3876 25.7627 85.3423 28.5627 85.3423 32.072C85.3423 35.6187 86.3689 38.4373 88.4223 40.528C90.4756 42.6187 93.2756 43.664 96.8223 43.664C98.4276 43.664 100.014 43.4213 101.582 42.936V35.824H95.4783V28.488H109.982V47.528ZM159.321 51H150.641V35.936H136.809V51H128.185V13.256H136.809V28.6H150.641V13.256H159.321V51ZM202.92 20.2H193.736V51H185.056V20.2H175.816V13.256H202.92V20.2ZM272.525 49.32C270.248 50.7387 266.962 51.448 262.669 51.448C257.144 51.448 252.514 49.6747 248.781 46.128C245.085 42.544 243.237 37.9147 243.237 32.24C243.237 26.4907 245.029 21.8053 248.613 18.184C252.234 14.5627 256.938 12.752 262.725 12.752C266.981 12.752 270.248 13.4613 272.525 14.88V23.168C269.725 21.4507 266.608 20.592 263.173 20.592C260.149 20.592 257.61 21.656 255.557 23.784C253.504 25.8747 252.477 28.6933 252.477 32.24C252.477 35.712 253.504 38.4747 255.557 40.528C257.61 42.544 260.261 43.552 263.509 43.552C267.018 43.552 270.024 42.656 272.525 40.864V49.32ZM321.317 51H312.637V35.936H298.805V51H290.181V13.256H298.805V28.6H312.637V13.256H321.317V51Z" fill="#10143B"/>
<path d="M361.532 40.9958C360.211 42.319 358.452 43.047 356.583 43.047C354.714 43.047 352.955 42.319 351.634 40.9958L341.717 31.0795C340.395 29.7585 339.667 27.9995 339.667 26.1303C339.667 24.2612 340.395 22.5022 341.717 21.1816C343.038 19.8584 344.797 19.1304 346.667 19.1304C348.535 19.1304 350.295 19.8584 351.615 21.1816L356.583 26.1466L370.296 12.4338C365.816 8.61429 360.015 6.29736 353.667 6.29736C339.492 6.29736 328 17.7889 328 31.9635C328 46.1385 339.492 57.63 353.667 57.63C367.841 57.63 379.333 46.1385 379.333 31.9635C379.333 29.3107 378.929 26.7533 378.183 24.3453L361.532 40.9958Z" fill="#CFA348"/>
<path d="M356.583 38.3806C355.986 38.3806 355.388 38.152 354.933 37.697L345.017 27.7803C344.104 26.8681 344.104 25.3933 345.017 24.4811C345.929 23.5686 347.404 23.5686 348.316 24.4811L356.583 32.7478L380.017 9.31449C380.929 8.40233 382.403 8.40233 383.316 9.31449C384.228 10.2271 384.228 11.7015 383.316 12.6141L358.232 37.697C357.778 38.152 357.18 38.3806 356.583 38.3806Z" fill="#10143B"/>
<path d="M398.824 51H390.2V13.256H398.824V51ZM445.736 49.32C443.458 50.7387 440.173 51.448 435.88 51.448C430.354 51.448 425.725 49.6747 421.992 46.128C418.296 42.544 416.448 37.9147 416.448 32.24C416.448 26.4907 418.24 21.8053 421.824 18.184C425.445 14.5627 430.149 12.752 435.936 12.752C440.192 12.752 443.458 13.4613 445.736 14.88V23.168C442.936 21.4507 439.818 20.592 436.384 20.592C433.36 20.592 430.821 21.656 428.768 23.784C426.714 25.8747 425.688 28.6933 425.688 32.24C425.688 35.712 426.714 38.4747 428.768 40.528C430.821 42.544 433.472 43.552 436.72 43.552C440.229 43.552 443.234 42.656 445.736 40.864V49.32ZM486.856 51H463.392V13.256H486.632V20.144H472.072V28.712H485.064V35.544H472.072V44.112H486.856V51Z" fill="#10143B"/>
</svg>
