<svg width="24" height="24" viewBox="0 0 24 24" fill="none" xmlns="http://www.w3.org/2000/svg">
<path d="M17.496 14.3827C17.1952 14.2305 15.7305 13.5157 15.4567 13.4137C15.183 13.3162 14.9842 13.2652 14.7847 13.566C14.5897 13.8592 14.0152 14.5305 13.8397 14.7262C13.6642 14.922 13.4917 14.937 13.1955 14.8043C12.8947 14.652 11.934 14.3392 10.7933 13.3162C9.90225 12.5235 9.309 11.547 9.13275 11.2463C8.95725 10.9493 9.11325 10.7812 9.26175 10.6327C9.39825 10.4963 9.5625 10.2893 9.71475 10.1093C9.8595 9.92925 9.906 9.8085 10.0118 9.6135C10.1093 9.40275 10.059 9.2385 9.98475 9.09C9.9105 8.9415 9.31275 7.46925 9.063 6.88275C8.8245 6.30075 8.57475 6.375 8.391 6.375C8.21925 6.35925 8.01975 6.35925 7.821 6.35925C7.62225 6.35925 7.2975 6.4335 7.02375 6.7185C6.75 7.01925 5.97675 7.73775 5.97675 9.19125C5.97675 10.6485 7.047 12.0585 7.1955 12.2692C7.34775 12.4642 9.30075 15.4642 12.297 16.7535C13.0118 17.0542 13.5667 17.2342 14.0002 17.3827C14.715 17.6092 15.3675 17.5777 15.8827 17.5035C16.4527 17.4097 17.6483 16.7805 17.8988 16.0778C18.153 15.3705 18.153 14.7847 18.0788 14.652C18.0045 14.5155 17.8095 14.4412 17.5087 14.3085L17.496 14.3827ZM12.0623 21.75H12.0465C10.2727 21.75 8.51925 21.2692 6.98775 20.3708L6.6285 20.1562L2.8785 21.1327L3.8865 17.484L3.64425 17.109C2.65385 15.5343 2.12842 13.7118 2.1285 11.8515C2.1285 6.4065 6.58575 1.965 12.0697 1.965C14.7263 1.965 17.2185 3 19.0935 4.875C20.0185 5.78895 20.7521 6.87794 21.2518 8.07844C21.7514 9.27895 22.0069 10.5669 22.0035 11.8673C21.996 17.3085 17.5425 21.75 12.066 21.75H12.0623ZM20.5192 3.44925C18.2377 1.24575 15.2378 0 12.0465 0C5.4645 0 0.105 5.33625 0.10125 11.8942C0.10125 13.9882 0.648 16.0312 1.695 17.8395L0 24L6.336 22.3478C8.09123 23.2941 10.0532 23.7918 12.0472 23.7967H12.051C18.6368 23.7967 23.9963 18.4605 24 11.898C24 8.7225 22.7618 5.73375 20.5042 3.4875L20.5192 3.44925Z" fill="#CFA348"/>
</svg>
