<svg width="16" height="17" viewBox="0 0 16 17" fill="none" xmlns="http://www.w3.org/2000/svg">
<path d="M8 0.98584C3.6 0.98584 0 4.58584 0 8.98584C0 13.3858 3.6 16.9858 8 16.9858C12.4 16.9858 16 13.3858 16 8.98584C16 4.58584 12.4 0.98584 8 0.98584ZM13.52 5.78584H11.2C10.96 4.74584 10.56 3.86584 10.08 2.90584C11.52 3.46584 12.8 4.42584 13.52 5.78584ZM8 2.58584C8.64 3.54584 9.2 4.58584 9.52 5.78584H6.48C6.8 4.66584 7.36 3.54584 8 2.58584ZM1.84 10.5858C1.68 10.1058 1.6 9.54584 1.6 8.98584C1.6 8.42584 1.68 7.86584 1.84 7.38584H4.56C4.48 7.94584 4.48 8.42584 4.48 8.98584C4.48 9.54584 4.56 10.0258 4.56 10.5858H1.84ZM2.48 12.1858H4.8C5.04 13.2258 5.44 14.1058 5.92 15.0658C4.48 14.5058 3.2 13.5458 2.48 12.1858ZM4.8 5.78584H2.48C3.28 4.42584 4.48 3.46584 5.92 2.90584C5.44 3.86584 5.04 4.74584 4.8 5.78584ZM8 15.3858C7.36 14.4258 6.8 13.3858 6.48 12.1858H9.52C9.2 13.3058 8.64 14.4258 8 15.3858ZM9.84 10.5858H6.16C6.08 10.0258 6 9.54584 6 8.98584C6 8.42584 6.08 7.94584 6.16 7.38584H9.92C10 7.94584 10.08 8.42584 10.08 8.98584C10.08 9.54584 9.92 10.0258 9.84 10.5858ZM10.08 15.0658C10.56 14.1858 10.96 13.2259 11.2 12.1858H13.52C12.8 13.5458 11.52 14.5058 10.08 15.0658ZM11.52 10.5858C11.6 10.0258 11.6 9.54584 11.6 8.98584C11.6 8.42584 11.52 7.94584 11.52 7.38584H14.24C14.4 7.86584 14.48 8.42584 14.48 8.98584C14.48 9.54584 14.4 10.1058 14.24 10.5858H11.52Z" fill="white"/>
</svg>
