<svg width="14" height="14" viewBox="0 0 14 14" fill="none" xmlns="http://www.w3.org/2000/svg">
<g clip-path="url(#clip0)">
<path d="M0.874999 0.952509C-0.225167 2.09526 -7.52509e-07 3.30918 -7.52509e-07 6.99701C-7.52509e-07 10.0595 -0.534334 13.1296 2.26217 13.8523C3.13542 14.0769 10.8727 14.0769 11.7448 13.8512C12.9092 13.5508 13.8565 12.6063 13.986 10.9596C14.0041 10.7298 14.0041 3.26834 13.9854 3.03384C13.8477 1.27976 12.768 0.268842 11.3452 0.064092C11.0192 0.016842 10.9538 0.00284201 9.28083 -7.46604e-05C3.34658 0.00284201 2.04575 -0.261408 0.874999 0.952509Z" fill="url(#paint0_linear)"/>
<path d="M6.99883 1.83116C4.88075 1.83116 2.86942 1.64274 2.10117 3.61441C1.78383 4.42874 1.82992 5.48633 1.82992 7.00066C1.82992 8.32949 1.78733 9.57841 2.10117 10.3863C2.86767 12.3592 4.89533 12.1702 6.99767 12.1702C9.02592 12.1702 11.1172 12.3813 11.8948 10.3863C12.2127 9.56383 12.166 8.52199 12.166 7.00066C12.166 4.98116 12.2774 3.67741 11.298 2.69858C10.3063 1.70691 8.96525 1.83116 6.9965 1.83116H6.99883ZM6.53567 2.76274C10.9538 2.75574 11.5162 2.26458 11.2058 9.08783C11.0956 11.5011 9.25808 11.2362 6.99942 11.2362C2.88108 11.2362 2.76267 11.1184 2.76267 6.99833C2.76267 2.83041 3.08933 2.76508 6.53567 2.76158V2.76274ZM9.758 3.62083C9.41558 3.62083 9.13792 3.89849 9.13792 4.24091C9.13792 4.58333 9.41558 4.86099 9.758 4.86099C10.1004 4.86099 10.3781 4.58333 10.3781 4.24091C10.3781 3.89849 10.1004 3.62083 9.758 3.62083ZM6.99883 4.34591C5.53292 4.34591 4.34467 5.53474 4.34467 7.00066C4.34467 8.46658 5.53292 9.65483 6.99883 9.65483C8.46475 9.65483 9.65242 8.46658 9.65242 7.00066C9.65242 5.53474 8.46475 4.34591 6.99883 4.34591ZM6.99883 5.27749C9.27675 5.27749 9.27967 8.72383 6.99883 8.72383C4.7215 8.72383 4.718 5.27749 6.99883 5.27749Z" fill="white"/>
</g>
<defs>
<linearGradient id="paint0_linear" x1="0.901844" y1="13.1057" x2="13.9134" y2="1.84441" gradientUnits="userSpaceOnUse">
<stop stop-color="#FFDD55"/>
<stop offset="0.5" stop-color="#FF543E"/>
<stop offset="1" stop-color="#C837AB"/>
</linearGradient>
<clipPath id="clip0">
<rect width="14" height="14" fill="white"/>
</clipPath>
</defs>
</svg>
