<svg width="14" height="14" viewBox="0 0 14 14" fill="none" xmlns="http://www.w3.org/2000/svg">
<path d="M12.7336 0H1.26641C0.567 0 0 0.567 0 1.26641V12.7336C0 13.433 0.567 14 1.26641 14H12.7336C13.433 14 14 13.433 14 12.7336V1.26641C14 0.567 13.433 0 12.7336 0ZM4.33219 12.0885C4.33219 12.2921 4.1672 12.4571 3.96365 12.4571H2.39484C2.19129 12.4571 2.0263 12.2921 2.0263 12.0885V5.51215C2.0263 5.3086 2.19129 5.14361 2.39484 5.14361H3.96365C4.1672 5.14361 4.33219 5.3086 4.33219 5.51215V12.0885ZM3.17925 4.52369C2.35614 4.52369 1.68887 3.85641 1.68887 3.03331C1.68887 2.2102 2.35614 1.54293 3.17925 1.54293C4.00235 1.54293 4.66962 2.2102 4.66962 3.03331C4.66962 3.85641 4.00239 4.52369 3.17925 4.52369ZM12.5307 12.1182C12.5307 12.3053 12.379 12.4571 12.1919 12.4571H10.5084C10.3213 12.4571 10.1696 12.3053 10.1696 12.1182V9.03352C10.1696 8.57335 10.3046 7.01704 8.967 7.01704C7.9295 7.01704 7.71906 8.08229 7.6768 8.56034V12.1182C7.6768 12.3053 7.52511 12.4571 7.33794 12.4571H5.70976C5.52263 12.4571 5.37091 12.3053 5.37091 12.1182V5.48247C5.37091 5.29534 5.52263 5.14361 5.70976 5.14361H7.33794C7.52507 5.14361 7.6768 5.29534 7.6768 5.48247V6.05621C8.06151 5.47887 8.63324 5.03326 9.85054 5.03326C12.5462 5.03326 12.5307 7.55164 12.5307 8.93537V12.1182Z" fill="#0077B7"/>
</svg>
