<svg width="14" height="14" viewBox="0 0 14 14" fill="none" xmlns="http://www.w3.org/2000/svg">
<g clip-path="url(#clip0)">
<path d="M11.4959 13.7603C8.50166 14.0799 5.49834 14.0799 2.50409 13.7603C1.31015 13.6329 0.367111 12.6898 0.239685 11.4958C-0.079895 8.50156 -0.079895 5.49834 0.239685 2.50409C0.367111 1.31015 1.31015 0.367111 2.50409 0.239685C5.49834 -0.079895 8.50156 -0.079895 11.4958 0.239685C12.6898 0.367111 13.6329 1.31015 13.7603 2.50409C14.0799 5.49834 14.0799 8.50156 13.7603 11.4958C13.6329 12.6898 12.69 13.6329 11.4959 13.7603Z" fill="url(#paint0_linear)"/>
<path d="M12.9988 3.01063C12.8858 1.95116 12.0491 1.1143 10.9895 1.00118C8.33247 0.717705 5.66752 0.717705 3.01048 1.00118C1.95101 1.1143 1.11414 1.95116 1.00103 3.01063C0.717552 5.66767 0.717552 8.33262 1.00103 10.9896C1.11414 12.0491 1.95101 12.886 3.01048 12.999C5.66752 13.2826 8.33247 13.2826 10.9894 12.999C12.049 12.886 12.8858 12.0491 12.9988 10.9896C13.2824 8.33262 13.2824 5.66767 12.9988 3.01063Z" fill="url(#paint1_linear)"/>
<path d="M0.209778 11.2056C0.219391 11.3023 0.229324 11.3991 0.239685 11.4959C0.367111 12.6898 1.31015 13.6329 2.5042 13.7603C5.49844 14.0799 8.50166 14.0799 11.4959 13.7603C12.69 13.6329 13.6329 12.6898 13.7603 11.4959C13.7707 11.3991 13.7806 11.3023 13.7903 11.2056H0.209778Z" fill="url(#paint2_linear)"/>
<path d="M13.997 6.50806L11.091 3.60214C10.7653 3.78831 10.4783 3.8916 10.2621 3.94885C10.1406 3.98143 10.0414 3.99916 9.97 4.00888C9.6423 3.67296 9.18472 3.46436 8.67822 3.46436C7.68167 3.46436 6.87364 4.27228 6.87364 5.26904C6.87364 5.30504 6.8746 5.34061 6.87695 5.37607C6.88176 5.46248 6.89276 5.54739 6.90974 5.62996C6.49371 5.62376 5.14148 5.51268 3.85184 4.40718C3.85173 4.40718 3.85173 4.40707 3.85173 4.40707H3.85162L3.24344 3.79878C3.24344 3.79878 2.52994 5.0441 3.57893 5.98906C3.62497 6.04044 3.6756 6.09117 3.73103 6.14105C3.73541 6.14597 3.74001 6.15077 3.74438 6.15569C3.6067 6.14639 3.1926 6.10516 2.95291 5.93587C2.95291 5.93587 2.90474 6.69701 3.53888 7.25734L4.05093 7.77377C3.89499 7.7867 3.72249 7.7836 3.60254 7.73105C3.60254 7.73105 3.70871 8.1819 4.11908 8.54271L4.83643 9.26379C4.40608 9.51448 3.65274 9.82819 2.6611 9.74808L7.01271 14C8.50786 13.9996 10.003 13.9197 11.4959 13.7603C12.69 13.6329 13.633 12.6899 13.7604 11.4959C13.9376 9.83502 14.0163 8.17133 13.997 6.50806Z" fill="url(#paint3_linear)"/>
<path d="M11.339 4.30304C11.0293 4.46507 10.5627 4.53995 10.408 4.56152C10.4068 4.55405 10.4055 4.54689 10.4042 4.53973C10.93 4.21449 11.091 3.60214 11.091 3.60214C10.7653 3.78831 10.4783 3.8916 10.2621 3.94885C10.1406 3.98143 10.0414 3.99905 9.97 4.00888C9.6423 3.67285 9.18472 3.46436 8.67822 3.46436C7.68167 3.46436 6.87364 4.27217 6.87364 5.26904C6.87364 5.30493 6.8746 5.34061 6.87695 5.37596C6.88176 5.46237 6.89276 5.54729 6.90974 5.62985C6.42738 5.6227 4.68625 5.47476 3.24344 3.79878C3.24344 3.79878 2.44 5.20058 3.79074 6.15814C3.79074 6.15814 3.24344 6.14105 2.95291 5.93587C2.95291 5.93587 2.86746 7.28661 4.42317 7.71385C4.42317 7.71385 3.87619 7.85078 3.60243 7.73105C3.60243 7.73105 3.87608 8.89359 5.2438 8.97925C5.2438 8.97925 4.26285 9.87732 2.661 9.74808C3.44884 10.2469 4.3829 10.5356 5.38437 10.5356C8.20024 10.5356 10.483 8.25293 10.483 5.43706C10.483 5.40192 10.4827 5.36678 10.4819 5.33163C10.4827 5.31081 10.483 5.29008 10.483 5.26904C10.483 5.25441 10.4827 5.23978 10.4825 5.22514C11.0031 4.87822 11.339 4.30304 11.339 4.30304Z" fill="white"/>
</g>
<defs>
<linearGradient id="paint0_linear" x1="4.64827" y1="1.96837" x2="8.18927" y2="9.54447" gradientUnits="userSpaceOnUse">
<stop stop-color="#00C3FF"/>
<stop offset="1" stop-color="#00B0ED"/>
</linearGradient>
<linearGradient id="paint1_linear" x1="9.96084" y1="8.58846" x2="-10.3793" y2="-2.32277" gradientUnits="userSpaceOnUse">
<stop stop-color="#00B0ED" stop-opacity="0"/>
<stop offset="1" stop-color="#00A2CE"/>
</linearGradient>
<linearGradient id="paint2_linear" x1="7.00001" y1="11.9597" x2="7.00001" y2="13.7941" gradientUnits="userSpaceOnUse">
<stop stop-color="#00B0ED" stop-opacity="0"/>
<stop offset="1" stop-color="#00A2CE"/>
</linearGradient>
<linearGradient id="paint3_linear" x1="13.3826" y1="13.1817" x2="6.54319" y2="6.34228" gradientUnits="userSpaceOnUse">
<stop stop-color="#00B0ED" stop-opacity="0"/>
<stop offset="1" stop-color="#00A2CE"/>
</linearGradient>
<clipPath id="clip0">
<rect width="14" height="14" fill="white"/>
</clipPath>
</defs>
</svg>
