<svg width="16" height="17" viewBox="0 0 16 17" fill="none" xmlns="http://www.w3.org/2000/svg">
<g clip-path="url(#clip0)">
<path d="M7.88599 8.69312C8.94482 8.69312 9.86169 8.31335 10.6108 7.56409C11.36 6.81494 11.7397 5.89832 11.7397 4.83936C11.7397 3.78076 11.36 2.86401 10.6107 2.11462C9.86145 1.3656 8.9447 0.98584 7.88599 0.98584C6.82703 0.98584 5.9104 1.3656 5.16125 2.11475C4.41211 2.86389 4.03223 3.78064 4.03223 4.83936C4.03223 5.89832 4.41211 6.81506 5.16138 7.56421C5.91064 8.31323 6.82739 8.69312 7.88599 8.69312Z" fill="white"/>
<path d="M14.629 13.2889C14.6074 12.9772 14.5637 12.6371 14.4994 12.278C14.4344 11.9161 14.3508 11.5741 14.2507 11.2615C14.1473 10.9384 14.0067 10.6193 13.8329 10.3135C13.6525 9.99609 13.4406 9.71973 13.2028 9.49231C12.9541 9.25439 12.6497 9.06311 12.2976 8.92358C11.9468 8.78479 11.558 8.71448 11.1421 8.71448C10.9788 8.71448 10.8208 8.78149 10.5157 8.9801C10.328 9.10254 10.1084 9.24414 9.86328 9.40076C9.65369 9.5343 9.36975 9.65942 9.01904 9.77271C8.67688 9.88342 8.32947 9.93958 7.98657 9.93958C7.64368 9.93958 7.29639 9.88342 6.95386 9.77271C6.60352 9.65955 6.31958 9.53442 6.11023 9.40088C5.86743 9.24573 5.64771 9.10413 5.45715 8.97998C5.15247 8.78137 4.99438 8.71436 4.83105 8.71436C4.41504 8.71436 4.02637 8.78479 3.67566 8.92371C3.32385 9.06299 3.01929 9.25427 2.77039 9.49243C2.53271 9.71997 2.32068 9.99622 2.1405 10.3135C1.9668 10.6193 1.82617 10.9382 1.72266 11.2616C1.62268 11.5742 1.53906 11.9161 1.47412 12.278C1.40979 12.6366 1.36609 12.9768 1.34448 13.2893C1.32324 13.5955 1.3125 13.9132 1.3125 14.2341C1.3125 15.0693 1.578 15.7455 2.10156 16.2441C2.61865 16.7362 3.30286 16.9858 4.13489 16.9858H11.839C12.671 16.9858 13.355 16.7363 13.8722 16.2441C14.3959 15.7458 14.6614 15.0696 14.6614 14.234C14.6613 13.9116 14.6504 13.5936 14.629 13.2889Z" fill="white"/>
</g>
<defs>
<clipPath id="clip0">
<rect width="16" height="16.0001" fill="white" transform="translate(0 0.98584)"/>
</clipPath>
</defs>
</svg>
