<svg width="41" height="41" viewBox="0 0 41 41" fill="none" xmlns="http://www.w3.org/2000/svg">
<circle cx="20.5" cy="20.5" r="20.5" fill="#CFA348"/>
<path d="M27.184 29H16.72V26.288C18.448 25.104 19.968 23.792 21.28 22.352C22.608 20.912 23.272 19.64 23.272 18.536C23.272 17.864 23.072 17.336 22.672 16.952C22.272 16.552 21.664 16.352 20.848 16.352C19.488 16.352 18.2 16.856 16.984 17.864V14.48C17.512 14.096 18.2 13.768 19.048 13.496C19.896 13.224 20.728 13.088 21.544 13.088C23.176 13.088 24.472 13.52 25.432 14.384C26.408 15.232 26.896 16.424 26.896 17.96C26.896 20.728 25.136 23.416 21.616 26.024H27.184V29Z" fill="white"/>
</svg>
