<svg width="41" height="41" viewBox="0 0 41 41" fill="none" xmlns="http://www.w3.org/2000/svg">
<circle cx="20.5" cy="20.5" r="20.5" fill="#CFA348"/>
<path d="M26.752 24.68C26.752 26.024 26.24 27.104 25.216 27.92C24.208 28.72 22.792 29.12 20.968 29.12C19.256 29.12 17.84 28.848 16.72 28.304V24.944C18 25.648 19.32 26 20.68 26C21.464 26 22.072 25.832 22.504 25.496C22.952 25.16 23.176 24.736 23.176 24.224C23.176 23.056 22.096 22.472 19.936 22.472H19.096V19.592H19.936C20.784 19.592 21.48 19.448 22.024 19.16C22.568 18.872 22.84 18.44 22.84 17.864C22.84 16.76 22.12 16.208 20.68 16.208C19.576 16.208 18.464 16.552 17.344 17.24V13.976C18.528 13.384 19.72 13.088 20.92 13.088C22.616 13.088 23.96 13.496 24.952 14.312C25.944 15.112 26.44 16.16 26.44 17.456C26.44 19.232 25.632 20.456 24.016 21.128C25.84 21.56 26.752 22.744 26.752 24.68Z" fill="white"/>
</svg>
