<svg width="14" height="10" viewBox="0 0 14 10" fill="none" xmlns="http://www.w3.org/2000/svg">
<path fill-rule="evenodd" clip-rule="evenodd" d="M14 5.00014C14 4.86753 13.9473 4.74036 13.8536 4.64659C13.7598 4.55282 13.6326 4.50014 13.5 4.50014H1.707L4.854 1.35414C4.94789 1.26026 5.00063 1.13292 5.00063 1.00014C5.00063 0.867368 4.94789 0.74003 4.854 0.646143C4.76011 0.552257 4.63278 0.499512 4.5 0.499512C4.36722 0.499512 4.23989 0.552257 4.146 0.646143L0.146 4.64614C0.0994368 4.69259 0.0624943 4.74776 0.0372877 4.80851C0.0120811 4.86926 -0.000893593 4.93438 -0.000893593 5.00014C-0.000893593 5.06591 0.0120811 5.13103 0.0372877 5.19178C0.0624943 5.25252 0.0994368 5.3077 0.146 5.35414L4.146 9.35414C4.23989 9.44803 4.36722 9.50077 4.5 9.50077C4.63278 9.50077 4.76011 9.44803 4.854 9.35414C4.94789 9.26026 5.00063 9.13292 5.00063 9.00014C5.00063 8.86737 4.94789 8.74003 4.854 8.64614L1.707 5.50014H13.5C13.6326 5.50014 13.7598 5.44746 13.8536 5.3537C13.9473 5.25993 14 5.13275 14 5.00014Z" fill="black"/>
</svg>
