<svg width="49" height="41" viewBox="0 0 49 41" fill="none" xmlns="http://www.w3.org/2000/svg">
<path d="M7.45843 23.2041V29.6437C7.45843 31.3166 8.3751 32.875 9.84177 33.677L21.3001 39.9333C22.6751 40.6895 24.3251 40.6895 25.7001 39.9333L37.1584 33.677C38.6251 32.875 39.5418 31.3166 39.5418 29.6437V23.2041L25.7001 30.7666C24.3251 31.5229 22.6751 31.5229 21.3001 30.7666L7.45843 23.2041ZM21.3001 1.0666L1.98135 11.6083C0.400097 12.4791 0.400097 14.7708 1.98135 15.6416L21.3001 26.1833C22.6751 26.9395 24.3251 26.9395 25.7001 26.1833L44.1251 16.1229V29.6666C44.1251 30.927 45.1563 31.9583 46.4168 31.9583C47.6772 31.9583 48.7084 30.927 48.7084 29.6666V14.977C48.7084 14.1291 48.2501 13.3729 47.5168 12.9604L25.7001 1.0666C25.023 0.705492 24.2675 0.516602 23.5001 0.516602C22.7327 0.516602 21.9772 0.705492 21.3001 1.0666Z" fill="black"/>
</svg>
