<svg width="24" height="16" viewBox="0 0 24 16" fill="none" xmlns="http://www.w3.org/2000/svg">
<path d="M23.2461 6.92965V6.92449C23.234 6.80561 23.1936 6.69134 23.1284 6.59122C23.0632 6.49109 22.975 6.408 22.8711 6.34886L12.3711 0.348865C12.2578 0.284079 12.1295 0.25 11.9989 0.25C11.8684 0.25 11.7401 0.284079 11.6268 0.348865L1.12676 6.34886C1.01201 6.41448 0.916631 6.50925 0.850296 6.62359C0.783961 6.73793 0.749023 6.86777 0.749023 6.99996C0.749023 7.13215 0.783961 7.26199 0.850296 7.37633C0.916631 7.49066 1.01201 7.58544 1.12676 7.65105L11.6268 13.6511C11.7401 13.7158 11.8684 13.7499 11.9989 13.7499C12.1295 13.7499 12.2578 13.7158 12.3711 13.6511L21.6093 8.37246C21.6235 8.36421 21.6397 8.35988 21.6562 8.3599C21.6727 8.35991 21.6889 8.36428 21.7032 8.37255C21.7174 8.38082 21.7293 8.39271 21.7375 8.40701C21.7457 8.42132 21.7499 8.43753 21.7499 8.45402V15.2289C21.7499 15.6325 22.0602 15.9789 22.4638 15.999C22.5652 16.0039 22.6665 15.9882 22.7617 15.9527C22.8568 15.9173 22.9438 15.8629 23.0173 15.7929C23.0908 15.7228 23.1493 15.6386 23.1893 15.5453C23.2292 15.4519 23.2499 15.3515 23.2499 15.25V6.99996C23.2498 6.97647 23.2486 6.953 23.2461 6.92965Z" fill="#CFA348"/>
</svg>
