<svg width="200" height="32" viewBox="0 0 200 32" fill="none" xmlns="http://www.w3.org/2000/svg">
<path d="M0 19.8324L0.878193 18.9316C1.59246 19.7243 2.47431 20.3613 3.4649 20.8001C4.45548 21.2389 5.532 21.4694 6.62257 21.4762C9.60731 21.4762 11.4888 19.9366 11.4888 17.6967C11.4888 15.3473 9.89634 14.5988 7.97043 13.7649L5.00236 12.4979C3.29878 11.7763 1.03382 10.6055 1.03382 7.82036C1.03382 5.08865 3.46831 3.18555 6.71984 3.18555C7.7406 3.18056 8.75163 3.37646 9.69076 3.7612C10.6299 4.14594 11.4773 4.71139 12.1808 5.42277L11.3915 6.2968C10.799 5.67832 10.0779 5.18664 9.27497 4.85371C8.47204 4.52077 7.60526 4.35402 6.73096 4.3643C4.14918 4.3643 2.41503 5.70075 2.41503 7.72681C2.41503 9.92393 4.36039 10.7499 5.79996 11.3566L8.75691 12.6262C10.9496 13.5644 12.8755 14.7271 12.8755 17.6032C12.8755 20.4792 10.4105 22.6683 6.61701 22.6683C5.36595 22.6871 4.1257 22.4431 2.98283 21.9533C1.83995 21.4635 0.821991 20.7397 0 19.8324Z" fill="white"/>
<path d="M15.713 12.8828C15.713 6.91689 19.0951 3.17215 24.0697 3.17215C25.0358 3.17449 25.99 3.37641 26.8679 3.76423C27.7458 4.15205 28.5269 4.71673 29.1582 5.42006L28.355 6.29945C27.8335 5.69544 27.1803 5.20904 26.4417 4.87463C25.7031 4.54023 24.8971 4.366 24.0808 4.36427C19.7954 4.36427 17.1331 7.64659 17.1331 12.8668C17.1331 18.087 19.7565 21.4762 23.9585 21.4762C25.9761 21.4762 27.4852 20.6743 28.9025 19.1561L29.7029 19.9794C28.205 21.6526 26.4347 22.6683 23.8863 22.6683C19.0784 22.6683 15.713 18.8594 15.713 12.8828Z" fill="white"/>
<path d="M33.7103 3.51428H35.0748V11.7575H45.5297V3.51428H46.8943V22.3262H45.5297V12.9042H35.0748V22.3262H33.7103V3.51428Z" fill="white"/>
<path d="M51.416 12.8588C51.416 6.9062 54.7704 3.17215 59.4754 3.17215C64.1804 3.17215 67.5347 6.91422 67.5347 12.8588C67.5347 18.8033 64.1804 22.6683 59.4754 22.6683C54.7704 22.6683 51.416 18.814 51.416 12.8588ZM66.0952 12.8588C66.0952 7.64125 63.4411 4.36427 59.4698 4.36427C55.4985 4.36427 52.8472 7.64125 52.8472 12.8588C52.8472 18.0763 55.4985 21.4762 59.4698 21.4762C63.4411 21.4762 66.0952 18.0789 66.0952 12.8588Z" fill="white"/>
<path d="M70.7667 12.8588C70.7667 6.9062 74.121 3.17215 78.826 3.17215C83.531 3.17215 86.8854 6.91422 86.8854 12.8588C86.8854 18.8033 83.531 22.6683 78.826 22.6683C74.121 22.6683 70.7667 18.814 70.7667 12.8588ZM85.4458 12.8588C85.4458 7.64125 82.7918 4.36427 78.8205 4.36427C74.8492 4.36427 72.209 7.64125 72.209 12.8588C72.209 18.0763 74.8603 21.4762 78.8316 21.4762C82.8029 21.4762 85.4458 18.0789 85.4458 12.8588Z" fill="white"/>
<path d="M91.3849 3.51428H92.7494V21.1955H101.751V22.3262H91.3849V3.51428Z" fill="white"/>
<path d="M103.382 19.982L105.883 17.0953C107.259 18.2473 109.043 19.0385 110.636 19.0385C112.461 19.0385 113.353 18.3489 113.353 17.2423C113.353 16.0716 112.242 15.6973 110.574 15.0291L108.073 13.9974C106.069 13.2142 104.182 11.6292 104.182 8.91886C104.182 5.83433 107.048 3.37259 111.075 3.37259C113.391 3.38494 115.613 4.26065 117.272 5.81563L115.063 8.46715C113.79 7.52629 112.578 7.01041 111.05 7.01041C109.521 7.01041 108.582 7.61449 108.582 8.6783C108.582 9.81963 109.846 10.2339 111.533 10.8808L113.998 11.8404C116.36 12.7598 117.836 14.2727 117.836 16.9002C117.836 19.99 115.157 22.6683 110.549 22.6683C107.896 22.6619 105.34 21.7041 103.382 19.982Z" fill="white"/>
<path d="M120.221 13.1314C120.221 6.95698 124.464 3.37796 129.353 3.37796C130.44 3.38671 131.514 3.60397 132.513 4.01704C133.512 4.43011 134.415 5.03067 135.169 5.78357L132.863 8.48321C131.893 7.61184 130.848 7.00242 129.45 7.00242C126.796 7.00242 124.7 9.25033 124.7 12.9817C124.7 16.8066 126.551 19.0278 129.38 19.0278C130.967 19.0278 132.218 18.2767 133.163 17.2904L135.469 19.9286C134.706 20.8034 133.749 21.5029 132.668 21.9756C131.587 22.4482 130.409 22.6822 129.222 22.6603C124.317 22.6683 120.221 19.3967 120.221 13.1314Z" fill="white"/>
<path d="M166.673 13.7035V3.72021H171.045V14.1445C171.045 17.7877 172.24 19.0466 174.405 19.0466C176.569 19.0466 177.831 17.7877 177.831 14.1445V3.72021H182.047V13.7035C182.047 19.9501 179.41 22.6684 174.405 22.6684C169.399 22.6684 166.673 19.9501 166.673 13.7035Z" fill="white"/>
<path d="M190.301 7.24844H184.976V3.72021H200V7.24844H194.675V22.3263H190.301V7.24844Z" fill="white"/>
<path d="M164.475 25.0611L161.112 21.8269C163.414 19.3169 164.633 16.0568 164.52 12.7119C164.407 9.36698 162.971 6.18953 160.506 3.82812C158.04 1.46671 154.73 0.0993708 151.252 0.00520646C147.774 -0.0889579 144.389 1.09715 141.79 3.32142C139.19 5.5457 137.57 8.64043 137.262 11.9739C136.954 15.3075 137.98 18.6284 140.131 21.2589C142.283 23.8894 145.396 25.6312 148.837 26.1287C152.278 26.6262 155.787 25.8418 158.647 23.9358L162.146 27.2983C162.454 27.5954 162.873 27.7624 163.309 27.7626C163.746 27.7629 164.165 27.5964 164.473 27.2997C164.782 27.003 164.956 26.6005 164.956 26.1807C164.956 25.7609 164.783 25.3582 164.475 25.0611ZM151.077 25.8095C148.623 25.8095 146.224 25.1096 144.183 23.7982C142.142 22.4868 140.552 20.6229 139.613 18.4422C138.674 16.2614 138.428 13.8618 138.907 11.5467C139.385 9.23166 140.567 7.10513 142.303 5.43606C144.038 3.76699 146.249 2.63034 148.656 2.16984C151.063 1.70935 153.558 1.94569 155.825 2.84898C158.093 3.75228 160.031 5.28195 161.394 7.24457C162.758 9.20719 163.486 11.5146 163.486 13.875C163.481 17.0387 162.171 20.0712 159.843 22.3065C157.516 24.5417 154.361 25.7969 151.071 25.7962L151.077 25.8095Z" fill="white"/>
<path d="M148.634 4.37322L147.481 4.93453C147.523 4.85891 147.588 4.79738 147.667 4.75812L148.82 4.19681C148.741 4.23607 148.676 4.2976 148.634 4.37322Z" fill="#855D13"/>
<path d="M154.581 22.4091L153.425 22.9704C153.338 23.0077 153.242 23.0202 153.148 23.0064C153.054 22.9927 152.966 22.9533 152.894 22.8929L154.05 22.3316C154.122 22.392 154.21 22.4314 154.304 22.4451C154.398 22.4589 154.494 22.4464 154.581 22.4091Z" fill="#855D13"/>
<path d="M143.473 13.6847L142.317 14.2487L147.47 4.93365L148.623 4.37234L143.473 13.6847Z" fill="#885F13"/>
<path d="M154.05 22.3316L152.894 22.8929L142.531 15.0533L143.687 14.4919L154.05 22.3316Z" fill="#845D13"/>
<path d="M143.465 14.2006L142.309 14.7646C142.27 14.6838 142.249 14.5958 142.249 14.5066C142.249 14.4175 142.27 14.3295 142.309 14.2487L143.462 13.6847C143.424 13.7657 143.404 13.8536 143.404 13.9427C143.404 14.0317 143.424 14.1196 143.462 14.2006" fill="#855D13"/>
<path d="M143.687 14.492L142.534 15.0533C142.434 14.9773 142.357 14.8779 142.309 14.7647L143.465 14.2007C143.511 14.315 143.588 14.4155 143.687 14.492Z" fill="#855D13"/>
<path d="M143.465 14.2006C143.426 14.1197 143.406 14.0317 143.406 13.9427C143.406 13.8537 143.426 13.7657 143.465 13.6848L148.634 4.37236C148.668 4.314 148.716 4.26399 148.774 4.22616C148.831 4.18833 148.897 4.16368 148.966 4.15413C149.035 4.14458 149.105 4.15037 149.171 4.17106C149.238 4.19174 149.298 4.22678 149.348 4.27346L159.714 12.1131C159.813 12.1889 159.89 12.2885 159.937 12.4018C159.975 12.4827 159.995 12.5707 159.995 12.6597C159.995 12.7487 159.975 12.8367 159.937 12.9176L154.784 22.23C154.75 22.2886 154.703 22.3388 154.645 22.3769C154.588 22.415 154.522 22.4399 154.453 22.4497C154.384 22.4595 154.314 22.454 154.247 22.4335C154.181 22.413 154.12 22.3782 154.07 22.3316L143.687 14.492C143.588 14.4154 143.511 14.3149 143.465 14.2006Z" fill="#FCB124"/>
<path d="M151.116 14.1311C151.43 14.1311 151.686 13.8858 151.686 13.5831C151.686 13.2805 151.43 13.0352 151.116 13.0352C150.801 13.0352 150.546 13.2805 150.546 13.5831C150.546 13.8858 150.801 14.1311 151.116 14.1311Z" fill="#1C1C1B"/>
<path d="M151.691 28.7304C151.703 28.7701 151.728 28.8054 151.761 28.832C151.784 28.8529 151.811 28.8691 151.841 28.8796C151.871 28.8901 151.903 28.8948 151.935 28.8933C151.967 28.8918 151.998 28.8842 152.027 28.8709C152.056 28.8576 152.081 28.839 152.102 28.816C153.464 27.3726 154.351 26.1939 154.982 24.9991C155.753 23.5932 156.117 22.0135 156.035 20.4257C155.86 17.2877 154.12 14.5453 151.494 13.2517C151.465 13.2343 151.433 13.2228 151.399 13.218C151.366 13.2132 151.332 13.2152 151.299 13.2238C151.266 13.2325 151.236 13.2476 151.209 13.2681C151.183 13.2887 151.161 13.3143 151.146 13.3434C151.13 13.3724 151.121 13.4042 151.119 13.4368C151.117 13.4694 151.122 13.502 151.134 13.5326C151.146 13.5632 151.164 13.5911 151.188 13.6145C151.212 13.6379 151.24 13.6564 151.271 13.6686C153.745 14.8821 155.382 17.4802 155.548 20.4498C155.732 23.7776 153.828 26.2874 151.741 28.5033C151.713 28.5339 151.694 28.5708 151.685 28.6106C151.677 28.6504 151.679 28.6916 151.691 28.7304Z" fill="white"/>
<path d="M150.991 28.4579C150.489 28.7812 150.03 29.1617 149.623 29.5912C149.382 29.8345 149.101 30.0403 148.868 30.2915C148.746 30.4139 148.652 30.5584 148.59 30.7165C148.484 31.0694 148.759 31.0079 148.998 30.9036C148.879 30.9571 148.848 31.2378 148.929 31.3286C149.009 31.4195 149.29 31.3661 149.409 31.5425C149.56 31.7616 149.51 32.1038 149.874 31.9193C150.571 31.5638 151.071 30.909 151.51 30.2969C151.805 29.8853 152.583 29.0513 152.308 28.5034C152.258 28.3909 152.171 28.297 152.061 28.2358C151.951 28.1746 151.823 28.1494 151.697 28.1639C151.552 28.185 151.413 28.2312 151.285 28.3002C151.184 28.3478 151.086 28.4004 150.991 28.4579Z" fill="#F5B314"/>
<path d="M159.106 23.5587L160.638 22.0845L164.06 25.3751C164.263 25.5706 164.377 25.8357 164.377 26.1122C164.377 26.3886 164.263 26.6538 164.06 26.8493C163.856 27.0448 163.581 27.1546 163.293 27.1546C163.006 27.1546 162.73 27.0448 162.527 26.8493L159.106 23.5587Z" fill="#F5B314"/>
</svg>
