<svg width="16" height="16" viewBox="0 0 16 16" fill="none" xmlns="http://www.w3.org/2000/svg">
<g clip-path="url(#clip0)">
<path d="M9.88086 2.6875L1.07744 11.4915C1.03315 11.536 1.00117 11.5921 0.985939 11.6523L0.0101637 15.5689C-0.0190245 15.6868 0.0156207 15.8122 0.101662 15.8982C0.166765 15.9633 0.255472 15.9993 0.346209 15.9993C0.374001 15.9993 0.402428 15.9959 0.430094 15.9889L4.34665 15.013C4.40769 14.9978 4.46315 14.966 4.50744 14.9217L13.3116 6.11825L9.88086 2.6875Z" fill="#121212"/>
<path d="M15.4943 1.48706L14.5144 0.507094C13.8594 -0.147864 12.7179 -0.14723 12.0637 0.507094L10.8633 1.70749L14.2939 5.13813L15.4943 3.93773C15.8215 3.61069 16.0017 3.17541 16.0017 2.71246C16.0017 2.24951 15.8215 1.81422 15.4943 1.48706Z" fill="#121212"/>
</g>
<defs>
<clipPath id="clip0">
<rect width="16" height="16" fill="white"/>
</clipPath>
</defs>
</svg>
