<svg width="16" height="16" viewBox="0 0 16 16" fill="none" xmlns="http://www.w3.org/2000/svg">
<g clip-path="url(#clip0)">
<path d="M1.92175 8.73779C1.89087 8.48047 1.875 8.22485 1.875 8C1.875 4.64368 4.64368 1.875 8 1.875C9.56555 1.875 11.0312 2.50623 12.1094 3.4906L11.5687 4.04065C11.4469 4.16248 11.4 4.34058 11.4469 4.5094C11.5032 4.6687 11.6344 4.79065 11.8031 4.82812C11.8975 4.84705 14.9973 5.84595 14.7999 5.80627C15.051 5.88989 15.4224 5.62207 15.3531 5.25317C15.3341 5.15869 14.6478 1.71521 14.6875 1.91248C14.65 1.74377 14.5281 1.60315 14.3594 1.55627C14.2001 1.5094 14.0219 1.55627 13.9 1.6781L13.4407 2.12805C12.025 0.806274 10.0812 0 8 0C3.60315 0 0 3.60315 0 8V8.01868C0 8.28296 0.012085 8.48718 0.0261231 8.64343C0.0447998 8.85046 0.197388 9.02002 0.401245 9.06091L1.36426 9.25342C1.67773 9.31616 1.95959 9.05334 1.92175 8.73779Z" fill="white"/>
<path d="M15.6033 6.93837L14.6375 6.74159C14.3236 6.67762 14.0398 6.94069 14.0784 7.2577C14.1118 7.53126 14.1267 7.79725 14.1267 8.00001C14.1267 11.3562 11.358 14.125 8.00172 14.125C6.43617 14.125 4.97047 13.4938 3.89235 12.5L4.433 11.9594C4.55482 11.8375 4.6017 11.6594 4.55482 11.4906C4.49855 11.3312 4.36732 11.2094 4.19862 11.1719C4.10426 11.1528 1.00441 10.1541 1.2018 10.1937C1.04237 10.1657 0.88295 10.2125 0.779923 10.325C0.667374 10.4281 0.620499 10.5968 0.648575 10.7468C0.667618 10.8412 1.35402 14.2534 1.31435 14.0562C1.3517 14.225 1.47365 14.3656 1.64235 14.4124C1.83803 14.4614 2.00136 14.4021 2.1017 14.2905L2.55177 13.8406C3.9673 15.1625 5.91115 16 8.00172 16C12.3986 16 16.0017 12.3969 16.0017 8.00001V7.97181C16.0017 7.76405 15.9942 7.56007 15.9768 7.35731C15.959 7.15016 15.807 6.97999 15.6033 6.93837Z" fill="white"/>
</g>
<defs>
<clipPath id="clip0">
<rect width="16" height="16" fill="white"/>
</clipPath>
</defs>
</svg>
