<svg width="200" height="32" viewBox="0 0 200 32" fill="none" xmlns="http://www.w3.org/2000/svg">
<path d="M0 19.8498L0.878193 18.9482C1.59246 19.7416 2.47431 20.3792 3.4649 20.8183C4.45548 21.2575 5.532 21.4882 6.62257 21.4951C9.60732 21.4951 11.4888 19.9541 11.4888 17.7123C11.4888 15.3607 9.89634 14.6117 7.97043 13.777L5.00236 12.5089C3.29878 11.7866 1.03382 10.6148 1.03382 7.82723C1.03382 5.09313 3.46831 3.18836 6.71984 3.18836C7.7406 3.18336 8.75163 3.37943 9.69076 3.76451C10.6299 4.14959 11.4773 4.71553 12.1808 5.42754L11.3915 6.30234C10.799 5.68332 10.0779 5.19121 9.27497 4.85798C8.47204 4.52475 7.60526 4.35786 6.73096 4.36814C4.14918 4.36814 2.41503 5.70576 2.41503 7.7336C2.41503 9.93265 4.36039 10.7593 5.79996 11.3666L8.75691 12.6373C10.9496 13.5763 12.8755 14.7401 12.8755 17.6186C12.8755 20.4972 10.4105 22.6882 6.61701 22.6882C5.36595 22.707 4.1257 22.4628 2.98283 21.9726C1.83995 21.4823 0.821991 20.7579 0 19.8498Z" fill="white"/>
<path d="M15.713 12.8941C15.713 6.92298 19.0952 3.17496 24.0697 3.17496C25.0358 3.1773 25.9901 3.37939 26.868 3.76756C27.7459 4.15572 28.5269 4.7209 29.1582 5.42484L28.3551 6.305C27.8335 5.70046 27.1804 5.21363 26.4418 4.87893C25.7032 4.54424 24.8972 4.36986 24.0809 4.36812C19.7955 4.36812 17.1331 7.65333 17.1331 12.8781C17.1331 18.1028 19.7566 21.4951 23.9586 21.4951C25.9762 21.4951 27.4852 20.6925 28.9026 19.1729L29.703 19.9969C28.205 21.6716 26.4347 22.6882 23.8863 22.6882C19.0785 22.6882 15.713 18.876 15.713 12.8941Z" fill="white"/>
<path d="M33.7104 3.51736H35.0749V11.7678H45.5299V3.51736H46.8944V22.3457H45.5299V12.9155H35.0749V22.3457H33.7104V3.51736Z" fill="white"/>
<path d="M51.416 12.8701C51.416 6.91228 54.7704 3.17496 59.4754 3.17496C64.1804 3.17496 67.5347 6.92031 67.5347 12.8701C67.5347 18.8198 64.1804 22.6882 59.4754 22.6882C54.7704 22.6882 51.416 18.8305 51.416 12.8701ZM66.0952 12.8701C66.0952 7.64797 63.4411 4.36812 59.4698 4.36812C55.4985 4.36812 52.8472 7.64797 52.8472 12.8701C52.8472 18.0921 55.4985 21.4951 59.4698 21.4951C63.4411 21.4951 66.0952 18.0948 66.0952 12.8701Z" fill="white"/>
<path d="M70.7668 12.8701C70.7668 6.91228 74.1211 3.17496 78.8261 3.17496C83.5311 3.17496 86.8855 6.92031 86.8855 12.8701C86.8855 18.8198 83.5311 22.6882 78.8261 22.6882C74.1211 22.6882 70.7668 18.8305 70.7668 12.8701ZM85.4459 12.8701C85.4459 7.64797 82.7919 4.36812 78.8206 4.36812C74.8493 4.36812 72.2091 7.64797 72.2091 12.8701C72.2091 18.0921 74.8604 21.4951 78.8317 21.4951C82.803 21.4951 85.4459 18.0948 85.4459 12.8701Z" fill="white"/>
<path d="M91.3849 3.51736H92.7494V21.2141H101.751V22.3457H91.3849V3.51736Z" fill="white"/>
<path d="M103.382 19.9996L105.883 17.1103C107.259 18.2633 109.043 19.0552 110.636 19.0552C112.461 19.0552 113.354 18.365 113.354 17.2574C113.354 16.0857 112.242 15.7111 110.574 15.0423L108.073 14.0097C106.07 13.2258 104.183 11.6394 104.183 8.92672C104.183 5.83948 107.048 3.37558 111.075 3.37558C113.391 3.38794 115.613 4.26442 117.272 5.82076L115.063 8.47461C113.79 7.53292 112.578 7.01659 111.05 7.01659C109.521 7.01659 108.582 7.6212 108.582 8.68595C108.582 9.82828 109.846 10.2429 111.533 10.8904L113.998 11.8508C116.361 12.7711 117.836 14.2852 117.836 16.915C117.836 20.0076 115.157 22.6882 110.549 22.6882C107.896 22.6819 105.34 21.7232 103.382 19.9996Z" fill="white"/>
<path d="M120.221 13.1429C120.221 6.9631 124.464 3.38095 129.353 3.38095C130.44 3.3897 131.514 3.60716 132.513 4.02059C133.512 4.43402 134.415 5.03511 135.169 5.78867L132.863 8.49067C131.893 7.61854 130.848 7.00858 129.45 7.00858C126.796 7.00858 124.701 9.25847 124.701 12.9931C124.701 16.8214 126.551 19.0445 129.381 19.0445C130.967 19.0445 132.218 18.2928 133.163 17.3056L135.47 19.9461C134.706 20.8217 133.749 21.5217 132.668 21.9949C131.587 22.468 130.409 22.7021 129.222 22.6802C124.317 22.6882 120.221 19.4137 120.221 13.1429Z" fill="white"/>
<path d="M166.673 13.7155V3.72348H171.045V14.1569C171.045 17.8033 172.24 19.0633 174.405 19.0633C176.569 19.0633 177.831 17.8033 177.831 14.1569V3.72348H182.047V13.7155C182.047 19.9676 179.41 22.6883 174.405 22.6883C169.399 22.6883 166.673 19.9676 166.673 13.7155Z" fill="white"/>
<path d="M190.301 7.2548H184.976V3.72348H200V7.2548H194.675V22.3459H190.301V7.2548Z" fill="white"/>
<path d="M164.475 25.0831L161.112 21.8461C163.414 19.3339 164.633 16.0709 164.52 12.723C164.407 9.37519 162.971 6.19496 160.506 3.83148C158.04 1.468 154.73 0.0994579 151.252 0.00521102C147.774 -0.0890358 144.389 1.09811 141.79 3.32433C139.19 5.55056 137.57 8.64801 137.262 11.9844C136.954 15.3209 137.98 18.6447 140.131 21.2776C142.283 23.9104 145.396 25.6537 148.837 26.1516C152.278 26.6495 155.787 25.8645 158.647 23.9568L162.146 27.3223C162.454 27.6196 162.873 27.7867 163.309 27.787C163.746 27.7872 164.165 27.6206 164.473 27.3236C164.782 27.0267 164.956 26.6238 164.956 26.2036C164.956 25.7835 164.783 25.3804 164.475 25.0831ZM151.077 25.8322C148.623 25.8322 146.224 25.1316 144.183 23.8191C142.142 22.5066 140.552 20.641 139.613 18.4583C138.674 16.2757 138.428 13.8739 138.907 11.5568C139.385 9.23975 140.567 7.11136 142.303 5.44082C144.038 3.77029 146.249 2.63264 148.656 2.17175C151.063 1.71085 153.558 1.94739 155.825 2.85148C158.093 3.75557 160.031 5.28658 161.394 7.25092C162.758 9.21526 163.485 11.5247 163.485 13.8872C163.481 17.0536 162.171 20.0888 159.843 22.326C157.516 24.5633 154.361 25.8195 151.071 25.8188L151.077 25.8322Z" fill="white"/>
<path d="M148.634 4.37707L147.481 4.93887C147.523 4.86319 147.588 4.8016 147.667 4.7623L148.82 4.2005C148.741 4.2398 148.676 4.30138 148.634 4.37707Z" fill="#855D13"/>
<path d="M154.581 22.4287L153.425 22.9905C153.338 23.0278 153.242 23.0403 153.148 23.0266C153.054 23.0128 152.966 22.9734 152.894 22.9129L154.05 22.3511C154.122 22.4116 154.21 22.451 154.304 22.4648C154.398 22.4785 154.494 22.466 154.581 22.4287Z" fill="#855D13"/>
<path d="M143.473 13.6967L142.317 14.2612L147.47 4.93799L148.623 4.37619L143.473 13.6967Z" fill="#885F13"/>
<path d="M154.051 22.3511L152.894 22.9129L142.531 15.0664L143.687 14.5046L154.051 22.3511Z" fill="#845D13"/>
<path d="M143.465 14.213L142.309 14.7775C142.27 14.6967 142.249 14.6086 142.249 14.5194C142.249 14.4301 142.27 14.342 142.309 14.2612L143.462 13.6967C143.424 13.7777 143.404 13.8658 143.404 13.9549C143.404 14.044 143.424 14.132 143.462 14.213" fill="#855D13"/>
<path d="M143.687 14.5047L142.534 15.0665C142.434 14.9905 142.357 14.891 142.309 14.7776L143.465 14.2131C143.511 14.3275 143.588 14.4281 143.687 14.5047Z" fill="#855D13"/>
<path d="M143.465 14.2131C143.426 14.132 143.406 14.044 143.406 13.9549C143.406 13.8658 143.426 13.7778 143.465 13.6967L148.634 4.37618C148.668 4.31778 148.716 4.26772 148.774 4.22986C148.831 4.19199 148.897 4.16733 148.966 4.15777C149.035 4.14821 149.105 4.154 149.171 4.17471C149.238 4.19541 149.298 4.23048 149.348 4.2772L159.714 12.1237C159.813 12.1996 159.89 12.2992 159.937 12.4126C159.975 12.4936 159.995 12.5817 159.995 12.6708C159.995 12.7599 159.975 12.8479 159.937 12.9289L154.784 22.2495C154.75 22.3081 154.703 22.3584 154.645 22.3965C154.588 22.4347 154.522 22.4596 154.453 22.4694C154.384 22.4792 154.314 22.4737 154.247 22.4532C154.181 22.4327 154.12 22.3978 154.07 22.3512L143.687 14.5047C143.588 14.428 143.511 14.3274 143.465 14.2131Z" fill="#FCB124"/>
<path d="M151.116 14.1435C151.43 14.1435 151.686 13.8979 151.686 13.5951C151.686 13.2922 151.43 13.0466 151.116 13.0466C150.801 13.0466 150.546 13.2922 150.546 13.5951C150.546 13.8979 150.801 14.1435 151.116 14.1435Z" fill="#1C1C1B"/>
<path d="M151.691 28.7557C151.703 28.7954 151.728 28.8307 151.761 28.8573C151.784 28.8782 151.811 28.8944 151.841 28.905C151.871 28.9155 151.903 28.9202 151.935 28.9187C151.967 28.9172 151.998 28.9096 152.027 28.8963C152.056 28.883 152.081 28.8643 152.102 28.8413C153.464 27.3966 154.351 26.2169 154.982 25.021C155.753 23.6139 156.117 22.0328 156.035 20.4437C155.86 17.3029 154.12 14.5581 151.494 13.2633C151.465 13.2459 151.433 13.2345 151.399 13.2297C151.366 13.2249 151.332 13.2268 151.299 13.2355C151.266 13.2441 151.236 13.2592 151.209 13.2798C151.183 13.3004 151.161 13.326 151.146 13.3551C151.13 13.3842 151.121 13.416 151.119 13.4486C151.117 13.4812 151.122 13.5139 151.134 13.5445C151.146 13.5751 151.164 13.603 151.188 13.6265C151.212 13.6499 151.24 13.6684 151.271 13.6807C153.745 14.8952 155.382 17.4956 155.548 20.4678C155.732 23.7984 153.828 26.3105 151.741 28.5283C151.713 28.5589 151.694 28.5959 151.685 28.6357C151.677 28.6755 151.679 28.7168 151.691 28.7557Z" fill="white"/>
<path d="M150.991 28.4829C150.489 28.8064 150.03 29.1872 149.623 29.6172C149.382 29.8606 149.101 30.0666 148.867 30.3181C148.746 30.4406 148.652 30.5852 148.59 30.7434C148.484 31.0966 148.759 31.035 148.998 30.9307C148.879 30.9842 148.848 31.2651 148.929 31.3561C149.009 31.447 149.29 31.3935 149.409 31.5701C149.559 31.7895 149.509 32.1319 149.874 31.9473C150.571 31.5915 151.071 30.9361 151.51 30.3234C151.805 29.9114 152.583 29.0768 152.308 28.5283C152.258 28.4157 152.171 28.3218 152.061 28.2605C151.951 28.1993 151.823 28.174 151.697 28.1886C151.552 28.2097 151.413 28.2559 151.285 28.325C151.184 28.3726 151.086 28.4253 150.991 28.4829Z" fill="#F5B314"/>
<path d="M159.106 23.5794L160.638 22.1039L164.06 25.3973C164.263 25.593 164.377 25.8584 164.377 26.1351C164.377 26.4118 164.263 26.6772 164.06 26.8728C163.856 27.0685 163.581 27.1784 163.293 27.1784C163.006 27.1784 162.73 27.0685 162.527 26.8728L159.106 23.5794Z" fill="#F5B314"/>
</svg>
