<svg width="24" height="24" viewBox="0 0 24 24" fill="none" xmlns="http://www.w3.org/2000/svg">
<path d="M10.9209 18.8396C14.9857 18.8396 18.2809 15.5444 18.2809 11.4796C18.2809 7.41481 14.9857 4.11963 10.9209 4.11963C6.8561 4.11963 3.56091 7.41481 3.56091 11.4796C3.56091 15.5444 6.8561 18.8396 10.9209 18.8396Z" fill="#E5EFEF"/>
<path d="M4.04084 4.75954C3.42332 4.75954 2.92084 4.25706 2.92084 3.63953C2.92084 3.02201 3.42332 2.51953 4.04084 2.51953C4.65836 2.51953 5.16084 3.02201 5.16084 3.63953C5.16084 4.25706 4.65836 4.75954 4.04084 4.75954ZM4.04084 3.15953C3.77612 3.15953 3.56084 3.37481 3.56084 3.63953C3.56084 3.90425 3.77612 4.11954 4.04084 4.11954C4.30556 4.11954 4.52084 3.90425 4.52084 3.63953C4.52084 3.37481 4.30556 3.15953 4.04084 3.15953Z" fill="#4C241D"/>
<path d="M19.7208 10.2C19.1033 10.2 18.6008 9.69748 18.6008 9.07996C18.6008 8.46244 19.1033 7.95996 19.7208 7.95996C20.3383 7.95996 20.8408 8.46244 20.8408 9.07996C20.8408 9.69748 20.3383 10.2 19.7208 10.2ZM19.7208 8.59996C19.4561 8.59996 19.2408 8.81524 19.2408 9.07996C19.2408 9.34468 19.4561 9.55996 19.7208 9.55996C19.9855 9.55996 20.2008 9.34468 20.2008 9.07996C20.2008 8.81524 19.9855 8.59996 19.7208 8.59996Z" fill="#4C241D"/>
<path d="M21.0009 5.60159C21.201 5.60159 21.3632 5.43938 21.3632 5.23927C21.3632 5.03917 21.201 4.87695 21.0009 4.87695C20.8008 4.87695 20.6385 5.03917 20.6385 5.23927C20.6385 5.43938 20.8008 5.60159 21.0009 5.60159Z" fill="#4C241D"/>
<path d="M5.64088 6.88187C5.84099 6.88187 6.0032 6.71965 6.0032 6.51955C6.0032 6.31944 5.84099 6.15723 5.64088 6.15723C5.44078 6.15723 5.27856 6.31944 5.27856 6.51955C5.27856 6.71965 5.44078 6.88187 5.64088 6.88187Z" fill="#4C241D"/>
<path d="M12.252 3.48468C10.6692 3.41444 9.25172 4.13764 8.36364 5.29004C7.98556 5.7806 7.73796 6.35884 7.59092 6.96044C7.4974 7.3434 7.40076 7.81316 7.40076 8.11996V20.12H16.6808V8.243C16.6808 5.74108 14.7516 3.59556 12.252 3.48468Z" fill="#FFCE56"/>
<path d="M16.6807 20.4396H7.40075C7.22387 20.4396 7.08075 20.2965 7.08075 20.1196V8.11964C7.08075 7.8406 7.14795 7.42492 7.28011 6.88404C7.44915 6.19156 7.72851 5.58932 8.11011 5.09436C9.09667 3.81404 10.6539 3.09596 12.266 3.16468C14.9211 3.28252 17.0007 5.51308 17.0007 8.24284V20.1197C17.0007 20.2965 16.8576 20.4396 16.6807 20.4396ZM7.72075 19.7996H16.3607V8.24276C16.3607 5.8562 14.5498 3.90652 12.2379 3.80404C10.8223 3.74308 9.47635 4.36996 8.61699 5.485C8.29011 5.90908 8.04979 6.43092 7.90195 7.03596C7.78507 7.51348 7.72067 7.89812 7.72067 8.11972V19.7996H7.72075Z" fill="#4C241D"/>
<path d="M17.6409 21.3997H6.12091V18.7675C6.12091 17.5819 6.80363 16.5075 7.86299 16.026L11.8809 14.1997L15.8988 16.026C16.9582 16.5075 17.6409 17.5819 17.6409 18.7675V21.3997Z" fill="white"/>
<path d="M17.6409 21.7197H6.1209C5.94402 21.7197 5.8009 21.5766 5.8009 21.3997V18.7676C5.8009 17.4582 6.55842 16.2675 7.73058 15.7347L11.7484 13.9085C11.8328 13.8703 11.9291 13.8703 12.0134 13.9085L16.0312 15.7347C17.2034 16.2675 17.9609 17.4582 17.9609 18.7676V21.3997C17.9609 21.5766 17.8178 21.7197 17.6409 21.7197ZM6.4409 21.0797H17.3209V18.7676C17.3209 17.7085 16.7106 16.7466 15.7662 16.3172L11.8809 14.5513L7.99562 16.3172C7.05122 16.7466 6.4409 17.7085 6.4409 18.7676V21.0797Z" fill="#4C241D"/>
<path d="M9.64083 15.2183L8.04083 15.9455V21.4001H15.7208V15.9455L14.1208 15.2183V19.1601H9.64083V15.2183Z" fill="#9DC1E4"/>
<path d="M15.7208 21.7195H8.04082C7.86394 21.7195 7.72083 21.5764 7.72083 21.3995V15.9448C7.72083 15.8192 7.79427 15.7054 7.90834 15.6535L9.50834 14.9263C9.6077 14.8813 9.72274 14.89 9.81394 14.9484C9.90554 15.0075 9.96082 15.1088 9.96082 15.2175V18.8393H13.8008V15.2175C13.8008 15.1088 13.8561 15.0075 13.9477 14.9484C14.0393 14.8897 14.1542 14.8809 14.2533 14.9263L15.8533 15.6535C15.9674 15.7053 16.0408 15.8191 16.0408 15.9448V21.3995C16.0408 21.5764 15.8977 21.7195 15.7208 21.7195ZM8.36082 21.0795H15.4008V16.1508L14.4408 15.7145V19.1595C14.4408 19.3364 14.2977 19.4795 14.1208 19.4795H9.64082C9.46394 19.4795 9.32082 19.3364 9.32082 19.1595V15.7145L8.36082 16.1508V21.0795Z" fill="#4C241D"/>
<path d="M11.8809 15.9604C11.174 15.9604 10.601 15.3873 10.601 14.6804V13.4004H13.1609V14.6804C13.1609 15.3873 12.5879 15.9604 11.8809 15.9604Z" fill="#E7D1C4"/>
<path d="M11.881 16.2801C10.9988 16.2801 10.2809 15.5622 10.2809 14.6801V13.4001C10.2809 13.2232 10.4241 13.0801 10.6009 13.0801H13.161C13.3378 13.0801 13.481 13.2232 13.481 13.4001V14.6801C13.481 15.5622 12.7632 16.2801 11.881 16.2801ZM10.9209 13.7201V14.6801C10.9209 15.2094 11.3516 15.6401 11.881 15.6401C12.4103 15.6401 12.841 15.2094 12.841 14.6801V13.7201H10.9209Z" fill="#4C241D"/>
<path d="M16.3707 9.1514C14.4408 10.2001 9.65833 8.17636 9.48313 6.58252L9.45249 6.58516C9.56489 8.92676 7.72081 9.14692 7.72081 9.14692C7.43001 9.27404 7.22921 9.56884 7.24137 9.90932C7.25049 10.1652 7.40785 10.3965 7.62009 10.5397C7.87745 10.7134 8.09849 10.7011 8.29457 10.6351C8.61209 12.1838 9.73633 13.4789 11.2887 13.9786C11.7338 14.1219 12.2152 14.1082 12.66 13.964L12.802 13.918C14.3295 13.423 15.4439 12.1549 15.7759 10.6317C15.9712 10.7006 16.1936 10.7126 16.4456 10.5557C16.6495 10.4287 16.8052 10.2202 16.8345 9.98172C16.8797 9.61508 16.6764 9.28996 16.3707 9.1514Z" fill="#E7D1C4"/>
<path d="M11.9412 14.3993C11.6853 14.3993 11.433 14.3602 11.1909 14.2824C9.65494 13.788 8.47614 12.5455 8.05302 10.9996C7.83742 10.9996 7.63894 10.9378 7.44118 10.8043C7.12806 10.5927 6.93366 10.2625 6.92182 9.91993C6.90526 9.45745 7.16838 9.03833 7.59278 8.85305C7.6215 8.84057 7.65182 8.83209 7.6831 8.82833C7.74438 8.82017 9.22902 8.60113 9.13278 6.59961C9.12462 6.42745 9.25438 6.27929 9.42654 6.26521C9.5915 6.25145 9.78214 6.37457 9.80126 6.54681C9.85286 7.01713 10.5185 7.64025 11.5381 8.17337C13.0106 8.94273 15.15 9.44897 16.2178 8.86929C16.3057 8.82177 16.4109 8.81745 16.5028 8.85897C16.9515 9.06273 17.2125 9.52897 17.1521 10.0199C17.1128 10.3399 16.9118 10.6412 16.6149 10.8265C16.4215 10.9471 16.2256 11.0074 16.0128 10.9986C15.5775 12.5134 14.4087 13.7327 12.9009 14.2214L12.7593 14.2677C12.4881 14.3555 12.2128 14.3993 11.9412 14.3993ZM8.29462 10.3143C8.3499 10.3143 8.40526 10.3287 8.4543 10.3568C8.53366 10.4027 8.58958 10.4802 8.60806 10.5699C8.9071 12.0286 9.97182 13.2178 11.3871 13.673C11.7574 13.7924 12.1637 13.7878 12.5618 13.659L12.7031 13.6127C14.0941 13.1621 15.1515 11.9934 15.4631 10.5627C15.4828 10.473 15.54 10.3958 15.6203 10.3511C15.7003 10.3067 15.7962 10.2977 15.8825 10.3293C16.0272 10.3806 16.1415 10.3674 16.2765 10.2834C16.4109 10.1993 16.5009 10.0718 16.5172 9.94177C16.5375 9.77681 16.4737 9.61801 16.3531 9.51489C14.9975 10.108 12.7837 9.54673 11.2415 8.74049C10.5725 8.39081 10.044 8.00489 9.68678 7.61361C9.34086 9.07145 8.10806 9.39673 7.81926 9.45361C7.65486 9.53889 7.55454 9.70953 7.5611 9.89705C7.56606 10.0336 7.65734 10.178 7.79926 10.2736C7.95486 10.3792 8.0655 10.3742 8.1927 10.3308C8.2259 10.3199 8.26022 10.3143 8.29462 10.3143Z" fill="#4C241D"/>
<path d="M13.4916 10.869C13.6731 10.869 13.8202 10.7219 13.8202 10.5405C13.8202 10.359 13.6731 10.2119 13.4916 10.2119C13.3101 10.2119 13.163 10.359 13.163 10.5405C13.163 10.7219 13.3101 10.869 13.4916 10.869Z" fill="#4C241D"/>
<path d="M10.2062 10.869C10.3877 10.869 10.5348 10.7219 10.5348 10.5405C10.5348 10.359 10.3877 10.2119 10.2062 10.2119C10.0248 10.2119 9.87769 10.359 9.87769 10.5405C9.87769 10.7219 10.0248 10.869 10.2062 10.869Z" fill="#4C241D"/>
<path d="M11.881 12.4396C11.6473 12.4396 11.4223 12.3546 11.247 12.2002C11.1145 12.0836 11.1017 11.8815 11.2186 11.7486C11.3358 11.6158 11.5376 11.6033 11.6702 11.7202C11.7114 11.7564 11.7814 11.7995 11.8811 11.7995C11.9727 11.7995 12.0571 11.762 12.1187 11.6943C12.2371 11.5627 12.4396 11.5533 12.5705 11.6718C12.7018 11.7905 12.7118 11.9928 12.593 12.1236C12.4111 12.3246 12.1517 12.4396 11.881 12.4396Z" fill="#4C241D"/>
<path d="M17.6931 4.22718C17.6112 4.22718 17.5293 4.1959 17.4668 4.13342C17.3419 4.00846 17.3419 3.8059 17.4668 3.68094L18.6424 2.50534C18.7674 2.38038 18.97 2.38038 19.0949 2.50534C19.2199 2.6303 19.2199 2.83286 19.0949 2.95782L17.9193 4.13342C17.8568 4.1959 17.7749 4.22718 17.6931 4.22718Z" fill="#4C241D"/>
<path d="M18.8687 4.22718C18.7868 4.22718 18.7049 4.1959 18.6424 4.13342L17.4668 2.95782C17.3419 2.83286 17.3419 2.6303 17.4668 2.50534C17.5918 2.38038 17.7944 2.38038 17.9193 2.50534L19.0949 3.68094C19.2199 3.8059 19.2199 4.00846 19.0949 4.13342C19.0324 4.1959 18.9505 4.22718 18.8687 4.22718Z" fill="#4C241D"/>
<path d="M2.97316 10.9474C2.89132 10.9474 2.8094 10.9161 2.74692 10.8536C2.62196 10.7287 2.62196 10.5261 2.74692 10.4012L3.92252 9.22556C4.04748 9.1006 4.25004 9.1006 4.375 9.22556C4.49996 9.35052 4.49996 9.55308 4.375 9.67804L3.1994 10.8536C3.13684 10.9161 3.055 10.9474 2.97316 10.9474Z" fill="#4C241D"/>
<path d="M4.14876 10.9474C4.06692 10.9474 3.985 10.9161 3.92252 10.8536L2.74692 9.67804C2.62196 9.55308 2.62196 9.35052 2.74692 9.22556C2.87188 9.1006 3.07444 9.1006 3.1994 9.22556L4.375 10.4012C4.49996 10.5261 4.49996 10.7287 4.375 10.8536C4.31252 10.9161 4.2306 10.9474 4.14876 10.9474Z" fill="#4C241D"/>
<path d="M14.341 4.20108C14.7828 4.20108 15.141 3.84291 15.141 3.40108C15.141 2.95925 14.7828 2.60107 14.341 2.60107C13.8991 2.60107 13.541 2.95925 13.541 3.40108C13.541 3.84291 13.8991 4.20108 14.341 4.20108Z" fill="#F53E28"/>
<path d="M14.3403 4.52138C14.175 4.52138 14.0106 4.4845 13.8568 4.41074C13.5875 4.28202 13.384 4.05546 13.2843 3.77322C13.185 3.49106 13.2015 3.18698 13.3309 2.91698C13.4599 2.6473 13.6865 2.44418 13.9687 2.3445C14.2515 2.24514 14.5553 2.26138 14.825 2.39106C15.0947 2.5201 15.2978 2.74666 15.3975 3.0289C15.4968 3.31074 15.4803 3.61482 15.3509 3.88482C15.2219 4.1545 14.9953 4.35794 14.7131 4.4573C14.5912 4.5001 14.4656 4.52138 14.3403 4.52138ZM14.3412 2.92074C14.2875 2.92074 14.2337 2.92978 14.1815 2.94826C14.0606 2.99074 13.9634 3.07794 13.9078 3.19386C13.8525 3.30914 13.8456 3.43946 13.8881 3.56042C13.9306 3.68138 14.0178 3.77826 14.1334 3.83354C14.2493 3.88882 14.3803 3.8957 14.5003 3.85354C14.6212 3.81106 14.7184 3.72386 14.7737 3.60826C14.7737 3.60826 14.774 3.60826 14.774 3.60794C14.8293 3.49266 14.8362 3.36234 14.7937 3.24138C14.7512 3.12074 14.664 3.02354 14.5481 2.96794C14.4825 2.93666 14.4122 2.92074 14.3412 2.92074Z" fill="#4C241D"/>
<path d="M16.8305 6.72183C16.4107 7.59848 15.1433 6.80079 13.3103 5.92279C11.4773 5.04479 9.7727 4.41919 10.1926 3.54254C10.6125 2.6659 12.4389 2.66694 14.2718 3.54486C16.1048 4.42279 17.2504 5.84519 16.8305 6.72183Z" fill="#F53E28"/>
<path d="M16.2156 7.42195C15.6306 7.42195 14.8721 7.04754 13.8896 6.56226C13.6615 6.44978 13.4221 6.33162 13.1721 6.21194C12.9265 6.0941 12.6831 5.98098 12.4468 5.8713C11.1375 5.26258 10.1031 4.78162 9.86124 4.10786C9.77876 3.87818 9.7934 3.63506 9.90372 3.40474C10.4078 2.35289 12.3872 2.28785 14.41 3.25634C16.4328 4.22538 17.6228 5.8085 17.1193 6.86042C17.1193 6.86042 17.1193 6.86042 17.119 6.86042C16.9984 7.11258 16.8152 7.28259 16.5752 7.36539C16.4633 7.40419 16.3436 7.42195 16.2156 7.42195ZM11.7052 3.20602C11.0746 3.20602 10.6249 3.38074 10.4808 3.68106C10.4436 3.7589 10.4387 3.82202 10.4636 3.8917C10.6152 4.31386 11.6833 4.81074 12.7168 5.29106C12.9549 5.4017 13.2005 5.51578 13.4484 5.6345C13.7008 5.75546 13.9424 5.87482 14.1728 5.98858C15.1103 6.45106 15.9937 6.88826 16.3662 6.76074C16.4172 6.7429 16.4831 6.70698 16.5418 6.58418C16.8359 5.96978 15.9193 4.68914 14.1336 3.83354C13.2212 3.39666 12.3643 3.20602 11.7052 3.20602ZM16.8305 6.72226H16.8336H16.8305Z" fill="#4C241D"/>
<path d="M3.88087 21.3995C3.47879 21.3995 3.15879 21.0094 3.17975 20.5446L3.38615 15.9595H4.37567L4.58207 20.5446C4.60295 21.0094 4.28303 21.3995 3.88087 21.3995Z" fill="#BF7E68"/>
<path d="M3.88088 21.7197C3.6184 21.7197 3.36904 21.6103 3.17904 21.4112C2.9612 21.1837 2.84496 20.8625 2.86 20.5303L3.06656 15.9452C3.0744 15.7743 3.21496 15.6396 3.38624 15.6396H4.37561C4.54689 15.6396 4.68745 15.7744 4.69529 15.9452L4.90185 20.5303C4.91689 20.8624 4.80057 21.1837 4.58281 21.4112C4.39281 21.6103 4.14337 21.7197 3.88088 21.7197ZM3.69216 16.2796L3.49936 20.559C3.49216 20.7174 3.54408 20.8672 3.64152 20.969C3.68968 21.0197 3.77056 21.0796 3.88088 21.0796C3.9912 21.0796 4.07216 21.0197 4.12024 20.969C4.21776 20.8672 4.26961 20.7174 4.26241 20.559L4.0696 16.2796H3.69216Z" fill="#4C241D"/>
<path d="M20.6808 16.1192C19.4008 15.1592 21.0008 12.9192 18.4408 12.5992C16.5118 12.3581 14.9208 14.1751 14.9208 16.1192C14.9208 18.0633 16.4968 19.6392 18.4408 19.6392C20.3849 19.6392 22.7448 17.6672 20.6808 16.1192ZM19.7208 18.0259C19.3747 18.0259 19.0941 17.7454 19.0941 17.3992C19.0941 17.0531 19.3747 16.7725 19.7208 16.7725C20.067 16.7725 20.3476 17.0531 20.3476 17.3992C20.3476 17.7453 20.067 18.0259 19.7208 18.0259Z" fill="white"/>
<path d="M18.4408 19.9599C16.3233 19.9599 14.6008 18.2375 14.6008 16.1199C14.6008 14.9771 15.1071 13.8481 15.9546 13.0996C16.6796 12.4599 17.5762 12.1703 18.4805 12.2824C20.2552 12.5043 20.3318 13.6093 20.3933 14.4975C20.4327 15.0671 20.4668 15.5593 20.8727 15.864C21.9452 16.6684 21.8602 17.524 21.714 17.9627C21.3531 19.0453 19.8543 19.9599 18.4408 19.9599ZM18.1005 12.8987C17.4843 12.8987 16.8821 13.135 16.3783 13.5797C15.6662 14.2081 15.2408 15.1579 15.2408 16.12C15.2408 17.8844 16.6764 19.32 18.4408 19.32C19.564 19.32 20.8346 18.5766 21.1068 17.7603C21.2696 17.2716 21.0618 16.8056 20.4889 16.3759C19.8483 15.8956 19.7986 15.1763 19.7548 14.5415C19.6958 13.6897 19.6532 13.074 18.4011 12.9175C18.3008 12.905 18.2005 12.8987 18.1005 12.8987ZM19.7208 18.3465C19.1987 18.3465 18.774 17.9218 18.774 17.3999C18.774 16.8778 19.1987 16.4531 19.7208 16.4531C20.243 16.4531 20.6677 16.8778 20.6677 17.3999C20.6677 17.9219 20.2431 18.3465 19.7208 18.3465ZM19.7208 17.0931C19.5518 17.0931 19.414 17.2309 19.414 17.3999C19.414 17.569 19.5518 17.7065 19.7208 17.7065C19.8899 17.7065 20.0277 17.569 20.0277 17.3999C20.0277 17.2309 19.8899 17.0931 19.7208 17.0931Z" fill="#4C241D"/>
<path d="M17.8009 14.7176C18.0867 14.7176 18.3184 14.4859 18.3184 14.2001C18.3184 13.9143 18.0867 13.6826 17.8009 13.6826C17.5151 13.6826 17.2834 13.9143 17.2834 14.2001C17.2834 14.4859 17.5151 14.7176 17.8009 14.7176Z" fill="#A9BA5A"/>
<path d="M17.8009 15.0373C17.3391 15.0373 16.9634 14.6617 16.9634 14.1998C16.9634 13.7379 17.339 13.3623 17.8009 13.3623C18.2628 13.3623 18.6384 13.7379 18.6384 14.1998C18.6384 14.6617 18.2628 15.0373 17.8009 15.0373ZM17.8009 14.0023C17.6922 14.0023 17.6034 14.091 17.6034 14.1998C17.6034 14.3086 17.6921 14.3973 17.8009 14.3973C17.9097 14.3973 17.9984 14.3086 17.9984 14.1998C17.9984 14.091 17.9097 14.0023 17.8009 14.0023Z" fill="#4C241D"/>
<path d="M16.3609 16.4774C16.6467 16.4774 16.8784 16.2457 16.8784 15.9599C16.8784 15.6741 16.6467 15.4424 16.3609 15.4424C16.0751 15.4424 15.8434 15.6741 15.8434 15.9599C15.8434 16.2457 16.0751 16.4774 16.3609 16.4774Z" fill="#FFCE56"/>
<path d="M16.3608 16.7971C15.899 16.7971 15.5233 16.4215 15.5233 15.9596C15.5233 15.4977 15.8989 15.1221 16.3608 15.1221C16.8228 15.1221 17.1984 15.4977 17.1984 15.9596C17.1984 16.4215 16.8228 16.7971 16.3608 16.7971ZM16.3608 15.7621C16.2521 15.7621 16.1633 15.8508 16.1633 15.9596C16.1633 16.0684 16.252 16.1571 16.3608 16.1571C16.4696 16.1571 16.5584 16.0684 16.5584 15.9596C16.5584 15.8508 16.4696 15.7621 16.3608 15.7621Z" fill="#4C241D"/>
<path d="M17.4809 18.5575C17.7667 18.5575 17.9984 18.3258 17.9984 18.04C17.9984 17.7542 17.7667 17.5225 17.4809 17.5225C17.1951 17.5225 16.9634 17.7542 16.9634 18.04C16.9634 18.3258 17.1951 18.5575 17.4809 18.5575Z" fill="#F53E28"/>
<path d="M17.4808 18.8777C17.019 18.8777 16.6433 18.5021 16.6433 18.0402C16.6433 17.5782 17.0189 17.2026 17.4808 17.2026C17.9428 17.2026 18.3184 17.5782 18.3184 18.0402C18.3184 18.5021 17.9428 18.8777 17.4808 18.8777ZM17.4808 17.8426C17.3721 17.8426 17.2833 17.9314 17.2833 18.0402C17.2833 18.149 17.372 18.2377 17.4808 18.2377C17.5896 18.2377 17.6784 18.149 17.6784 18.0402C17.6784 17.9314 17.5896 17.8426 17.4808 17.8426Z" fill="#4C241D"/>
<path d="M4.50218 13.8851C4.23818 13.6087 4.00466 13.2974 4.00466 12.8675C4.00466 12.1977 3.32482 13.0539 2.88538 13.9102C3.3017 14.3174 3.8885 14.5849 4.50218 13.8851Z" fill="#F53E28"/>
<path d="M3.70652 14.6374C3.35124 14.6374 2.99996 14.4696 2.66156 14.1387C2.56124 14.0406 2.5366 13.8887 2.6006 13.764C2.90436 13.1719 3.48876 12.1924 3.9878 12.3187C4.11372 12.3491 4.32468 12.4606 4.32468 12.8671C4.32468 13.1731 4.48811 13.4068 4.73339 13.6634C4.84811 13.7834 4.85211 13.9709 4.74275 14.0955C4.43996 14.4408 4.10588 14.6227 3.74996 14.6365C3.73532 14.6371 3.72092 14.6374 3.70652 14.6374ZM3.28908 13.8346C3.41908 13.9287 3.57844 13.9965 3.72532 13.9971C3.83436 13.9927 3.94596 13.9484 4.05908 13.8643C3.90812 13.6725 3.7778 13.4496 3.71844 13.1819C3.59628 13.3371 3.44404 13.5593 3.28908 13.8346Z" fill="#4C241D"/>
<path d="M4.50211 13.8853C3.88843 14.5851 3.30163 14.3176 2.8853 13.9104C2.67554 14.319 2.52026 14.7277 2.52026 14.9705C2.52026 15.722 3.12947 16.3312 3.88091 16.3312C4.63235 16.3312 5.24155 15.722 5.24155 14.9705C5.24147 14.5455 4.84587 14.245 4.50211 13.8853Z" fill="#EDEBDC"/>
<path d="M3.88084 16.651C2.95428 16.651 2.2002 15.8969 2.2002 14.9704C2.2002 14.6182 2.41804 14.12 2.60052 13.7641C2.64676 13.6735 2.73364 13.6104 2.83396 13.5941C2.93212 13.5776 3.03612 13.61 3.109 13.6813C3.26116 13.8304 3.50428 13.9964 3.72524 13.9972C3.89868 13.9904 4.07932 13.8816 4.26148 13.6738C4.32052 13.6063 4.40556 13.5666 4.49524 13.5648C4.59212 13.5607 4.67148 13.5988 4.73364 13.6638C4.79236 13.7254 4.85268 13.7851 4.91204 13.8438C5.21644 14.1451 5.5614 14.4869 5.5614 14.9704C5.56148 15.8969 4.8074 16.651 3.88084 16.651ZM3.0018 14.4141C2.88524 14.6907 2.8402 14.88 2.8402 14.9704C2.8402 15.5441 3.30708 16.011 3.88084 16.011C4.4546 16.011 4.92148 15.5441 4.92148 14.9704C4.92148 14.7644 4.72868 14.5635 4.49772 14.3341C4.26268 14.5251 4.01244 14.6266 3.74988 14.6366C3.49396 14.6494 3.2474 14.5716 3.0018 14.4141Z" fill="#4C241D"/>
</svg>
