<svg width="24" height="24" viewBox="0 0 24 24" fill="none" xmlns="http://www.w3.org/2000/svg">
<path d="M19.875 6.375V15.375H1.125V6.375C1.125 5.97718 1.28304 5.59564 1.56434 5.31434C1.84564 5.03304 2.22718 4.875 2.625 4.875H18.375C18.7728 4.875 19.1544 5.03304 19.4357 5.31434C19.717 5.59564 19.875 5.97718 19.875 6.375Z" fill="#5AAAE7"/>
<path d="M19.875 15.375V16.875C19.875 17.2728 19.717 17.6544 19.4357 17.9357C19.1544 18.217 18.7728 18.375 18.375 18.375H2.625C2.22718 18.375 1.84564 18.217 1.56434 17.9357C1.28304 17.6544 1.125 17.2728 1.125 16.875V15.375H19.875Z" fill="#C6C5CA"/>
<path d="M19.875 6.375V11.0738C19.8113 11.0925 19.7438 11.1112 19.6763 11.13L19.5 12.375H18L17.8237 11.13C17.4782 11.0421 17.1472 10.9044 16.8412 10.7213L15.8325 11.4788L14.7712 10.4175L15.5287 9.40875C15.3456 9.10282 15.2079 8.77185 15.12 8.42625L13.875 8.25V6.75L15.12 6.57375C15.2032 6.24022 15.3346 5.92061 15.51 5.625C15.5148 5.613 15.5211 5.60166 15.5287 5.59125L14.9925 4.875H18.375C18.7728 4.875 19.1544 5.03304 19.4357 5.31434C19.717 5.59564 19.875 5.97718 19.875 6.375Z" fill="#3D9AE2"/>
<path d="M21.63 7.67625C21.5421 8.02185 21.4044 8.35282 21.2213 8.65875L21.9788 9.6675L20.9175 10.7288L19.9088 9.97125C19.8983 9.97891 19.887 9.98521 19.875 9.99C19.5794 10.1654 19.2598 10.2968 18.9263 10.38L18.75 11.625H17.25L17.0737 10.38C16.7282 10.2921 16.3972 10.1544 16.0912 9.97125L15.0825 10.7288L14.0212 9.6675L14.7787 8.65875C14.5956 8.35282 14.4579 8.02185 14.37 7.67625L13.125 7.5V6L14.37 5.82375C14.4532 5.49022 14.5846 5.17061 14.76 4.875C14.7648 4.863 14.7711 4.85166 14.7787 4.84125L14.0212 3.8325L15.0825 2.77125L16.0912 3.52875C16.3972 3.34555 16.7282 3.20786 17.0737 3.12L17.25 1.875H18.75L18.9263 3.12C19.2718 3.20786 19.6028 3.34555 19.9088 3.52875L20.9175 2.77125L21.9788 3.8325L21.2213 4.84125C21.4044 5.14718 21.5421 5.47815 21.63 5.82375L22.875 6V7.5L21.63 7.67625Z" fill="#FF9811"/>
<path d="M18 8.625C19.0355 8.625 19.875 7.78553 19.875 6.75C19.875 5.71447 19.0355 4.875 18 4.875C16.9645 4.875 16.125 5.71447 16.125 6.75C16.125 7.78553 16.9645 8.625 18 8.625Z" fill="#FFD422"/>
<path d="M14.7787 21.5963C14.8492 21.665 14.9052 21.7473 14.9432 21.8381C14.9812 21.929 15.0005 22.0265 15 22.125C14.9994 22.3237 14.9202 22.5142 14.7797 22.6547C14.6391 22.7952 14.4487 22.8744 14.25 22.875H6.75C6.55154 22.8735 6.36163 22.7941 6.2213 22.6537C6.08096 22.5134 6.00147 22.3235 6 22.125C6.00059 21.9263 6.0798 21.7359 6.22032 21.5953C6.36085 21.4548 6.55127 21.3756 6.75 21.375H14.25C14.3485 21.3745 14.446 21.3938 14.5369 21.4318C14.6277 21.4698 14.71 21.5258 14.7787 21.5963Z" fill="#898890"/>
<path d="M13.5 21.375H7.5L7.875 18.375H13.125L13.5 21.375Z" fill="#ACABB1"/>
<path d="M12.375 14.5875V15.375H3.375V14.5875C3.37511 14.1526 3.50126 13.727 3.73819 13.3623C3.97512 12.9976 4.31267 12.7094 4.71 12.5325L5.7375 12.075L6.75 11.625V10.62C6.35857 10.4357 6.0192 10.1568 5.76256 9.80851C5.50591 9.46021 5.34007 9.05346 5.28 8.625H4.875C4.67609 8.625 4.48532 8.54598 4.34467 8.40533C4.20402 8.26468 4.125 8.07391 4.125 7.875C4.125 7.67609 4.20402 7.48532 4.34467 7.34467C4.48532 7.20402 4.67609 7.125 4.875 7.125H5.25V6.375C5.05154 6.37353 4.86163 6.29404 4.7213 6.1537C4.58096 6.01337 4.50147 5.82346 4.5 5.625C4.50059 5.42627 4.5798 5.23585 4.72033 5.09533C4.86085 4.9548 5.05127 4.87559 5.25 4.875H10.5C10.6985 4.87647 10.8884 4.95596 11.0287 5.0963C11.169 5.23663 11.2485 5.42654 11.25 5.625C11.2494 5.82373 11.1702 6.01415 11.0297 6.15467C10.8892 6.2952 10.6987 6.37441 10.5 6.375V7.125H10.875C11.0739 7.125 11.2647 7.20402 11.4053 7.34467C11.546 7.48532 11.625 7.67609 11.625 7.875C11.625 8.07391 11.546 8.26468 11.4053 8.40533C11.2647 8.54598 11.0739 8.625 10.875 8.625H10.47C10.4097 9.05339 10.2438 9.46005 9.9872 9.80833C9.73057 10.1566 9.39131 10.4355 9 10.62V11.625L10.0125 12.075L11.04 12.5325C11.4373 12.7094 11.7749 12.9976 12.0118 13.3623C12.2487 13.727 12.3749 14.1526 12.375 14.5875Z" fill="#3D9AE2"/>
<path d="M11.6251 13.8372V15.3747H8.25007L7.56757 12.3072L7.87507 11.9997L9.00007 12.3747L9.26257 11.3247L10.2901 11.7822C10.6874 11.9591 11.0249 12.2473 11.2619 12.612C11.4988 12.9767 11.625 13.4023 11.6251 13.8372Z" fill="#1E81CE"/>
<path d="M10.2787 4.34626C10.3493 4.41502 10.4052 4.49727 10.4432 4.58812C10.4812 4.67896 10.5005 4.77653 10.5 4.87501C10.4994 5.07374 10.4202 5.26416 10.2797 5.40468C10.1392 5.54521 9.94873 5.62442 9.75 5.62501H4.5C4.30154 5.62354 4.11163 5.54405 3.9713 5.40371C3.83096 5.26338 3.75147 5.07347 3.75 4.87501C3.75059 4.67628 3.8298 4.48586 3.97033 4.34534C4.11085 4.20481 4.30127 4.1256 4.5 4.12501H9.75C9.84848 4.12449 9.94605 4.14381 10.0369 4.18182C10.1277 4.21983 10.21 4.27576 10.2787 4.34626Z" fill="#F7910C"/>
<path d="M9.75001 4.12494H7.875V1.90869C8.33527 1.98601 8.75999 2.20492 9.09001 2.53494C9.42003 2.86496 9.63894 3.28967 9.71626 3.74994C9.73898 3.87364 9.75028 3.99917 9.75001 4.12494Z" fill="#FF9811"/>
<path d="M9.2625 11.325L9 12.375L7.875 12L7.5 11.25L8.25 10.875L9.2625 11.325Z" fill="#1A6FB0"/>
<path d="M7.5675 12.3076L8.25 15.3751H6L6.6825 12.3076L7.125 12.7501L7.5675 12.3076Z" fill="#ED1C24"/>
<path d="M7.875 1.90875V4.125H6.375V1.5C6.375 1.40054 6.41451 1.30516 6.48483 1.23483C6.55516 1.16451 6.65054 1.125 6.75 1.125H7.5C7.59946 1.125 7.69484 1.16451 7.76517 1.23483C7.83549 1.30516 7.875 1.40054 7.875 1.5V1.90875Z" fill="#FFA733"/>
<path d="M7.5 11.25L7.875 12L7.5675 12.3075L7.125 12.75L6.6825 12.3075L6.375 12L6.75 11.25H7.5Z" fill="#ED1C24"/>
<path d="M6.74997 11.25L6.37497 12L5.24997 12.375L4.98747 11.325L5.99997 10.875L6.74997 11.25Z" fill="#1A6FB0"/>
<path d="M6.6825 12.3072L6 15.3747H2.625V13.8372C2.62511 13.4023 2.75126 12.9767 2.98819 12.612C3.22512 12.2473 3.56267 11.9591 3.96 11.7822L4.9875 11.3247L5.25 12.3747L6.375 11.9997L6.6825 12.3072Z" fill="#1E81CE"/>
<path d="M6.37503 1.90869V4.12494H4.50002C4.49975 3.99917 4.51105 3.87364 4.53377 3.74994C4.61151 3.28985 4.83055 2.86537 5.1605 2.53542C5.49045 2.20547 5.91493 1.98643 6.37503 1.90869Z" fill="#FF9811"/>
<path d="M8.25 9.75V10.875L7.5 11.25H6.75L6 10.875V9.75H8.25Z" fill="#FFC477"/>
<path d="M4.875 6.375V7.875H4.125C3.92609 7.875 3.73532 7.79598 3.59467 7.65533C3.45402 7.51468 3.375 7.32391 3.375 7.125C3.375 6.92609 3.45402 6.73532 3.59467 6.59467C3.73532 6.45402 3.92609 6.375 4.125 6.375H4.875Z" fill="#FFB655"/>
<path d="M10.875 7.125C10.8744 7.32373 10.7952 7.51415 10.6547 7.65467C10.5142 7.7952 10.3237 7.87441 10.125 7.875H9.375V6.375H10.125C10.3237 6.37559 10.5142 6.4548 10.6547 6.59533C10.7952 6.73585 10.8744 6.92627 10.875 7.125Z" fill="#FFB655"/>
<path d="M8.25 9.75V10.62C7.89872 10.7879 7.51433 10.875 7.125 10.875C6.73567 10.875 6.35128 10.7879 6 10.62V9.75H8.25Z" fill="#FFB655"/>
<path d="M9.75006 6.375V7.5C9.75156 7.62566 9.74152 7.75119 9.72006 7.875C9.6598 8.3034 9.49388 8.71006 9.23726 9.05834C8.98063 9.40661 8.64137 9.68555 8.25006 9.87001C7.87913 10.047 7.47174 10.1343 7.06085 10.1246C6.64996 10.115 6.24711 10.0087 5.8849 9.81446C5.52269 9.62021 5.2113 9.34342 4.97593 9.00648C4.74056 8.66955 4.58781 8.28193 4.53005 7.875C4.5086 7.75119 4.49856 7.62566 4.50005 7.5V5.625H9.75006V6.375Z" fill="#FFC477"/>
<path d="M4.5 5.625H9.75V6.375H4.5V5.625Z" fill="#FFB655"/>
<path d="M13.2188 19.125H7.78125L7.875 18.375H13.125L13.2188 19.125Z" fill="#898890"/>
<path d="M11.625 4.5H13.5V5.25H11.625V4.5Z" fill="black"/>
<path d="M19.5 11.25V15H12V13.8375C11.9997 13.3305 11.8526 12.8343 11.5765 12.4091C11.3003 11.9838 10.9069 11.6477 10.4438 11.4412L8.625 10.6313V10.095C8.96866 9.89486 9.26944 9.62887 9.51011 9.31226C9.75078 8.99566 9.9266 8.63468 10.0275 8.25H10.125C10.4234 8.25 10.7095 8.13147 10.9205 7.9205C11.1315 7.70952 11.25 7.42337 11.25 7.125C11.25 6.82663 11.1315 6.54048 10.9205 6.3295C10.7095 6.11853 10.4234 6 10.125 6V5.9325C10.3458 5.85548 10.5368 5.71123 10.6714 5.52C10.8059 5.32878 10.8772 5.10021 10.8751 4.8664C10.873 4.6326 10.7978 4.40532 10.6599 4.21651C10.5219 4.0277 10.3283 3.88685 10.1063 3.81375C10.0376 3.23 9.77326 2.68672 9.35625 2.2725C9.05009 1.96223 8.66906 1.73619 8.25 1.61625V1.5C8.24941 1.30127 8.1702 1.11085 8.02967 0.970326C7.88915 0.829802 7.69873 0.750594 7.5 0.75H6.75C6.55127 0.750594 6.36085 0.829802 6.22033 0.970326C6.0798 1.11085 6.00059 1.30127 6 1.5V1.6125C5.5088 1.7569 5.07091 2.04258 4.74086 2.43399C4.4108 2.82539 4.20315 3.30522 4.14375 3.81375C3.92166 3.88685 3.72805 4.0277 3.59014 4.21651C3.45224 4.40532 3.37696 4.6326 3.37489 4.8664C3.37282 5.10021 3.44406 5.32878 3.57861 5.52C3.71315 5.71123 3.90424 5.85548 4.125 5.9325V6C3.82663 6 3.54048 6.11853 3.3295 6.3295C3.11853 6.54048 3 6.82663 3 7.125C3 7.42337 3.11853 7.70952 3.3295 7.9205C3.54048 8.13147 3.82663 8.25 4.125 8.25H4.2225C4.3234 8.63468 4.49922 8.99566 4.73989 9.31226C4.98056 9.62887 5.28134 9.89486 5.625 10.095V10.6313L3.80625 11.4412C3.34313 11.6477 2.94971 11.9838 2.67353 12.4091C2.39736 12.8343 2.25026 13.3305 2.25 13.8375V15H1.5V6.375C1.50089 6.07691 1.6197 5.79127 1.83049 5.58049C2.04127 5.3697 2.32691 5.25089 2.625 5.25V4.5C2.12772 4.5 1.65081 4.69754 1.29917 5.04917C0.947544 5.40081 0.75 5.87772 0.75 6.375V16.875C0.75 17.3723 0.947544 17.8492 1.29917 18.2008C1.65081 18.5525 2.12772 18.75 2.625 18.75H7.45125L7.17 21H6.75C6.45163 21 6.16548 21.1185 5.9545 21.3295C5.74353 21.5405 5.625 21.8266 5.625 22.125C5.625 22.4234 5.74353 22.7095 5.9545 22.9205C6.16548 23.1315 6.45163 23.25 6.75 23.25H14.25C14.5484 23.25 14.8345 23.1315 15.0455 22.9205C15.2565 22.7095 15.375 22.4234 15.375 22.125C15.375 21.8266 15.2565 21.5405 15.0455 21.3295C14.8345 21.1185 14.5484 21 14.25 21H13.83L13.5487 18.75H18.375C18.8723 18.75 19.3492 18.5525 19.7008 18.2008C20.0525 17.8492 20.25 17.3723 20.25 16.875V11.25H19.5ZM4.125 7.5C4.02554 7.5 3.93016 7.46049 3.85984 7.39017C3.78951 7.31984 3.75 7.22446 3.75 7.125C3.75 7.02554 3.78951 6.93016 3.85984 6.85983C3.93016 6.78951 4.02554 6.75 4.125 6.75V7.5ZM9 12.75C9.06282 12.7503 9.12472 12.7348 9.18 12.705C9.22537 12.6796 9.26507 12.6453 9.29667 12.604C9.32827 12.5627 9.35109 12.5154 9.36375 12.465L9.5175 11.85L10.1363 12.1238C10.4678 12.271 10.7495 12.5113 10.9472 12.8155C11.1448 13.1197 11.25 13.4747 11.25 13.8375V15H8.55L7.98 12.4313L8.88 12.7313C8.91895 12.743 8.95933 12.7493 9 12.75ZM8.82375 11.5387L8.73375 11.8912L8.14125 11.6925L8.0025 11.4188L8.26125 11.2913L8.82375 11.5387ZM10.5 7.125C10.5 7.22446 10.4605 7.31984 10.3902 7.39017C10.3198 7.46049 10.2245 7.5 10.125 7.5V6.75C10.2245 6.75 10.3198 6.78951 10.3902 6.85983C10.4605 6.93016 10.5 7.02554 10.5 7.125ZM8.25 2.41125C8.46473 2.50483 8.66048 2.63702 8.8275 2.80125C9.08822 3.05963 9.26581 3.39001 9.3375 3.75H8.25V2.41125ZM6.75 1.5H7.5V3.75H6.75V1.5ZM6 2.41125V3.75H4.9125C4.97223 3.45564 5.10235 3.18012 5.29173 2.94698C5.48111 2.71385 5.72412 2.53003 6 2.41125ZM4.125 4.875C4.125 4.77554 4.16451 4.68016 4.23484 4.60984C4.30516 4.53951 4.40054 4.5 4.5 4.5H9.75C9.84946 4.5 9.94484 4.53951 10.0152 4.60984C10.0855 4.68016 10.125 4.77554 10.125 4.875C10.125 4.97446 10.0855 5.06984 10.0152 5.14016C9.94484 5.21049 9.84946 5.25 9.75 5.25H4.5C4.40054 5.25 4.30516 5.21049 4.23484 5.14016C4.16451 5.06984 4.125 4.97446 4.125 4.875ZM4.875 7.5V6H9.375V7.5C9.375 8.09674 9.13795 8.66903 8.71599 9.09099C8.29403 9.51295 7.72174 9.75 7.125 9.75C6.52826 9.75 5.95597 9.51295 5.53401 9.09099C5.11205 8.66903 4.875 8.09674 4.875 7.5ZM6.90375 13.0425C6.96514 13.0958 7.0437 13.1251 7.125 13.1251C7.2063 13.1251 7.28486 13.0958 7.34625 13.0425L7.78125 15H6.46875L6.90375 13.0425ZM6.8325 11.925L6.9825 11.625H7.2675L7.4175 11.925L7.125 12.2213L6.8325 11.925ZM7.41 10.875H6.84L6.375 10.6425V10.4025C6.86655 10.5325 7.38345 10.5325 7.875 10.4025V10.6425L7.41 10.875ZM5.98875 11.2913L6.2475 11.4188L6.10875 11.6925L5.51625 11.8912L5.42625 11.5387L5.98875 11.2913ZM3 13.8375C2.99995 13.4747 3.10515 13.1197 3.30284 12.8155C3.50053 12.5113 3.78221 12.271 4.11375 12.1238L4.7325 11.85L4.88625 12.465C4.89891 12.5154 4.92173 12.5627 4.95333 12.604C4.98493 12.6453 5.02463 12.6796 5.07 12.705C5.12528 12.7348 5.18718 12.7503 5.25 12.75C5.29067 12.7493 5.33105 12.743 5.37 12.7313L6.27 12.4313L5.7 15H3V13.8375ZM14.25 21.75C14.3495 21.75 14.4448 21.7895 14.5152 21.8598C14.5855 21.9302 14.625 22.0255 14.625 22.125C14.625 22.2245 14.5855 22.3198 14.5152 22.3902C14.4448 22.4605 14.3495 22.5 14.25 22.5H6.75C6.65054 22.5 6.55516 22.4605 6.48483 22.3902C6.41451 22.3198 6.375 22.2245 6.375 22.125C6.375 22.0255 6.41451 21.9302 6.48483 21.8598C6.55516 21.7895 6.65054 21.75 6.75 21.75H14.25ZM7.92375 21L8.205 18.75H12.795L13.0763 21H7.92375ZM19.5 16.875C19.4991 17.1731 19.3803 17.4587 19.1695 17.6695C18.9587 17.8803 18.6731 17.9991 18.375 18H2.625C2.32691 17.9991 2.04127 17.8803 1.83049 17.6695C1.6197 17.4587 1.50089 17.1731 1.5 16.875V15.75H19.5V16.875Z" fill="black"/>
<path d="M17.25 16.5H18V17.25H17.25V16.5Z" fill="black"/>
<path d="M5.625 6.75H6.375V7.5H5.625V6.75Z" fill="black"/>
<path d="M7.875 6.75H8.625V7.5H7.875V6.75Z" fill="black"/>
<path d="M22.9282 5.62875L21.9225 5.48513C21.8545 5.27365 21.7694 5.06809 21.6679 4.8705L22.2772 4.05825C22.3314 3.98603 22.3577 3.89671 22.3513 3.80668C22.3449 3.71665 22.3062 3.63195 22.2424 3.56813L21.1819 2.50762C21.1181 2.4439 21.0334 2.4053 20.9435 2.39889C20.8536 2.39249 20.7643 2.41871 20.6921 2.47275L19.8795 3.08175C19.6819 2.98044 19.4763 2.89541 19.2649 2.8275L19.1213 1.82175C19.1084 1.73243 19.0638 1.65072 18.9956 1.59162C18.9275 1.53252 18.8402 1.49999 18.75 1.5H17.25C17.1598 1.49999 17.0725 1.53252 17.0044 1.59162C16.9362 1.65072 16.8916 1.73243 16.8787 1.82175L16.7351 2.8275C16.5237 2.89534 16.3181 2.98038 16.1205 3.08175L15.3079 2.47275C15.2357 2.41871 15.1464 2.39249 15.0565 2.39889C14.9666 2.4053 14.8819 2.4439 14.8181 2.50762L13.7576 3.56813C13.6938 3.63195 13.6551 3.71665 13.6487 3.80668C13.6423 3.89671 13.6686 3.98603 13.7228 4.05825L14.3321 4.8705C14.2306 5.06809 14.1455 5.27365 14.0775 5.48513L13.0718 5.62875C12.9824 5.64156 12.9007 5.68616 12.8416 5.75435C12.7825 5.82254 12.75 5.90976 12.75 6V7.5C12.75 7.59024 12.7825 7.67746 12.8416 7.74565C12.9007 7.81384 12.9824 7.85844 13.0718 7.87125L14.0775 8.01487C14.1455 8.22635 14.2306 8.43191 14.3321 8.6295L13.7228 9.44175C13.6686 9.51397 13.6423 9.60329 13.6487 9.69332C13.6551 9.78335 13.6938 9.86805 13.7576 9.93188L14.8181 10.9924C14.8819 11.0561 14.9666 11.0947 15.0565 11.1011C15.1464 11.1075 15.2357 11.0813 15.3079 11.0273L16.1205 10.4183C16.3181 10.5196 16.5237 10.6047 16.7351 10.6725L16.8787 11.6783C16.8916 11.7676 16.9362 11.8493 17.0044 11.9084C17.0725 11.9675 17.1598 12 17.25 12H18.75C18.8402 12 18.9275 11.9675 18.9956 11.9084C19.0638 11.8493 19.1084 11.7676 19.1213 11.6783L19.2649 10.6725C19.4763 10.6046 19.6819 10.5196 19.8795 10.4183L20.6921 11.0273C20.7643 11.0813 20.8536 11.1075 20.9435 11.1011C21.0334 11.0947 21.1181 11.0561 21.1819 10.9924L22.2424 9.93188C22.3062 9.86805 22.3449 9.78335 22.3513 9.69332C22.3577 9.60329 22.3314 9.51397 22.2772 9.44175L21.6679 8.6295C21.7694 8.43191 21.8545 8.22635 21.9225 8.01487L22.9282 7.87125C23.0176 7.85844 23.0993 7.81384 23.1584 7.74565C23.2175 7.67746 23.25 7.59024 23.25 7.5V6C23.25 5.90976 23.2175 5.82254 23.1584 5.75435C23.0993 5.68616 23.0176 5.64156 22.9282 5.62875ZM22.5 7.17487L21.5764 7.30688C21.503 7.31739 21.4343 7.34944 21.3791 7.39897C21.3239 7.44849 21.2846 7.51328 21.2662 7.58512C21.1871 7.89578 21.0637 8.19345 20.8999 8.469C20.862 8.5329 20.8439 8.60661 20.848 8.68079C20.8521 8.75496 20.8781 8.82626 20.9227 8.88562L21.4823 9.63188L20.8822 10.2319L20.1356 9.67237C20.0763 9.62786 20.005 9.60196 19.9309 9.59796C19.8568 9.59395 19.7832 9.61202 19.7194 9.64987C19.444 9.81371 19.1465 9.93687 18.8359 10.0155C18.7638 10.0338 18.6989 10.0731 18.6492 10.1283C18.5995 10.1836 18.5674 10.2524 18.5569 10.326L18.4249 11.25H17.5751L17.4435 10.3264C17.433 10.2528 17.4009 10.184 17.3512 10.1287C17.3015 10.0734 17.2365 10.0342 17.1645 10.0159C16.8539 9.93724 16.5563 9.81409 16.281 9.65025C16.2172 9.6124 16.1436 9.59433 16.0695 9.59833C15.9954 9.60234 15.9241 9.62824 15.8647 9.67275L15.1181 10.2323L14.5181 9.63225L15.0776 8.886C15.1223 8.82663 15.1483 8.75534 15.1524 8.68116C15.1564 8.60699 15.1384 8.53328 15.1005 8.46937C14.9367 8.19382 14.8133 7.89615 14.7341 7.5855C14.7157 7.51365 14.6765 7.44887 14.6213 7.39934C14.5661 7.34981 14.4974 7.31777 14.424 7.30725L13.5 7.17487V6.32513L14.4236 6.19312C14.497 6.18261 14.5657 6.15056 14.6209 6.10103C14.6761 6.05151 14.7154 5.98672 14.7338 5.91488C14.8129 5.60422 14.9363 5.30655 15.1001 5.031C15.138 4.9671 15.1561 4.89339 15.152 4.81921C15.1479 4.74504 15.1219 4.67374 15.0773 4.61438L14.5178 3.86812L15.1177 3.26813L15.8644 3.82762C15.9237 3.87214 15.995 3.89804 16.0691 3.90204C16.1432 3.90605 16.2168 3.88798 16.2806 3.85013C16.556 3.68628 16.8535 3.56313 17.1641 3.4845C17.2362 3.46622 17.3011 3.42694 17.3508 3.37166C17.4005 3.31638 17.4326 3.24758 17.4431 3.174L17.5751 2.25H18.4249L18.5565 3.17363C18.567 3.2472 18.5991 3.316 18.6488 3.37128C18.6985 3.42657 18.7635 3.46584 18.8355 3.48413C19.1461 3.56276 19.4437 3.68591 19.719 3.84975C19.7828 3.8876 19.8564 3.90567 19.9305 3.90167C20.0046 3.89766 20.0759 3.87176 20.1353 3.82725L20.8819 3.26775L21.4819 3.86775L20.9224 4.614C20.8777 4.67337 20.8517 4.74466 20.8476 4.81884C20.8436 4.89301 20.8616 4.96672 20.8995 5.03062C21.0633 5.30618 21.1867 5.60385 21.2659 5.9145C21.2843 5.98635 21.3235 6.05113 21.3787 6.10066C21.4339 6.15019 21.5026 6.18223 21.576 6.19275L22.5 6.32513V7.17487Z" fill="black"/>
<path d="M18 4.5C17.555 4.5 17.1199 4.63196 16.7499 4.87919C16.3799 5.12643 16.0915 5.47783 15.9212 5.88896C15.7509 6.30009 15.7064 6.75249 15.7932 7.18895C15.88 7.62541 16.0943 8.02632 16.409 8.34098C16.7236 8.65565 17.1246 8.86994 17.561 8.95676C17.9975 9.04358 18.4499 8.99902 18.861 8.82872C19.2721 8.65843 19.6235 8.37004 19.8708 8.00003C20.118 7.63002 20.25 7.195 20.25 6.75C20.2494 6.15344 20.0121 5.58149 19.5903 5.15967C19.1685 4.73784 18.5965 4.5006 18 4.5ZM18 8.24999C17.7033 8.24999 17.4133 8.16202 17.1666 7.9972C16.9199 7.83238 16.7277 7.59811 16.6141 7.32402C16.5006 7.04993 16.4709 6.74833 16.5288 6.45736C16.5867 6.16639 16.7295 5.89912 16.9393 5.68934C17.1491 5.47956 17.4164 5.3367 17.7073 5.27882C17.9983 5.22094 18.2999 5.25065 18.574 5.36418C18.8481 5.47771 19.0823 5.66997 19.2472 5.91664C19.412 6.16332 19.5 6.45333 19.5 6.75C19.5 7.14782 19.3419 7.52935 19.0606 7.81065C18.7793 8.09196 18.3978 8.24999 18 8.24999Z" fill="black"/>
<path d="M13.5 12H16.5V12.75H13.5V12Z" fill="black"/>
<path d="M13.5 13.5H16.5V14.25H13.5V13.5Z" fill="black"/>
</svg>
