<svg width="24" height="24" viewBox="0 0 24 24" fill="none" xmlns="http://www.w3.org/2000/svg">
<path d="M5.09169 7.09006C4.36766 6.3492 3.18013 6.33561 2.43927 7.05964C2.09202 7.39901 1.8899 7.85984 1.87546 8.34518C1.1579 8.75918 0.911804 9.67648 1.3258 10.394C1.7398 11.1116 2.6571 11.3577 3.37466 10.9437C3.64752 10.7863 3.86385 10.5469 3.99309 10.2597C4.29463 10.2202 4.58202 10.108 4.8306 9.93284C5.59232 10.2585 6.47385 9.90504 6.79954 9.14332C7.12523 8.3816 6.77174 7.50007 6.01002 7.17439C5.72038 7.05054 5.39905 7.02106 5.09169 7.09006Z" fill="#02A437"/>
<path d="M4.43187 10.5223C4.27733 10.5223 4.13858 10.4276 4.08242 10.2836L3.40077 8.53681C3.32548 8.34388 3.42087 8.12642 3.61381 8.05114C3.80675 7.97586 4.0242 8.07125 4.09948 8.26419L4.78128 10.0109C4.85661 10.2038 4.76131 10.4213 4.56837 10.4966C4.52492 10.5136 4.47866 10.5223 4.43202 10.5223H4.43187Z" fill="#027E2A"/>
<path d="M5.1308 10.25C5.11932 10.25 5.10774 10.2494 5.09607 10.2484C4.88982 10.2295 4.73799 10.0469 4.75697 9.84064V9.8406C4.81543 9.2181 5.07291 8.63099 5.49127 8.16637C5.6289 8.01159 5.8659 7.99766 6.02068 8.13529C6.17546 8.27291 6.18938 8.50991 6.05176 8.66469C6.0504 8.66624 6.04899 8.66779 6.04759 8.66933C5.73779 9.01344 5.54715 9.44821 5.50383 9.90917C5.48616 10.1021 5.32449 10.2498 5.1308 10.25Z" fill="#027E2A"/>
<path d="M3.73297 10.7953C3.64006 10.7954 3.55044 10.7609 3.48158 10.6985C3.13752 10.3887 2.70275 10.198 2.24178 10.1548C2.03553 10.1358 1.8837 9.95324 1.90264 9.74699C1.92158 9.54074 2.10416 9.38891 2.31041 9.40785C2.93277 9.46635 3.51978 9.72374 3.98441 10.142C4.13816 10.2807 4.1503 10.5178 4.01155 10.6716C3.94039 10.7504 3.83919 10.7954 3.73297 10.7953Z" fill="#027E2A"/>
<path d="M8.82843 17.2879L6.0337 18.3787L3.34012 12.9792C2.83364 11.9637 3.24623 10.7299 4.26178 10.2234C4.31728 10.1957 4.37405 10.1706 4.4318 10.148C5.48892 9.73543 6.68034 10.258 7.09293 11.3151C7.11553 11.373 7.13545 11.4318 7.1527 11.4915L8.82843 17.2879Z" fill="#FD9226"/>
<path d="M12.75 1.125H14.25V11.625H12.75V1.125Z" fill="#026A23"/>
<path d="M13.4583 8.71594C13.4227 8.49047 13.3633 8.26936 13.2811 8.05641L11.625 3.75L10.5 4.125L12.1064 8.30156C12.284 8.76333 12.3751 9.25383 12.375 9.74859V11.0794L13.4583 8.71594Z" fill="#027226"/>
<path d="M15.1082 15.2695C15.4884 15.7765 15.4884 16.4735 15.1082 16.9805L15.1031 16.9875C14.8021 17.3888 14.3297 17.625 13.8281 17.625H13.1718C12.6702 17.625 12.1978 17.3888 11.8968 16.9875L11.8917 16.9805C11.5115 16.4735 11.5115 15.7765 11.8917 15.2695L12.375 14.625V11.0794L13.4582 8.71594L13.5 8.625L15.375 3.75L16.5 4.125L14.8935 8.30156C14.7159 8.76333 14.6249 9.25383 14.625 9.74859V14.625L15.1082 15.2695Z" fill="#027E2A"/>
<path d="M15.1082 16.9804L15.1031 16.9874C14.9454 17.1979 14.738 17.3659 14.4993 17.4763L12.2573 17.3362C12.1193 17.2399 11.9977 17.1222 11.8968 16.9874L11.8917 16.9804C11.5115 16.4735 11.5115 15.7764 11.8917 15.2695L11.9249 15.2249L12.3749 14.9999L14.6249 9.74854V14.6249L15.1082 15.2695C15.4884 15.7764 15.4884 16.4735 15.1082 16.9804Z" fill="#027E2A"/>
<path d="M3.77574 13.9995C3.56864 13.9997 3.4005 13.8321 3.40027 13.6249C3.40008 13.4701 3.49505 13.3311 3.63933 13.2749L4.33801 13.0023C4.53094 12.927 4.7484 13.0224 4.82373 13.2153C4.89905 13.4083 4.80366 13.6257 4.61068 13.701L3.91224 13.9737C3.86874 13.9907 3.82243 13.9995 3.77574 13.9995Z" fill="#E78244"/>
<path d="M5.87176 13.181C5.66467 13.1813 5.49657 13.0135 5.49634 12.8064C5.49615 12.6517 5.59107 12.5127 5.73531 12.4566L6.43402 12.184C6.62696 12.1087 6.84441 12.2041 6.91969 12.397C6.99497 12.5899 6.89958 12.8074 6.70665 12.8827L6.00821 13.1553C5.96471 13.1723 5.91845 13.181 5.87176 13.181Z" fill="#E78244"/>
<path d="M4.37863 15.3621C4.17153 15.3623 4.00339 15.1947 4.00316 14.9875C4.00297 14.8327 4.09794 14.6937 4.24222 14.6376L5.23269 14.2626C5.42562 14.1873 5.64312 14.2827 5.7184 14.4756C5.79369 14.6686 5.6983 14.886 5.50536 14.9613L4.51485 15.3363C4.47144 15.3533 4.42522 15.362 4.37863 15.3621Z" fill="#E78244"/>
<path d="M6.7665 14.4422C6.55941 14.4424 6.39136 14.2747 6.39113 14.0676C6.39099 13.9129 6.48591 13.7739 6.6301 13.7178L6.97946 13.5814C7.17239 13.5061 7.38984 13.6015 7.46513 13.7945C7.54041 13.9874 7.44502 14.2049 7.25203 14.2802L6.90267 14.4165C6.85932 14.4335 6.8131 14.4422 6.7665 14.4422Z" fill="#E78244"/>
<path d="M8.85938 9.375H9.74939C10.3531 9.375 10.9051 9.7162 11.175 10.2563L11.4844 10.875H10.5944C9.9907 10.875 9.43884 10.5339 9.16889 9.99398L8.85938 9.375Z" fill="#02A437"/>
<path d="M10.6702 13.0313C10.4631 13.0313 10.2952 12.8634 10.2952 12.6563C10.2981 11.3884 11.1925 10.2973 12.4353 10.0459L12.4718 10.0386C12.6749 9.998 12.8724 10.1297 12.913 10.3328C12.9536 10.5359 12.8219 10.7335 12.6188 10.7741L12.5823 10.7813C11.6896 10.9619 11.0472 11.7456 11.0452 12.6563C11.0452 12.8634 10.8773 13.0313 10.6702 13.0313Z" fill="#8F6934"/>
<path d="M15.1082 16.9804L15.1031 16.9874C14.9454 17.1979 14.738 17.3659 14.4993 17.4763L12.2573 17.3362C12.1193 17.2399 11.9977 17.1222 11.8968 16.9874L11.8917 16.9804C11.5115 16.4735 11.5115 15.7764 11.8917 15.2695L11.9249 15.2249L12.3749 14.9999L14.6249 9.74854V14.6249L15.1082 15.2695C15.4884 15.7764 15.4884 16.4735 15.1082 16.9804Z" fill="#CBCBCB"/>
<path d="M9.3276 11.9062C9.69791 11.9062 10.0437 12.0913 10.2491 12.3994C10.4042 12.6321 10.7185 12.6949 10.9512 12.5398C11.0068 12.5027 11.0545 12.455 11.0915 12.3994C11.297 12.0913 11.6428 11.9062 12.013 11.9062C12.3494 11.9062 12.6676 12.0592 12.8778 12.3219L12.9659 12.432C13.6125 13.2402 13.6781 14.3687 13.1295 15.2465L12.3978 16.4173C12.2563 16.6437 12.0081 16.7812 11.7411 16.7812C11.5357 16.7812 11.3387 16.6996 11.1935 16.5544C10.9046 16.2655 10.4361 16.2655 10.1472 16.5544C10.0019 16.6996 9.80497 16.7812 9.59956 16.7812C9.33256 16.7812 9.08436 16.6437 8.94285 16.4173L8.21113 15.2465C7.66255 14.3687 7.72813 13.2402 8.37477 12.432L8.4628 12.3219C8.67299 12.0592 8.99117 11.9062 9.3276 11.9062Z" fill="#E82F3E"/>
<path d="M9.59065 15C9.49118 15.0002 9.39575 14.9606 9.32548 14.8902C8.98686 14.5523 8.9029 14.0355 9.11722 13.6078L9.25508 13.3322C9.34915 13.1477 9.575 13.0744 9.7595 13.1684C9.94198 13.2615 10.016 13.4837 9.92586 13.6676L9.78804 13.9433C9.71843 14.0822 9.74567 14.25 9.85564 14.3597C10.0022 14.5061 10.0023 14.7435 9.85592 14.8901C9.78561 14.9605 9.69017 15 9.59065 15Z" fill="#FF6268"/>
<path d="M1.125 18.375H22.875V20.625H1.125V18.375Z" fill="#EA9D2D"/>
<path d="M3.375 19.875H2.625C2.41791 19.875 2.25 19.7071 2.25 19.5C2.25 19.2929 2.41791 19.125 2.625 19.125H3.375C3.58209 19.125 3.75 19.2929 3.75 19.5C3.75 19.7071 3.58209 19.875 3.375 19.875Z" fill="#C38325"/>
<path d="M21.375 19.875H20.625C20.4179 19.875 20.25 19.7071 20.25 19.5C20.25 19.2929 20.4179 19.125 20.625 19.125H21.375C21.5821 19.125 21.75 19.2929 21.75 19.5C21.75 19.7071 21.5821 19.875 21.375 19.875Z" fill="#C38325"/>
<path d="M1.125 20.625H22.875V22.875H1.125V20.625Z" fill="#FBB540"/>
<path d="M3.375 22.125H2.625C2.41791 22.125 2.25 21.9571 2.25 21.75C2.25 21.5429 2.41791 21.375 2.625 21.375H3.375C3.58209 21.375 3.75 21.5429 3.75 21.75C3.75 21.9571 3.58209 22.125 3.375 22.125Z" fill="#C38325"/>
<path d="M12.375 19.875H11.625C11.4179 19.875 11.25 19.7071 11.25 19.5C11.25 19.2929 11.4179 19.125 11.625 19.125H12.375C12.5821 19.125 12.75 19.2929 12.75 19.5C12.75 19.7071 12.5821 19.875 12.375 19.875Z" fill="#C38325"/>
<path d="M12.375 22.125H11.625C11.4179 22.125 11.25 21.9571 11.25 21.75C11.25 21.5429 11.4179 21.375 11.625 21.375H12.375C12.5821 21.375 12.75 21.5429 12.75 21.75C12.75 21.9571 12.5821 22.125 12.375 22.125Z" fill="#C38325"/>
<path d="M21.375 22.125H20.625C20.4179 22.125 20.25 21.9571 20.25 21.75C20.25 21.5429 20.4179 21.375 20.625 21.375H21.375C21.5821 21.375 21.75 21.5429 21.75 21.75C21.75 21.9571 21.5821 22.125 21.375 22.125Z" fill="#C38325"/>
<path d="M16.5 13.875L16.8295 14.2045C17.3388 14.7138 17.625 15.4047 17.625 16.125H18.75V15.75C18.75 15.0297 18.4638 14.3388 17.9545 13.8295L17.625 13.5L16.5 13.875Z" fill="#027E2A"/>
<path d="M21 13.875L20.6705 14.2045C20.1612 14.7138 19.875 15.4047 19.875 16.125H18.75V15.75C18.75 15.0297 19.0362 14.3388 19.5455 13.8295L19.875 13.5L21 13.875Z" fill="#027E2A"/>
<path d="M22.875 10.9687C22.8754 10.5509 22.6895 10.1546 22.3681 9.88771C22.5478 9.1325 22.0813 8.37454 21.3261 8.19477C21.2498 8.17658 21.172 8.16486 21.0938 8.15966C20.3194 6.8136 18.6004 6.35015 17.2544 7.12452C16.824 7.37211 16.4668 7.72925 16.2192 8.15966C15.4446 8.21099 14.8583 8.8805 14.9096 9.65511C14.9148 9.73349 14.9265 9.8113 14.9447 9.88771C14.3507 10.3814 14.2665 11.2619 14.7559 11.8594C14.2644 12.7708 14.6048 13.9081 15.5162 14.3997C16.1701 14.7523 16.9704 14.6856 17.557 14.2297C17.956 14.1776 18.3347 14.0231 18.6563 13.7812C18.9778 14.0231 19.3565 14.1776 19.7555 14.2298C20.5731 14.8654 21.751 14.7179 22.3866 13.9003C22.8427 13.3138 22.9093 12.5133 22.5566 11.8594C22.7628 11.6084 22.8754 11.2936 22.875 10.9687Z" fill="#02A437"/>
<path d="M19.7173 9.37498C19.5583 9.37498 19.4166 9.27476 19.3637 9.12485C19.2253 8.73415 18.7965 8.52959 18.4058 8.66792C18.1924 8.74348 18.0245 8.91138 17.9489 9.12485C17.8799 9.32013 17.6656 9.42246 17.4703 9.35346C17.2751 9.28446 17.1727 9.0702 17.2417 8.87492C17.5181 8.0937 18.3755 7.68443 19.1568 7.96085C19.5838 8.11193 19.9198 8.44788 20.0708 8.87492C20.1399 9.07015 20.0376 9.28446 19.8424 9.35351C19.8022 9.36771 19.7599 9.37498 19.7173 9.37498Z" fill="#027E2A"/>
<path d="M16.7812 12C16.1599 12 15.6562 11.4963 15.6562 10.875C15.6562 10.2537 16.1599 9.75 16.7812 9.75C16.9883 9.75 17.1562 9.91791 17.1562 10.125C17.1562 10.3321 16.9883 10.5 16.7812 10.5C16.5742 10.5 16.4062 10.6679 16.4062 10.875C16.4062 11.0821 16.5742 11.25 16.7812 11.25C16.9883 11.25 17.1562 11.4179 17.1562 11.625C17.1562 11.8321 16.9883 12 16.7812 12Z" fill="#027E2A"/>
<path d="M1.125 16.125H22.875V18.375H1.125V16.125Z" fill="#FBB540"/>
<path d="M3.375 17.625H2.625C2.41791 17.625 2.25 17.4571 2.25 17.25C2.25 17.0429 2.41791 16.875 2.625 16.875H3.375C3.58209 16.875 3.75 17.0429 3.75 17.25C3.75 17.4571 3.58209 17.625 3.375 17.625Z" fill="#C38325"/>
<path d="M21.375 17.625H20.625C20.4179 17.625 20.25 17.4571 20.25 17.25C20.25 17.0429 20.4179 16.875 20.625 16.875H21.375C21.5821 16.875 21.75 17.0429 21.75 17.25C21.75 17.4571 21.5821 17.625 21.375 17.625Z" fill="#C38325"/>
<path d="M12.375 17.625H11.625C11.4179 17.625 11.25 17.4571 11.25 17.25C11.25 17.0429 11.4179 16.875 11.625 16.875H12.375C12.5821 16.875 12.75 17.0429 12.75 17.25C12.75 17.4571 12.5821 17.625 12.375 17.625Z" fill="#C38325"/>
<path d="M2.625 19.875H3.375C3.58209 19.875 3.75 19.7071 3.75 19.5C3.75 19.2929 3.58209 19.125 3.375 19.125H2.625C2.41791 19.125 2.25 19.2929 2.25 19.5C2.25 19.7071 2.41791 19.875 2.625 19.875Z" fill="black"/>
<path d="M20.625 19.875H21.375C21.5821 19.875 21.75 19.7071 21.75 19.5C21.75 19.2929 21.5821 19.125 21.375 19.125H20.625C20.4179 19.125 20.25 19.2929 20.25 19.5C20.25 19.7071 20.4179 19.875 20.625 19.875Z" fill="black"/>
<path d="M2.625 22.125H3.375C3.58209 22.125 3.75 21.9571 3.75 21.75C3.75 21.5429 3.58209 21.375 3.375 21.375H2.625C2.41791 21.375 2.25 21.5429 2.25 21.75C2.25 21.9571 2.41791 22.125 2.625 22.125Z" fill="black"/>
<path d="M11.625 19.875H12.375C12.5821 19.875 12.75 19.7071 12.75 19.5C12.75 19.2929 12.5821 19.125 12.375 19.125H11.625C11.4179 19.125 11.25 19.2929 11.25 19.5C11.25 19.7071 11.4179 19.875 11.625 19.875Z" fill="black"/>
<path d="M11.625 22.125H12.375C12.5821 22.125 12.75 21.9571 12.75 21.75C12.75 21.5429 12.5821 21.375 12.375 21.375H11.625C11.4179 21.375 11.25 21.5429 11.25 21.75C11.25 21.9571 11.4179 22.125 11.625 22.125Z" fill="black"/>
<path d="M20.625 22.125H21.375C21.5821 22.125 21.75 21.9571 21.75 21.75C21.75 21.5429 21.5821 21.375 21.375 21.375H20.625C20.4179 21.375 20.25 21.5429 20.25 21.75C20.25 21.9571 20.4179 22.125 20.625 22.125Z" fill="black"/>
<path d="M6.91981 12.397C6.84453 12.2041 6.62712 12.1087 6.43414 12.184L5.73542 12.4566C5.54249 12.5319 5.4471 12.7494 5.52238 12.9423C5.59766 13.1352 5.81516 13.2306 6.00809 13.1554L6.70676 12.8827C6.8997 12.8074 6.99509 12.59 6.91981 12.397Z" fill="black"/>
<path d="M22.7709 9.75338C22.8715 8.82478 22.2373 7.97634 21.3181 7.81003C20.3509 6.33989 18.3751 5.93222 16.905 6.89944C16.5426 7.13784 16.2328 7.44769 15.9944 7.81003C15.7835 7.84828 15.5813 7.92464 15.3978 8.03536L16.85 4.25962C16.9244 4.06631 16.828 3.84933 16.6347 3.77498C16.6294 3.77292 16.624 3.771 16.6186 3.76922L15.4936 3.39422C15.3033 3.3307 15.0968 3.42816 15.0248 3.61538L14.625 4.65534V1.125C14.625 0.917906 14.4571 0.75 14.25 0.75H12.75C12.5429 0.75 12.375 0.917906 12.375 1.125V4.65553L11.975 3.61542C11.9031 3.4282 11.6965 3.3307 11.5063 3.39422L10.3813 3.76922C10.1848 3.8347 10.0786 4.04705 10.1441 4.24355C10.1459 4.24894 10.1478 4.25433 10.1498 4.25962L11.7563 8.43619C11.9177 8.85492 12.0004 9.29991 12 9.74869V10.1724C11.8752 10.2203 11.7541 10.2774 11.6379 10.3435L11.5103 10.0884C11.1788 9.41958 10.4959 8.99747 9.74939 9H8.85938C8.65228 9 8.48438 9.16791 8.48438 9.375C8.48438 9.43322 8.49792 9.49064 8.52398 9.54272L8.83336 10.1615C9.16486 10.8304 9.84783 11.2525 10.5944 11.25H10.6956C10.5563 11.4744 10.4514 11.7184 10.3842 11.9738C9.80986 11.3903 8.87119 11.3828 8.28764 11.9572C8.24587 11.9983 8.20655 12.0418 8.16994 12.0876L8.08191 12.1977C7.99509 12.3064 7.91648 12.4213 7.84673 12.5416L7.51289 11.3868C7.35506 10.8437 7.01311 10.3725 6.54577 10.054C7.21875 9.54848 7.47267 8.65664 7.16681 7.87247C6.85467 7.08445 6.05559 6.60108 5.21273 6.69047C4.26778 5.88281 2.847 5.99414 2.03934 6.93914C1.75073 7.27678 1.56853 7.69228 1.51561 8.13328C0.835219 8.63864 0.574781 9.53541 0.878719 10.3266C1.18266 11.1124 1.97503 11.5976 2.81316 11.511C2.68523 12.0618 2.75292 12.6399 3.00469 13.1462L4.30345 15.75H1.125C0.917906 15.75 0.75 15.9179 0.75 16.125V22.875C0.75 23.0821 0.917906 23.25 1.125 23.25H22.875C23.0821 23.25 23.25 23.0821 23.25 22.875V16.125C23.25 15.9179 23.0821 15.75 22.875 15.75H20.5266C20.5692 15.4858 20.6571 15.2309 20.7863 14.9965C20.826 14.9986 20.866 15 20.9061 15C22.149 14.9997 23.1564 13.9918 23.1561 12.7489C23.156 12.4568 23.0991 12.1675 22.9885 11.8972C23.4057 11.2148 23.3166 10.338 22.7708 9.75338H22.7709ZM18.6857 15.1229C18.6311 14.8581 18.5417 14.6017 18.4198 14.3603C18.5005 14.3218 18.5796 14.2795 18.6562 14.2332C18.7481 14.2884 18.8431 14.3381 18.9408 14.3821C18.8245 14.6171 18.7388 14.8661 18.6857 15.1229ZM17.6945 14.5942C17.8951 14.9463 18.0005 15.3447 18 15.75H17.6024C17.5621 15.4218 17.4692 15.1023 17.3272 14.8037C17.4559 14.7455 17.5789 14.6754 17.6945 14.5942ZM16.583 14.9932C16.7132 15.2285 16.8017 15.4845 16.8446 15.75H15.7286C15.6745 15.4943 15.5651 15.2536 15.4083 15.0446L15.0082 14.511C15.4053 14.8279 15.8983 15.0004 16.4062 15C16.4656 15 16.5246 14.9978 16.583 14.9932ZM13.4475 15.4453C13.9215 14.6851 14.0056 13.7448 13.674 12.9126L14.1929 11.6341C14.2293 11.7252 14.2732 11.8132 14.3241 11.8972C14.1295 12.3723 14.1034 12.8997 14.25 13.3917V14.625C14.25 14.7061 14.2763 14.7851 14.325 14.85L14.8083 15.4946C14.8669 15.5728 14.9142 15.6588 14.949 15.75H13.2568L13.4475 15.4453ZM15.5964 4.21908L16.0091 4.35666L14.5436 8.16689C14.3824 8.58609 14.2865 9.02756 14.2594 9.47587L13.1897 12.1115L13.1706 12.0876C13.0543 11.9421 12.9116 11.8198 12.75 11.7271V11.1612L15.5964 4.21908ZM13.125 6.5625V1.5H13.875V6.4605C13.875 6.49613 13.8802 6.53156 13.8902 6.56573L13.5 7.58063L13.1232 6.60094C13.1244 6.58819 13.125 6.57534 13.125 6.5625ZM10.9909 4.35666L11.4034 4.21908L12.931 8.19145C12.9903 8.34586 13.036 8.50514 13.0678 8.66747L12.735 9.39403C12.7016 8.97375 12.6078 8.56045 12.4564 8.16694L10.9909 4.35666ZM12 11.0793V11.5316C11.751 11.5337 11.5065 11.5985 11.2891 11.7202C11.457 11.4208 11.7026 11.1722 12 11.0007V11.0793ZM9.50428 9.82627L9.46613 9.75H9.74939C10.2115 9.74841 10.6343 10.0097 10.8395 10.4237L10.8776 10.5H10.5944C10.1323 10.5016 9.7095 10.2403 9.50428 9.82627ZM8.66752 12.6662L8.75559 12.5562C9.00834 12.2403 9.46931 12.1892 9.78516 12.4419C9.84394 12.489 9.89508 12.5448 9.93684 12.6074C10.2068 13.0124 10.754 13.1218 11.1589 12.8518C11.2557 12.7873 11.3388 12.7042 11.4033 12.6074C11.5885 12.3301 11.9374 12.2126 12.2526 12.3215C12.255 12.3223 12.2573 12.3232 12.2596 12.324C12.3875 12.3697 12.5001 12.4501 12.5848 12.5562L12.6728 12.6662C13.2192 13.3505 13.2747 14.3049 12.8113 15.0479L12.3726 15.75H8.96798L8.52909 15.0478C8.06569 14.3049 8.12114 13.3505 8.66752 12.6662ZM7.47038 13.81C7.46953 13.8075 7.46878 13.805 7.46789 13.8024L7.47056 13.8054C7.47047 13.8071 7.47047 13.8086 7.47038 13.8102V13.81ZM1.57739 10.0538C1.37813 9.53611 1.58353 8.95031 2.0625 8.67052C2.17533 8.60559 2.24639 8.48681 2.25028 8.35669C2.27447 7.52841 2.96559 6.87656 3.79383 6.9008C4.1827 6.91214 4.55194 7.07414 4.82372 7.35253C4.9147 7.44558 5.04745 7.48481 5.17444 7.45612C5.71631 7.33758 6.26419 7.62938 6.46819 8.14519C6.6952 8.72138 6.41217 9.37252 5.83598 9.59953C5.754 9.63183 5.6685 9.65438 5.58122 9.66666C5.56814 9.6645 5.55516 9.66197 5.54208 9.65986C5.62106 9.29114 5.79539 8.94961 6.04767 8.6693C6.18783 8.51681 6.17789 8.27963 6.02541 8.13942C5.87292 7.99927 5.63573 8.0092 5.49553 8.16169C5.49412 8.16323 5.49272 8.16478 5.49131 8.16633C5.13783 8.55928 4.89802 9.04106 4.79756 9.55997C4.73709 9.56541 4.67883 9.58552 4.62787 9.61856L4.09941 8.26444C4.02413 8.0715 3.80667 7.97611 3.61373 8.05139C3.4208 8.12667 3.32541 8.34412 3.40069 8.53706L3.92916 9.89119C3.8693 9.90145 3.81286 9.92611 3.76462 9.963C3.33923 9.64936 2.8365 9.45745 2.31033 9.40781C2.10408 9.38888 1.9215 9.5407 1.90256 9.74695C1.88363 9.9532 2.03545 10.1358 2.2417 10.1547C2.61713 10.19 2.97675 10.3232 3.28463 10.541C3.27628 10.5513 3.2685 10.5621 3.26034 10.5726C2.75053 10.9243 2.05209 10.7961 1.70039 10.2863C1.65047 10.2139 1.60927 10.1359 1.57753 10.0539L1.57739 10.0538ZM4.87162 15.2089L5.50537 14.9616C5.69859 14.887 5.79473 14.6699 5.72016 14.4767C5.64558 14.2835 5.4285 14.1873 5.23528 14.2619C5.23444 14.2622 5.23355 14.2626 5.2327 14.2629L4.53548 14.535L4.1993 13.861L4.61072 13.7004C4.80366 13.6252 4.89905 13.4077 4.82377 13.2147C4.74848 13.0217 4.53103 12.9264 4.33805 13.0017L3.86311 13.1871L3.67561 12.8114C3.46261 12.3896 3.43931 11.8972 3.61144 11.4572C4.02281 10.4849 5.22792 10.2781 5.92238 10.5556C6.34692 10.7627 6.66323 11.1407 6.79219 11.5951L7.38905 13.6597C7.39139 13.6679 7.39439 13.6757 7.3973 13.6837C7.29338 13.565 7.12627 13.524 6.97927 13.5812L6.62991 13.7176C6.43697 13.7929 6.34158 14.0103 6.41686 14.2033C6.49214 14.3962 6.70959 14.4916 6.90253 14.4163L7.25189 14.28C7.35314 14.2405 7.43222 14.1589 7.4685 14.0565C7.48561 14.5486 7.632 15.0277 7.89291 15.4454L8.08331 15.75H5.14158L4.87162 15.2089ZM22.5 20.25H1.5V18.75H22.5V20.25ZM22.5 22.5H1.5V21H22.5V22.5ZM22.5 18H1.5V16.5H22.5V18ZM19.7689 15.75H19.3713C19.371 15.356 19.4706 14.9683 19.6606 14.6231C19.7784 14.702 19.9035 14.7695 20.0342 14.8247C19.8977 15.1173 19.8082 15.4296 19.7689 15.75ZM22.2666 11.6217C22.17 11.7394 22.1543 11.9039 22.2267 12.0379C22.6198 12.7674 22.347 13.6774 21.6175 14.0705C21.399 14.1883 21.1545 14.25 20.9062 14.25C20.5727 14.251 20.2485 14.1397 19.986 13.934C19.9332 13.8929 19.8705 13.8667 19.8042 13.858C19.4694 13.8139 19.1516 13.6842 18.8815 13.4814C18.7481 13.3812 18.5644 13.3812 18.431 13.4814C18.1609 13.6842 17.8431 13.8139 17.5083 13.858C17.442 13.8667 17.3793 13.8929 17.3265 13.934C17.064 14.1397 16.7398 14.251 16.4062 14.25C15.5776 14.2498 14.906 13.5778 14.9062 12.7492C14.9063 12.5009 14.968 12.2565 15.0858 12.0379C15.1582 11.9039 15.1425 11.7394 15.0459 11.6217C14.7725 11.2882 14.7359 10.8197 14.954 10.4478L14.955 10.4462C15.0154 10.3435 15.0931 10.2521 15.1846 10.1759C15.294 10.0849 15.3423 9.9398 15.3096 9.80137C15.1775 9.24769 15.5193 8.6918 16.073 8.55975C16.1291 8.54634 16.1862 8.53772 16.2438 8.53387C16.3688 8.52567 16.4814 8.45555 16.544 8.34703C17.2149 7.18036 18.7045 6.7785 19.8712 7.44938C20.2445 7.66402 20.5542 7.97377 20.7689 8.34703C20.8314 8.45555 20.9441 8.52567 21.0691 8.53387C21.637 8.57156 22.0668 9.06244 22.0292 9.63037C22.0253 9.68798 22.0167 9.74512 22.0033 9.80128C21.9705 9.93975 22.0189 10.0848 22.1282 10.1759C22.364 10.3717 22.5003 10.6623 22.5 10.9688C22.501 11.207 22.4184 11.438 22.2666 11.6217Z" fill="black"/>
<path d="M18.6563 7.875C18.0207 7.87561 17.4543 8.27606 17.2417 8.87503C17.1727 9.07031 17.2751 9.28457 17.4703 9.35357C17.6656 9.42257 17.8799 9.32024 17.9489 9.12496C18.0872 8.73426 18.5161 8.5297 18.9067 8.66803C19.1201 8.74359 19.2881 8.91149 19.3637 9.12496C19.4327 9.32024 19.6469 9.42257 19.8422 9.35357C20.0375 9.28457 20.1398 9.07031 20.0708 8.87503C19.8582 8.27606 19.2918 7.87561 18.6563 7.875Z" fill="black"/>
<path d="M16.7812 10.5C16.9883 10.5 17.1562 10.3321 17.1562 10.125C17.1562 9.91791 16.9883 9.75 16.7812 9.75C16.1599 9.75 15.6562 10.2537 15.6562 10.875C15.6562 11.4963 16.1599 12 16.7812 12C16.9883 12 17.1562 11.8321 17.1562 11.625C17.1562 11.4179 16.9883 11.25 16.7812 11.25C16.5742 11.25 16.4062 11.0821 16.4062 10.875C16.4062 10.6679 16.5742 10.5 16.7812 10.5Z" fill="black"/>
<path d="M3.375 16.875H2.625C2.41791 16.875 2.25 17.0429 2.25 17.25C2.25 17.4571 2.41791 17.625 2.625 17.625H3.375C3.58209 17.625 3.75 17.4571 3.75 17.25C3.75 17.0429 3.58209 16.875 3.375 16.875Z" fill="black"/>
<path d="M20.625 17.625H21.375C21.5821 17.625 21.75 17.4571 21.75 17.25C21.75 17.0429 21.5821 16.875 21.375 16.875H20.625C20.4179 16.875 20.25 17.0429 20.25 17.25C20.25 17.4571 20.4179 17.625 20.625 17.625Z" fill="black"/>
<path d="M12.375 16.875H11.625C11.4179 16.875 11.25 17.0429 11.25 17.25C11.25 17.4571 11.4179 17.625 11.625 17.625H12.375C12.5821 17.625 12.75 17.4571 12.75 17.25C12.75 17.0429 12.5821 16.875 12.375 16.875Z" fill="black"/>
<path d="M9.59064 14.9999C9.79773 14.9999 9.96564 14.8321 9.96564 14.6249C9.96564 14.5254 9.92612 14.4301 9.85581 14.3597C9.74584 14.25 9.71861 14.0822 9.78822 13.9433L9.92603 13.6676C10.0172 13.4817 9.94037 13.257 9.75442 13.1658C9.57053 13.0756 9.34825 13.1497 9.25525 13.3322L9.1172 13.6077C8.90294 14.0353 8.9868 14.5521 9.32528 14.8899C9.39555 14.9604 9.49108 15.0001 9.59064 14.9999Z" fill="black"/>
</svg>
