<svg width="24" height="24" viewBox="0 0 24 24" fill="none" xmlns="http://www.w3.org/2000/svg">
<g clip-path="url(#clip0)">
<path d="M11.9644 0.358887C5.55489 0.358887 0.358948 5.55483 0.358948 11.9643C0.358948 18.3738 5.55489 23.5697 11.9644 23.5697C18.3738 23.5697 23.5698 18.3738 23.5698 11.9643C23.5698 5.55483 18.3738 0.358887 11.9644 0.358887ZM11.9644 21.9689C6.43893 21.9689 1.9597 17.4897 1.9597 11.9643C1.9597 6.43887 6.43893 1.95964 11.9644 1.95964C17.4898 1.95964 21.969 6.43887 21.969 11.9643C21.969 17.4897 17.4898 21.9689 11.9644 21.9689Z" fill="#FFE477"/>
<path d="M11.9644 1.95996C6.43894 1.95996 1.95972 6.43919 1.95972 11.9646C1.95972 17.49 6.43894 21.9693 11.9644 21.9693C17.4898 21.9693 21.969 17.49 21.969 11.9646C21.969 6.43919 17.4898 1.95996 11.9644 1.95996ZM16.3664 5.96185C17.2506 5.96185 17.9671 6.67858 17.9671 7.56261C17.9671 8.44665 17.2504 9.16337 16.3664 9.16337C15.4823 9.16337 14.7656 8.44665 14.7656 7.56261C14.7656 6.67841 15.4823 5.96185 16.3664 5.96185ZM11.9644 3.16061C12.4065 3.16061 12.7647 3.51889 12.7647 3.96099C12.7647 4.40293 12.4065 4.76137 11.9644 4.76137C11.5224 4.76137 11.164 4.40293 11.164 3.96099C11.164 3.51889 11.5223 3.16061 11.9644 3.16061ZM4.36085 12.765C3.91875 12.765 3.56047 12.4067 3.56047 11.9646C3.56047 11.5227 3.91892 11.1642 4.36085 11.1642C4.80295 11.1642 5.16123 11.5227 5.16123 11.9646C5.16123 12.4067 4.80295 12.765 4.36085 12.765ZM5.5615 6.36196C5.5615 5.92003 5.91978 5.56175 6.36172 5.56175C6.80382 5.56175 7.1621 5.92003 7.1621 6.36196C7.1621 6.80406 6.80382 7.16234 6.36172 7.16234C5.91978 7.16234 5.5615 6.80406 5.5615 6.36196ZM7.56237 17.9674C6.67833 17.9674 5.96161 17.2507 5.96161 16.3666C5.96161 15.4826 6.67833 14.7659 7.56237 14.7659C8.4464 14.7659 9.16313 15.4826 9.16313 16.3666C9.16313 17.2507 8.4464 17.9674 7.56237 17.9674ZM11.9644 20.3685C11.5223 20.3685 11.164 20.0102 11.164 19.5681C11.164 19.1262 11.5224 18.7678 11.9644 18.7678C12.4065 18.7678 12.7647 19.1262 12.7647 19.5681C12.7647 20.0102 12.4065 20.3685 11.9644 20.3685ZM13.9652 17.167C12.1972 17.1672 10.7637 15.734 10.7636 13.966C10.7634 13.6466 10.8112 13.329 10.9051 13.0238C9.21509 13.5438 7.42369 12.5953 6.90372 10.9054C6.38392 9.21533 7.33247 7.42393 9.02236 6.90397C10.7122 6.38416 12.5038 7.33271 13.0236 9.0226C13.2123 9.63603 13.2123 10.2919 13.0236 10.9054C14.7138 10.3859 16.5049 11.3349 17.0244 13.0251C17.5439 14.7152 16.5948 16.5063 14.9046 17.0257C14.6004 17.1194 14.2838 17.1668 13.9652 17.167ZM17.567 18.3676C17.1249 18.3676 16.7666 18.0092 16.7666 17.5673C16.7666 17.1252 17.1249 16.7669 17.567 16.7669C18.009 16.7669 18.3672 17.1252 18.3672 17.5673C18.3672 18.0092 18.009 18.3676 17.567 18.3676ZM19.968 11.9646C19.968 12.4067 19.6097 12.765 19.1676 12.765C18.7257 12.765 18.3674 12.4067 18.3674 11.9646C18.3674 11.5227 18.7257 11.1642 19.1676 11.1642C19.6097 11.1642 19.968 11.5225 19.968 11.9646Z" fill="#00DDC2"/>
<path d="M13.9651 10.7637C13.6461 10.7634 13.3287 10.811 13.0235 10.905C13.5435 9.21494 12.5949 7.42354 10.905 6.90358C9.21499 6.38377 7.42359 7.33216 6.90362 9.02221C6.38382 10.7121 7.33237 12.5035 9.02225 13.0235C9.63569 13.2122 10.2916 13.2122 10.905 13.0235C10.3849 14.7133 11.3333 16.5049 13.0232 17.025C14.7132 17.545 16.5046 16.5966 17.0248 14.9067C17.5449 13.2168 16.5965 11.4253 14.9066 10.9053C14.6016 10.8114 14.2843 10.7637 13.9651 10.7637Z" fill="#FFE477"/>
<path d="M17.9671 7.56267C17.9671 8.44671 17.2504 9.16343 16.3663 9.16343C15.4823 9.16343 14.7656 8.44671 14.7656 7.56267C14.7656 6.67864 15.4823 5.96191 16.3663 5.96191C17.2504 5.96191 17.9671 6.67864 17.9671 7.56267Z" fill="#FFE477"/>
<path d="M9.16312 16.3664C9.16312 17.2504 8.4464 17.9671 7.56237 17.9671C6.67833 17.9671 5.96161 17.2504 5.96161 16.3664C5.96161 15.4823 6.67833 14.7656 7.56237 14.7656C8.4464 14.7656 9.16312 15.4823 9.16312 16.3664Z" fill="#FFE477"/>
<path d="M19.968 11.9644C19.968 12.4065 19.6097 12.7648 19.1676 12.7648C18.7257 12.7648 18.3674 12.4065 18.3674 11.9644C18.3674 11.5225 18.7257 11.1641 19.1676 11.1641C19.6097 11.1641 19.968 11.5225 19.968 11.9644Z" fill="#FFE477"/>
<path d="M5.16118 11.9644C5.16118 12.4065 4.8029 12.7648 4.3608 12.7648C3.91887 12.7648 3.56042 12.4065 3.56042 11.9644C3.56042 11.5225 3.91887 11.1641 4.3608 11.1641C4.8029 11.1641 5.16118 11.5225 5.16118 11.9644Z" fill="#FFE477"/>
<path d="M12.7647 3.96102C12.7647 4.40296 12.4064 4.7614 11.9643 4.7614C11.5224 4.7614 11.164 4.40296 11.164 3.96102C11.164 3.51892 11.5224 3.16064 11.9643 3.16064C12.4064 3.16064 12.7647 3.51892 12.7647 3.96102Z" fill="#FFE477"/>
<path d="M12.7647 19.568C12.7647 20.0099 12.4064 20.3683 11.9643 20.3683C11.5224 20.3683 11.164 20.0099 11.164 19.568C11.164 19.1259 11.5224 18.7676 11.9643 18.7676C12.4064 18.7676 12.7647 19.1259 12.7647 19.568Z" fill="#FFE477"/>
<path d="M18.3672 17.567C18.3672 18.0089 18.0089 18.3672 17.567 18.3672C17.1249 18.3672 16.7666 18.0089 16.7666 17.567C16.7666 17.1249 17.1249 16.7666 17.567 16.7666C18.0089 16.7666 18.3672 17.1249 18.3672 17.567Z" fill="#FFE477"/>
<path d="M7.16209 6.36174C7.16209 6.80384 6.80381 7.16212 6.36171 7.16212C5.91977 7.16212 5.56149 6.80384 5.56149 6.36174C5.56149 5.9198 5.91977 5.56152 6.36171 5.56152C6.80381 5.56152 7.16209 5.9198 7.16209 6.36174Z" fill="#FFE477"/>
<path d="M11.9644 -0.0410156C5.33384 -0.0410156 -0.0411682 5.33399 -0.0411682 11.9645C-0.0411682 18.595 5.33384 23.97 11.9644 23.97C18.5949 23.97 23.9699 18.595 23.9699 11.9645C23.9623 5.33721 18.5916 -0.0334542 11.9644 -0.0410156ZM11.9644 23.1696C5.77594 23.1696 0.75921 18.1529 0.75921 11.9645C0.75921 5.77609 5.77594 0.759363 11.9644 0.759363C18.1528 0.759363 23.1695 5.77609 23.1695 11.9645C23.1624 18.15 18.1499 23.1626 11.9644 23.1696Z" fill="#231F20"/>
<path d="M11.9644 1.55957C6.21805 1.55957 1.5596 6.21802 1.5596 11.9643C1.5596 17.7108 6.21805 22.3691 11.9644 22.3691C17.7108 22.3691 22.3691 17.7108 22.3691 11.9643C22.3627 6.22059 17.7081 1.56601 11.9644 1.55957ZM11.9644 21.5687C6.65998 21.5687 2.35998 17.2687 2.35998 11.9643C2.35998 6.65995 6.65998 2.35995 11.9644 2.35995C17.2687 2.35995 21.5687 6.65995 21.5687 11.9643C21.5626 17.2661 17.2662 21.5626 11.9644 21.5687Z" fill="#231F20"/>
<path d="M17.567 13.9656C17.567 11.9765 15.9543 10.364 13.9652 10.364C13.8231 10.364 13.6811 10.3724 13.5398 10.3893C13.7747 8.41398 12.364 6.62241 10.3888 6.38737C8.41355 6.15248 6.62183 7.56324 6.38694 9.53853C6.15206 11.5137 7.56281 13.3054 9.53794 13.5403C9.67919 13.5572 9.82125 13.5655 9.96347 13.5655C10.1054 13.5655 10.2473 13.5572 10.3884 13.5407C10.3719 13.6818 10.3636 13.8237 10.3636 13.9656C10.3636 15.9549 11.9761 17.5674 13.9652 17.5674C15.9543 17.5674 17.567 15.9549 17.567 13.9656ZM13.9652 16.767C12.4182 16.7672 11.1638 15.5131 11.1636 13.9661C11.1635 13.6865 11.2053 13.4085 11.2877 13.1413C11.3527 12.93 11.2341 12.7061 11.0229 12.6411C10.9846 12.6294 10.945 12.6234 10.9051 12.6234C10.8644 12.6234 10.824 12.6294 10.7851 12.6411C9.30724 13.0946 7.74171 12.2643 7.28819 10.7865C6.83467 9.30879 7.66497 7.7431 9.14266 7.28958C10.6205 6.83622 12.186 7.66653 12.6395 9.14421C12.804 9.67994 12.8038 10.2527 12.6391 10.7882C12.5739 10.9995 12.6923 11.2234 12.9036 11.2886C12.9805 11.3122 13.0628 11.3122 13.1397 11.2884C14.6182 10.8331 16.186 11.6628 16.6413 13.1413C17.0966 14.6199 16.2671 16.1877 14.7884 16.643C14.5218 16.725 14.2443 16.7669 13.9652 16.767Z" fill="#231F20"/>
<path d="M16.3663 9.56326C17.4714 9.56326 18.3673 8.66747 18.3673 7.56239C18.3673 6.4573 17.4714 5.56152 16.3663 5.56152C15.2612 5.56152 14.3654 6.4573 14.3654 7.56239C14.3667 8.66699 15.2619 9.56197 16.3663 9.56326ZM16.3663 6.36174C17.0295 6.36174 17.567 6.8994 17.567 7.56239C17.567 8.22538 17.0295 8.76304 16.3663 8.76304C15.7033 8.76304 15.1658 8.22538 15.1658 7.56239C15.1658 6.8994 15.7033 6.36174 16.3663 6.36174Z" fill="#231F20"/>
<path d="M7.56236 14.3657C6.45727 14.3657 5.56149 15.2615 5.56149 16.3666C5.56149 17.4717 6.45727 18.3676 7.56236 18.3676C8.66744 18.3676 9.56322 17.4717 9.56322 16.3666C9.56194 15.2621 8.66696 14.367 7.56236 14.3657ZM7.56236 17.5672C6.89937 17.5672 6.36171 17.0296 6.36171 16.3666C6.36171 15.7036 6.89937 15.1659 7.56236 15.1659C8.22535 15.1659 8.76301 15.7036 8.76301 16.3666C8.76301 17.0296 8.22535 17.5672 7.56236 17.5672Z" fill="#231F20"/>
<path d="M19.1676 10.7642C18.5046 10.7642 17.9671 11.3017 17.9671 11.9647C17.9671 12.6278 18.5046 13.1653 19.1676 13.1653C19.8308 13.1653 20.3683 12.6278 20.3683 11.9647C20.3683 11.3017 19.8308 10.7642 19.1676 10.7642ZM19.1676 12.3649C18.9467 12.3649 18.7675 12.1857 18.7675 11.9647C18.7675 11.7436 18.9467 11.5645 19.1676 11.5645C19.3887 11.5645 19.5679 11.7436 19.5679 11.9647C19.5679 12.1857 19.3887 12.3649 19.1676 12.3649Z" fill="#231F20"/>
<path d="M4.3608 10.7642C3.69781 10.7642 3.16031 11.3017 3.16031 11.9647C3.16031 12.6278 3.69781 13.1653 4.3608 13.1653C5.02394 13.1653 5.56144 12.6278 5.56144 11.9647C5.56144 11.3017 5.02394 10.7642 4.3608 10.7642ZM4.3608 12.3649C4.13975 12.3649 3.96069 12.1857 3.96069 11.9647C3.96069 11.7436 4.13975 11.5645 4.3608 11.5645C4.58185 11.5645 4.76107 11.7436 4.76107 11.9647C4.76107 12.1857 4.58185 12.3649 4.3608 12.3649Z" fill="#231F20"/>
<path d="M11.9644 5.16139C12.6275 5.16139 13.165 4.62389 13.165 3.96074C13.165 3.29775 12.6275 2.76025 11.9644 2.76025C11.3014 2.76025 10.7639 3.29775 10.7639 3.96074C10.7639 4.62389 11.3014 5.16139 11.9644 5.16139ZM11.9644 3.56063C12.1854 3.56063 12.3646 3.73985 12.3646 3.9609C12.3646 4.18195 12.1854 4.36101 11.9644 4.36101C11.7433 4.36101 11.5642 4.18195 11.5642 3.9609C11.5642 3.73985 11.7433 3.56063 11.9644 3.56063Z" fill="#231F20"/>
<path d="M11.9644 18.3677C11.3014 18.3677 10.7639 18.9052 10.7639 19.5682C10.7639 20.2313 11.3014 20.7688 11.9644 20.7688C12.6275 20.7688 13.165 20.2313 13.165 19.5682C13.165 18.9052 12.6273 18.3677 11.9644 18.3677ZM11.9644 19.9683C11.7433 19.9683 11.5642 19.7892 11.5642 19.5682C11.5642 19.3471 11.7433 19.1679 11.9644 19.1679C12.1854 19.1679 12.3646 19.3471 12.3646 19.5682C12.3646 19.7892 12.1854 19.9683 11.9644 19.9683Z" fill="#231F20"/>
<path d="M17.567 16.3667C16.9039 16.3667 16.3664 16.9042 16.3664 17.5673C16.3664 18.2303 16.9039 18.7678 17.567 18.7678C18.23 18.7678 18.7675 18.2303 18.7675 17.5673C18.7675 16.9042 18.23 16.3667 17.567 16.3667ZM17.567 17.9675C17.346 17.9675 17.1667 17.7882 17.1667 17.5673C17.1667 17.3463 17.346 17.1671 17.567 17.1671C17.7879 17.1671 17.9671 17.3463 17.9671 17.5673C17.9671 17.7882 17.7879 17.9675 17.567 17.9675Z" fill="#231F20"/>
<path d="M6.36168 7.56227C7.02483 7.56227 7.56233 7.02477 7.56233 6.36162C7.56233 5.69863 7.02483 5.16113 6.36168 5.16113C5.69869 5.16113 5.16119 5.69863 5.16119 6.36162C5.16119 7.02477 5.69869 7.56227 6.36168 7.56227ZM6.36168 5.96151C6.58273 5.96151 6.76195 6.14073 6.76195 6.36162C6.76195 6.58267 6.58273 6.76189 6.36168 6.76189C6.14079 6.76189 5.96157 6.58267 5.96157 6.36162C5.96157 6.14073 6.14079 5.96151 6.36168 5.96151Z" fill="#231F20"/>
</g>
<defs>
<clipPath id="clip0">
<rect width="24" height="24" fill="white"/>
</clipPath>
</defs>
</svg>
