<svg width="24" height="24" viewBox="0 0 24 24" fill="none" xmlns="http://www.w3.org/2000/svg">
<path d="M23.6485 12.8017C23.6485 9.47541 22.1512 6.4988 19.7938 4.5091C17.9058 2.91544 12.6014 2.73291 12.6014 2.73291L8.75712 2.75508C8.72853 2.76718 8.69398 2.75879 8.66553 2.77111C4.89762 4.40621 2.45248 8.28038 2.45248 12.7838C2.45248 18.7744 6.91887 22.8507 12.9094 22.8507C14.7104 22.8507 16.3011 23.2096 17.796 22.4328C21.2733 20.626 23.6485 16.9912 23.6485 12.8017Z" fill="#94CCD4"/>
<path d="M19.7939 4.50881C18.691 5.23021 17.5069 5.946 17.063 6.04303C15.8447 6.39928 14.2589 5.64459 13.9332 7.44131C13.9238 7.78818 13.8933 8.11772 13.8413 8.42522C13.7832 8.76834 13.6557 9.09131 13.4705 9.37818C13.2853 9.66506 12.7926 9.74878 12.5057 9.94565C11.7158 10.4885 11.0741 10.521 10.2238 10.078C10.2022 10.0668 10.1802 10.0551 10.1581 10.0433C8.74157 9.34912 7.9094 7.75256 9.37799 6.58584C10.3431 5.78896 10.1972 4.38332 9.52265 3.50489L9.11671 3.0352C9.43185 2.90503 9.30355 2.52529 9.6328 2.42484C10.6352 2.11903 11.6992 1.95459 12.8016 1.95459C15.466 1.95459 17.9058 2.91506 19.7939 4.50881Z" fill="#B7E546"/>
<path d="M21.214 10.1162C21.208 9.22087 20.8465 8.364 20.2088 7.73494C19.6648 7.11253 19.4767 6.74171 18.729 7.42885C18.0204 8.31033 18.7193 9.40439 17.2131 10.9076C16.9463 11.1791 16.7967 11.5508 16.8117 11.9319C16.8111 11.9318 16.8114 11.8646 16.8109 11.8645C16.865 12.8083 17.5097 13.5691 18.4285 13.5691C19.6088 13.5691 21.214 12.1836 21.214 10.1162Z" fill="#B7E546"/>
<path d="M17.8181 10.838C17.5514 11.1098 17.4014 11.4816 17.4164 11.8626C17.4159 11.8622 17.4159 11.8617 17.4155 11.8617C17.4605 12.6431 18.1378 13.3008 18.8911 13.5042C18.7331 13.5473 18.5775 13.5694 18.4284 13.5694C17.5097 13.5694 16.5323 12.8058 16.478 11.8617C16.4784 11.8617 16.4784 11.8622 16.4789 11.8626C16.4639 11.4816 16.6139 11.1098 16.8806 10.838C18.3867 9.33514 17.5139 8.16092 18.2227 7.27967C18.6497 6.88685 19.0598 6.88873 19.4339 7.07857C19.3434 7.12873 19.2525 7.19482 19.1602 7.27967C18.4514 8.16092 19.3242 9.33514 17.8181 10.838Z" fill="#ABD641"/>
<path d="M22.233 1.17192V6.58627L21.888 6.91383C21.888 7.36687 21.3729 7.43512 20.9198 7.43512L18.4435 7.41651C18.3282 7.41651 18.2159 7.45289 18.1226 7.52048L16.0791 8.93944C15.8983 9.07041 15.6453 8.94122 15.6453 8.718L15.8371 8.03555C15.8371 7.73348 15.5922 7.48866 15.2902 7.48866H14.6339C14.1809 7.48866 13.8136 7.12139 13.8136 6.6683L13.7147 1.58906C13.7147 1.13602 13.8946 0.658172 14.3477 0.658172L14.5763 0.351562H21.4126C21.8657 0.351562 22.233 0.718828 22.233 1.17192Z" fill="#DC4955"/>
<path d="M22.233 6.58627V6.85974C22.233 7.31283 21.8657 7.68009 21.4126 7.68009H18.4768C18.3614 7.68009 18.2493 7.71675 18.1563 7.78402L15.9397 9.38916C15.7592 9.52041 15.506 9.39136 15.506 9.16767V8.22698C15.506 7.92492 15.2612 7.68009 14.9591 7.68009H14.3028C13.8498 7.68009 13.4825 7.31283 13.4825 6.85974V1.17192C13.4825 0.718875 13.8497 0.351562 14.3028 0.351562H14.5763V6.47691C14.5763 6.53733 14.6253 6.58627 14.6857 6.58627H14.9591C15.5886 6.58627 16.1363 6.94228 16.4113 7.464C16.4582 7.55292 16.5718 7.581 16.6532 7.52198L17.5142 6.89798C17.7959 6.69398 18.129 6.58627 18.4768 6.58627H22.233Z" fill="#D82F3C"/>
<path d="M15.3797 22.7006C9.24568 22.7006 4.27271 17.7422 4.27271 11.6259C4.27271 7.98326 5.94277 4.78943 8.66574 2.771C4.72688 4.39686 1.95474 8.27553 1.95474 12.8015C1.95474 14.6459 2.41505 16.3828 3.22712 17.9035C3.22712 17.9035 5.80473 19.9449 7.10813 20.9042C8.90616 22.2274 12.3999 23.081 12.3999 23.081C12.3999 23.081 16.2873 23.2129 17.7779 22.4413C17.0054 22.6111 16.2033 22.7006 15.3797 22.7006Z" fill="#6FBBC6"/>
<path d="M17.7954 22.4319C16.9238 21.2179 15.3208 19.8795 15.3897 18.2675C15.4131 17.7179 15.3406 17.1666 15.1597 16.6469C15.1568 16.6398 15.1545 16.6329 15.1522 16.6261C15.0607 16.3687 14.9233 16.1305 14.7522 15.9182C14.2798 15.3314 13.2717 13.8002 12.7788 13.5855C11.8376 13.0034 10.5634 13.4369 10.0598 14.3927C9.62277 15.4984 9.50221 17.0133 8.36048 17.6096C7.67798 17.9797 6.6943 17.8966 6.17512 17.2837C5.27432 16.1137 4.01315 17.245 3.22818 17.9033C3.54009 18.486 4.8127 18.9132 5.22426 19.4301C6.93191 21.5751 8.45174 22.402 10.954 22.851C13.2814 23.2733 15.6697 23.536 17.7701 22.4448C17.7785 22.4404 17.787 22.4362 17.7954 22.4319Z" fill="#B7E546"/>
<path d="M17.7736 22.4422C15.9089 23.4123 13.7557 23.808 11.6667 23.5887V23.5883C8.13616 23.243 4.87788 21.0407 3.2283 17.9028C3.84893 17.382 4.76815 16.565 5.57111 16.8261C7.43908 20.3215 11.131 22.7005 15.3797 22.7005C16.2019 22.7005 17.0025 22.6114 17.7736 22.4422Z" fill="#ABD641"/>
<path d="M20.1925 13.0513V18.4656L19.8475 18.7932C19.8475 19.2462 19.3325 19.3145 18.8794 19.3145L16.403 19.2959C16.2878 19.2959 16.1755 19.3322 16.0822 19.3998L14.0387 20.8188C13.8579 20.9498 13.6048 20.8206 13.6048 20.5974L13.7966 19.9149C13.7966 19.6128 13.5517 19.368 13.2497 19.368H12.5934C12.1404 19.368 11.7731 19.0007 11.7731 18.5477L11.6742 13.4685C11.6742 13.0154 11.8541 12.5376 12.3072 12.5376L12.5358 12.231H19.3721C19.8252 12.2309 20.1925 12.5982 20.1925 13.0513Z" fill="#FFBF54"/>
<path d="M20.1925 18.4657V18.7391C20.1925 19.1922 19.8253 19.5595 19.3722 19.5595H16.4364C16.321 19.5595 16.2089 19.5961 16.1159 19.6634L13.8993 21.2686C13.7188 21.3998 13.4656 21.2708 13.4656 21.0471V20.1064C13.4656 19.8043 13.2207 19.5595 12.9187 19.5595H12.2624C11.8094 19.5595 11.4421 19.1922 11.4421 18.7391V13.0513C11.4421 12.5983 11.8093 12.231 12.2624 12.231H12.5359V18.3563C12.5359 18.4167 12.5849 18.4657 12.6453 18.4657H12.9187C13.5482 18.4657 14.0959 18.8217 14.3709 19.3434C14.4177 19.4323 14.5314 19.4604 14.6128 19.4014L15.4738 18.7774C15.7555 18.5734 16.0886 18.4657 16.4364 18.4657H20.1925Z" fill="#FFA442"/>
<path d="M9.73403 7.19152L9.72043 7.20277C9.53949 7.34668 8.91137 7.92184 8.46606 8.41496C8.28699 7.73855 8.44262 7.02043 9.13731 6.46871C10.1025 5.67184 9.74621 4.11934 9.07168 3.2409L8.66546 2.77098C8.98046 2.64066 9.30324 2.52512 9.63278 2.4248C9.92434 2.86777 10.1836 3.2409 10.1836 3.2409C10.8825 4.54262 10.9139 6.21793 9.73403 7.19152Z" fill="#ABD641"/>
<path d="M13.5098 9.31466C13.4972 9.33623 13.4841 9.35732 13.4705 9.37841C13.2853 9.66529 13.0434 9.9156 12.7566 10.1125C11.9667 10.6553 10.9425 10.7162 10.0922 10.2733C10.0706 10.262 10.0486 10.2503 10.0266 10.2386C8.69345 9.58513 7.78173 7.85685 8.90251 6.68311C8.54579 7.76029 9.38813 9.00388 10.522 9.53544C10.545 9.54716 10.568 9.55888 10.5905 9.57013C11.4792 10.0131 12.5498 9.95216 13.3753 9.40935C13.4213 9.37935 13.4663 9.34794 13.5098 9.31466Z" fill="#ABD641"/>
<path d="M11.5482 23.5757C11.5512 23.576 11.5542 23.5764 11.5572 23.5767C11.5542 23.5764 11.5512 23.5761 11.5482 23.5757Z" fill="#94CCD4"/>
<path d="M8.186 22.6187C8.19665 22.6237 8.20738 22.6285 8.21802 22.6335C8.20733 22.6285 8.19665 22.6237 8.186 22.6187Z" fill="#94CCD4"/>
<path d="M17.7778 22.4414C17.5842 22.5417 17.3878 22.6359 17.1876 22.7241C17.3845 22.6369 17.5786 22.5436 17.7698 22.4442C17.7712 22.4437 17.7722 22.4428 17.7736 22.4423C17.775 22.4419 17.7764 22.4419 17.7778 22.4414Z" fill="#94CCD4"/>
<path d="M0.729065 6.77351L0.797877 11.4909C0.797877 11.9528 1.17428 12.3273 1.63863 12.3273L4.27792 12.4135C4.396 12.4135 4.51108 12.4507 4.60671 12.5196L6.40797 14.0424C6.59327 14.1759 6.85263 14.0442 6.85263 13.8166L6.96644 13.0804C6.96644 12.7724 7.21736 12.5228 7.52693 12.5228L8.39805 12.5196C8.86239 12.5196 9.31961 12.4093 9.31961 11.9474V6.14796C9.31961 5.68601 8.94321 5.31152 8.47886 5.31152H1.19233C0.727987 5.31152 0.729065 6.31155 0.729065 6.77351Z" fill="#FAF8F8"/>
<path d="M9.31969 11.8464V11.9476C9.31969 12.4093 8.94328 12.7839 8.47875 12.7839H7.80609C7.49672 12.7839 7.24594 13.0337 7.24594 13.3417V14.3012C7.24594 14.5286 6.98625 14.6603 6.80109 14.5267L4.53 12.8898C4.43437 12.8209 4.31906 12.7839 4.20094 12.7839H1.1925C0.727969 12.7839 0.351562 12.4093 0.351562 11.9476V6.14824C0.351562 5.68606 0.727969 5.31152 1.1925 5.31152H1.28906V11.612C1.28906 11.7414 1.39402 11.8464 1.52344 11.8464H4.20094C4.51594 11.8464 4.82297 11.9458 5.07797 12.1295L6.12562 12.8847C6.22594 12.9568 6.36562 12.9128 6.41062 12.7979C6.62906 12.2415 7.17234 11.8464 7.80609 11.8464H9.31969Z" fill="#F0E9E6"/>
<path d="M22.5885 7.35525C22.6265 7.23938 22.6473 7.11581 22.6473 6.98747V1.188C22.6473 0.532922 22.1124 0 21.455 0H14.1684C13.511 0 12.9761 0.532922 12.9761 1.188V1.60528C11.4043 1.57378 9.77048 1.89998 8.32603 2.53345C7.00359 3.11063 5.82113 3.92709 4.80825 4.95994H3.5625C3.36834 4.95994 3.21094 5.11734 3.21094 5.3115C3.21094 5.50566 3.36834 5.66306 3.5625 5.66306H8.47884C8.74856 5.66306 8.96803 5.88061 8.96803 6.14794V11.9474C8.96803 12.2147 8.74856 12.4323 8.47884 12.4323H7.80623C7.30331 12.4323 6.89414 12.8401 6.89414 13.3415V14.1604L4.73536 12.6047C4.57889 12.4919 4.39411 12.4323 4.20103 12.4323H1.19231C0.922594 12.4323 0.703125 12.2148 0.703125 11.9474V6.14798C0.703125 5.88061 0.922594 5.66311 1.19231 5.66311H1.92188C2.11603 5.66311 2.27344 5.5057 2.27344 5.31155C2.27344 5.11739 2.11603 4.95998 1.92188 4.95998H1.19231C0.534891 4.95998 0 5.49291 0 6.14798V11.9474C0 12.6025 0.534891 13.1355 1.19231 13.1355H1.60861C1.69195 16.0015 2.84695 18.6839 4.88316 20.7201C6.99825 22.8352 9.81042 24 12.8016 24C14.3568 24 15.8622 23.6872 17.2762 23.0702C18.6419 22.4743 19.8588 21.624 20.8934 20.5429C21.0276 20.4026 21.0227 20.1801 20.8824 20.0459C20.7421 19.9116 20.5196 19.9165 20.3854 20.0568C19.6129 20.864 18.7365 21.5304 17.7856 22.0452C17.3388 21.4505 16.6831 20.735 16.2448 20.0492L16.3286 19.9888C16.3646 19.9628 16.4072 19.9492 16.4518 19.9492H19.4605C20.118 19.9492 20.6528 19.4162 20.6528 18.7612V12.9617C20.6528 12.8832 20.645 12.8066 20.6303 12.7323C21.2345 12.009 21.5655 11.0871 21.5655 10.1142C21.5608 9.42239 21.3653 8.75395 21.0064 8.17547H21.4549C21.7017 8.17547 21.9312 8.10037 22.1216 7.97194C22.8916 9.45661 23.2969 11.1163 23.2969 12.8016C23.2969 14.9718 22.6403 17.0543 21.3983 18.8239C21.2867 18.9828 21.3251 19.2021 21.484 19.3136C21.5889 19.389 21.8145 19.4192 21.9737 19.2278C23.2993 17.3393 24 15.1171 24 12.8016C24 10.892 23.5124 9.01284 22.5885 7.35525ZM8.47884 4.95998H5.82516C6.65077 4.22241 7.57336 3.6293 8.56388 3.19219L8.79891 3.46336C9.19345 3.98133 9.43973 4.72491 9.35897 5.34745C9.14081 5.10952 8.82703 4.95998 8.47884 4.95998ZM16.6668 21.7701C16.8349 21.9748 16.9965 22.1719 17.1449 22.3643C15.801 22.9755 14.329 23.2969 12.8016 23.2969C8.86786 23.2969 5.43333 21.1211 3.63647 17.9101C4.13213 17.5013 4.77061 17.0045 5.2807 17.0637C5.48887 17.0879 5.67319 17.2095 5.84414 17.4357C6.27192 18.0012 6.9938 18.1114 7.49953 18.1451C8.25469 18.0984 8.92763 17.7127 9.34777 17.0908C9.45759 16.9306 9.41686 16.7118 9.25673 16.602C9.09661 16.4921 8.8778 16.533 8.76797 16.693C8.46586 17.1335 8.06686 17.3718 7.51425 17.4413C6.94031 17.3992 6.59742 17.2661 6.40495 17.0116C6.11616 16.6296 5.7652 16.4121 5.3618 16.3652C4.61719 16.2789 3.88486 16.8021 3.30703 17.2711C2.71059 16.0092 2.35852 14.6102 2.31216 13.1354H4.20098C4.24561 13.1354 4.28822 13.1491 4.32422 13.1751L6.59545 14.8118C6.7057 14.8913 6.83489 14.9317 6.96497 14.9317C7.06341 14.9317 7.16231 14.9085 7.25386 14.8617C7.46569 14.7533 7.59722 14.5384 7.59722 14.3009V13.3415C7.59722 13.2278 7.69097 13.1354 7.80619 13.1354H8.4788C9.13622 13.1354 9.67111 12.6024 9.67111 11.9474V10.447C10.0896 10.7051 10.7523 10.9342 11.2919 10.9195C11.8753 10.9195 12.4559 10.7455 12.9556 10.4023C13.6079 9.95433 14.0569 9.25514 14.1877 8.484C14.2047 8.38387 14.2196 8.28075 14.2323 8.17542H14.841C14.9562 8.17542 15.0499 8.26786 15.0499 8.38148V9.34088C15.0499 9.57839 15.1815 9.79331 15.3933 9.90173C15.572 9.98536 15.7897 10.0137 16.0516 9.85191L17.4989 8.80898C17.4429 9.35344 17.2965 9.9263 16.6297 10.5918C16.3165 10.9106 16.1367 11.3364 16.1272 11.7736H12.174C11.5165 11.7736 10.9816 12.3066 10.9816 12.9617V13.1137C10.329 13.3625 9.80639 13.9117 9.5722 14.6034C9.52116 14.7543 9.44123 15.0112 9.36698 15.2566C9.31022 15.4423 9.4147 15.6388 9.60038 15.6956C9.74194 15.7353 9.94238 15.6863 10.0394 15.4622C10.0892 15.2992 10.1575 15.0718 10.2382 14.8289C10.3736 14.4289 10.6414 14.0971 10.9817 13.8925V18.7611C10.9817 19.4161 11.5166 19.9491 12.174 19.9491H12.8466C12.9618 19.9491 13.0555 20.0415 13.0555 20.1551V21.1145C13.0555 21.352 13.1871 21.5669 13.3989 21.6753C13.4904 21.7222 13.5893 21.7453 13.6878 21.7453C13.8179 21.7453 13.9471 21.7049 14.0573 21.6255L15.674 20.4605C15.9704 20.9207 16.3231 21.3516 16.6668 21.7701ZM19.9498 18.7611C19.9498 19.0285 19.7303 19.246 19.4606 19.246H16.4519C16.2588 19.246 16.074 19.3056 15.9176 19.4184L13.7587 20.9741V20.1552C13.7587 19.6538 13.3496 19.246 12.8467 19.246H12.1741C11.9044 19.246 11.6849 19.0284 11.6849 18.7611V12.9617C11.6849 12.6944 11.9044 12.4768 12.1741 12.4768H16.5164C16.5167 12.4768 16.5171 12.4769 16.5174 12.4769C16.518 12.4769 16.5185 12.4768 16.519 12.4768H19.4607C19.7304 12.4768 19.9499 12.6944 19.9499 12.9617V18.7611H19.9498ZM20.8625 10.1166C20.8625 10.8308 20.647 11.5115 20.2505 12.0728C20.04 11.8869 19.7634 11.7737 19.4606 11.7737H16.8307C16.84 11.5198 16.9469 11.2723 17.1289 11.0871C18.119 10.099 18.1792 9.22336 18.2275 8.51981C18.2334 8.43337 18.2394 8.35036 18.2467 8.27011L18.3229 8.21517C18.359 8.1892 18.4016 8.17547 18.4462 8.17547H20.138C20.601 8.71753 20.8576 9.4027 20.8625 10.1166ZM21.455 7.47234H18.4462C18.2532 7.47234 18.0684 7.53192 17.9119 7.6447L17.7019 7.79606C17.7011 7.79662 17.7003 7.79719 17.6995 7.79775L15.7531 9.20044V8.38148C15.7531 7.88016 15.3439 7.4723 14.841 7.4723H14.1684C13.8987 7.4723 13.6793 7.25475 13.6793 6.98742V5.67188C13.6793 5.47772 13.5218 5.32031 13.3277 5.32031C13.1335 5.32031 12.9761 5.47772 12.9761 5.67188V6.98742C12.9761 7.41469 13.2037 7.78983 13.5444 7.99917C13.531 8.12545 13.5146 8.24859 13.4946 8.36648C13.3954 8.95111 13.0539 9.48187 12.5576 9.8227C11.6821 10.4389 10.5025 10.2833 9.67116 9.59527V6.41644C10.4255 5.42161 10.0481 3.8392 9.25528 2.91628C10.387 2.51034 11.7017 2.28155 12.9761 2.30836V4.03125C12.9761 4.22541 13.1335 4.38281 13.3276 4.38281C13.5218 4.38281 13.6792 4.22541 13.6792 4.03125V1.188C13.6792 0.920625 13.8987 0.703125 14.1684 0.703125H21.4549C21.7246 0.703125 21.9441 0.920672 21.9441 1.188V6.98742C21.9442 7.2548 21.7247 7.47234 21.455 7.47234Z" fill="black"/>
<path d="M19.9832 2.33217H18.1633V1.73437C18.1633 1.54022 18.0059 1.38281 17.8117 1.38281C17.6176 1.38281 17.4602 1.54022 17.4602 1.73437V2.33217H15.6403C15.4461 2.33217 15.2887 2.48958 15.2887 2.68373C15.2887 2.87789 15.4461 3.0353 15.6403 3.0353H16.3692C16.538 3.78347 16.8719 4.4715 17.3369 5.05669C16.9811 5.39639 16.5648 5.67802 16.1006 5.88492L15.6162 6.10078C15.4388 6.17981 15.3591 6.38766 15.4382 6.56498C15.4965 6.69586 15.6249 6.77353 15.7595 6.77353C15.8073 6.77353 15.8559 6.76373 15.9024 6.74302L16.3867 6.52716C16.9211 6.28903 17.4009 5.96573 17.8117 5.57592C18.2226 5.96573 18.7024 6.28903 19.2367 6.52716L19.7211 6.74302C19.8447 6.7942 20.0764 6.77986 20.1853 6.56498C20.2643 6.38766 20.1847 6.17981 20.0073 6.10078L19.5229 5.88492C19.0587 5.67806 18.6424 5.39639 18.2866 5.05669C18.7516 4.4715 19.0854 3.78347 19.2542 3.0353H19.9832C20.1773 3.0353 20.3347 2.87789 20.3347 2.68373C20.3347 2.48958 20.1774 2.33217 19.9832 2.33217ZM17.8117 4.52091C17.4823 4.08089 17.2365 3.57811 17.0929 3.0353H18.5305C18.3869 3.57811 18.1412 4.08089 17.8117 4.52091Z" fill="black"/>
<path d="M3.04609 11.4851C3.22778 11.5536 3.43065 11.4619 3.49914 11.2803L3.80425 10.4718H5.86417L6.17246 11.2813C6.2259 11.4216 6.3594 11.5079 6.50106 11.5079C6.54264 11.5079 6.58496 11.5004 6.62612 11.4848C6.80757 11.4157 6.89861 11.2125 6.82951 11.0311L5.24542 6.87178C5.24439 6.86911 5.24336 6.86644 5.24228 6.86377C5.17328 6.69516 5.011 6.58613 4.82884 6.58594C4.82865 6.58594 4.82856 6.58594 4.82837 6.58594C4.64645 6.58594 4.48412 6.69464 4.41484 6.86292C4.41353 6.86611 4.41226 6.86934 4.411 6.87262L2.84129 11.0321C2.77271 11.2137 2.8644 11.4165 3.04609 11.4851ZM4.82945 7.75509L5.59637 9.7687H4.06956L4.82945 7.75509Z" fill="black"/>
<path d="M18.5102 13.7344H16.8747C16.6805 13.7344 16.5231 13.8918 16.5231 14.0859C16.5231 14.2801 16.6805 14.4375 16.8747 14.4375H17.3409V15.5391H15.9424C16.0241 15.3727 16.0701 15.1858 16.0701 14.9883C16.0701 14.2969 15.5076 13.7344 14.8162 13.7344H13.8011C13.6069 13.7344 13.4495 13.8918 13.4495 14.0859C13.4495 14.2801 13.6069 14.4375 13.8011 14.4375H14.8162C15.1199 14.4375 15.367 14.6846 15.367 14.9883C15.367 15.292 15.1199 15.5391 14.8162 15.5391H13.6883C13.4941 15.5391 13.3367 15.6965 13.3367 15.8906C13.3367 16.0848 13.4941 16.2422 13.6883 16.2422H14.8162C15.1199 16.2422 15.367 16.4893 15.367 16.793C15.367 17.1018 15.1251 17.3438 14.8162 17.3438C14.3305 17.3438 13.7791 17.289 13.3729 16.8828C13.2356 16.7455 13.013 16.7455 12.8757 16.8828C12.7384 17.0201 12.7384 17.2427 12.8757 17.3799C13.4669 17.9711 14.2233 18.0469 14.8162 18.0469C15.5076 18.0469 16.0701 17.4844 16.0701 16.793C16.0701 16.5955 16.0241 16.4085 15.9424 16.2422H17.3409V17.6953C17.3409 17.8895 17.4983 18.0469 17.6924 18.0469C17.8866 18.0469 18.044 17.8895 18.044 17.6953V14.4375H18.5102C18.7043 14.4375 18.8617 14.2801 18.8617 14.0859C18.8617 13.8918 18.7044 13.7344 18.5102 13.7344Z" fill="black"/>
</svg>
