<svg width="24" height="24" viewBox="0 0 24 24" fill="none" xmlns="http://www.w3.org/2000/svg">
<path d="M9 2.625H15C15.2984 2.625 15.5845 2.74353 15.7955 2.9545C16.0065 3.16548 16.125 3.45163 16.125 3.75V7.875H7.875V3.75C7.875 3.45163 7.99353 3.16548 8.2045 2.9545C8.41548 2.74353 8.70163 2.625 9 2.625Z" fill="#C7C7C5"/>
<path d="M17.7463 14.7495L16.875 14.625L15 14.25L13.875 13.5V10.5H10.125V13.5L9 14.25L7.125 14.625L6.25373 14.7495C5.75385 14.8208 5.2925 15.0583 4.94391 15.4236C4.59531 15.7889 4.37974 16.2609 4.33186 16.7635L3.75 22.875H20.25L19.668 16.7635C19.6201 16.2609 19.4045 15.7889 19.056 15.4236C18.7074 15.0583 18.2461 14.8209 17.7463 14.7495Z" fill="#FEC9A3"/>
<path d="M13.875 12.1809V10.5H10.125V12.1807C10.6799 12.5518 11.3325 12.7499 12 12.7499C12.6675 12.7499 13.3201 12.5518 13.875 12.1807V12.1809Z" fill="#FEB784"/>
<path d="M20.25 23.25H3.75L4.33219 16.7634C4.37995 16.2608 4.59544 15.7889 4.94396 15.4236C5.29249 15.0584 5.75378 14.821 6.25359 14.7497L9 14.25L12 21.75L15 14.25L17.7464 14.7497C18.2462 14.821 18.7075 15.0584 19.056 15.4236C19.4046 15.7889 19.62 16.2608 19.6678 16.7634L20.25 23.25Z" fill="#3D4D63"/>
<path d="M16.875 14.625V22.875H7.125V14.625L9 14.25L9.75 12.75L12 13.875L14.25 12.75L15 14.25L16.875 14.625Z" fill="#3D4D63"/>
<path d="M15.375 5.625V8.625C15.3749 9.52008 15.0193 10.3785 14.3864 11.0114C13.7535 11.6443 12.8951 11.9999 12 12C11.8983 12 11.7977 11.9955 11.6981 11.9864C10.8587 11.911 10.0778 11.5242 9.50915 10.9022C8.94046 10.2801 8.62507 9.46782 8.625 8.625V5.625C8.625 4.82935 8.94107 4.06629 9.50368 3.50368C10.0663 2.94107 10.8294 2.625 11.625 2.625H12.375C13.1706 2.625 13.9337 2.94107 14.4963 3.50368C15.0589 4.06629 15.375 4.82935 15.375 5.625Z" fill="#FEC9A3"/>
<path d="M15.375 5.625V8.625C15.3749 9.52008 15.0193 10.3785 14.3864 11.0114C13.7535 11.6443 12.8951 11.9999 12 12C11.8983 12 11.7976 11.9955 11.6981 11.9864C12.242 11.7 12.6973 11.2704 13.0149 10.7441C13.3324 10.2178 13.5002 9.6147 13.5 9V5.625C13.4997 5.00545 13.329 4.39792 13.0067 3.86882C12.6843 3.33973 12.2227 2.90944 11.6723 2.625H12.375C13.1706 2.625 13.9337 2.94107 14.4963 3.50368C15.0589 4.06629 15.375 4.82935 15.375 5.625Z" fill="#FEC093"/>
<path d="M14.625 1.875C14.8239 1.875 15.0147 1.95402 15.1553 2.09467C15.296 2.23532 15.375 2.42609 15.375 2.625V4.125H13.875V2.625C13.875 2.42609 13.954 2.23532 14.0947 2.09467C14.2353 1.95402 14.4261 1.875 14.625 1.875Z" fill="#C7C7C5"/>
<path d="M9.375 1.875C9.57391 1.875 9.76468 1.95402 9.90533 2.09467C10.046 2.23532 10.125 2.42609 10.125 2.625V4.125H8.625V2.625C8.625 2.42609 8.70402 2.23532 8.84467 2.09467C8.98532 1.95402 9.17609 1.875 9.375 1.875Z" fill="#C7C7C5"/>
<path d="M15.375 6C15.375 5.60218 15.217 5.22064 14.9357 4.93934C14.6544 4.65804 14.2728 4.5 13.875 4.5V4.125C13.875 3.92609 13.954 3.73532 14.0947 3.59467C14.2353 3.45402 14.4261 3.375 14.625 3.375C14.8239 3.375 15.0147 3.45402 15.1553 3.59467C15.296 3.73532 15.375 3.92609 15.375 4.125V6Z" fill="#D6D6D4"/>
<path d="M10.125 4.5C9.72718 4.5 9.34564 4.65804 9.06434 4.93934C8.78304 5.22064 8.625 5.60218 8.625 6V4.125C8.625 3.92609 8.70402 3.73532 8.84467 3.59467C8.98532 3.45402 9.17609 3.375 9.375 3.375C9.57391 3.375 9.76468 3.45402 9.90533 3.59467C10.046 3.73532 10.125 3.92609 10.125 4.125V4.5Z" fill="#D6D6D4"/>
<path d="M7.875 4.875C8.28921 4.875 8.625 4.53921 8.625 4.125C8.625 3.71079 8.28921 3.375 7.875 3.375C7.46079 3.375 7.125 3.71079 7.125 4.125C7.125 4.53921 7.46079 4.875 7.875 4.875Z" fill="#D6D6D4"/>
<path d="M7.875 6.375C8.28921 6.375 8.625 6.03921 8.625 5.625C8.625 5.21079 8.28921 4.875 7.875 4.875C7.46079 4.875 7.125 5.21079 7.125 5.625C7.125 6.03921 7.46079 6.375 7.875 6.375Z" fill="#D6D6D4"/>
<path d="M7.875 7.875C8.28921 7.875 8.625 7.53921 8.625 7.125C8.625 6.71079 8.28921 6.375 7.875 6.375C7.46079 6.375 7.125 6.71079 7.125 7.125C7.125 7.53921 7.46079 7.875 7.875 7.875Z" fill="#D6D6D4"/>
<path d="M16.125 4.875C16.5392 4.875 16.875 4.53921 16.875 4.125C16.875 3.71079 16.5392 3.375 16.125 3.375C15.7108 3.375 15.375 3.71079 15.375 4.125C15.375 4.53921 15.7108 4.875 16.125 4.875Z" fill="#D6D6D4"/>
<path d="M16.125 6.375C16.5392 6.375 16.875 6.03921 16.875 5.625C16.875 5.21079 16.5392 4.875 16.125 4.875C15.7108 4.875 15.375 5.21079 15.375 5.625C15.375 6.03921 15.7108 6.375 16.125 6.375Z" fill="#D6D6D4"/>
<path d="M16.125 7.875C16.5392 7.875 16.875 7.53921 16.875 7.125C16.875 6.71079 16.5392 6.375 16.125 6.375C15.7108 6.375 15.375 6.71079 15.375 7.125C15.375 7.53921 15.7108 7.875 16.125 7.875Z" fill="#D6D6D4"/>
<path d="M13.5 1.125C13.3011 1.125 13.1103 1.20402 12.9697 1.34467C12.829 1.48532 12.75 1.67609 12.75 1.875C12.75 1.67609 12.671 1.48532 12.5303 1.34467C12.3897 1.20402 12.1989 1.125 12 1.125C11.8011 1.125 11.6103 1.20402 11.4697 1.34467C11.329 1.48532 11.25 1.67609 11.25 1.875C11.25 1.67609 11.171 1.48532 11.0303 1.34467C10.8897 1.20402 10.6989 1.125 10.5 1.125C10.3011 1.125 10.1103 1.20402 9.96967 1.34467C9.82902 1.48532 9.75 1.67609 9.75 1.875V3.375H14.25V1.875C14.25 1.67609 14.171 1.48532 14.0303 1.34467C13.8897 1.20402 13.6989 1.125 13.5 1.125Z" fill="#D6D6D4"/>
<path d="M13.5 2.625C13.3011 2.625 13.1103 2.70402 12.9697 2.84467C12.829 2.98532 12.75 3.17609 12.75 3.375C12.75 3.17609 12.671 2.98532 12.5303 2.84467C12.3897 2.70402 12.1989 2.625 12 2.625C11.8011 2.625 11.6103 2.70402 11.4697 2.84467C11.329 2.98532 11.25 3.17609 11.25 3.375C11.25 3.17609 11.171 2.98532 11.0303 2.84467C10.8897 2.70402 10.6989 2.625 10.5 2.625C10.3011 2.625 10.1103 2.70402 9.96967 2.84467C9.82902 2.98532 9.75 3.17609 9.75 3.375V4.5H14.25V3.375C14.25 3.17609 14.171 2.98532 14.0303 2.84467C13.8897 2.70402 13.6989 2.625 13.5 2.625Z" fill="#E0E0DE"/>
<path d="M14.25 12.75L15 14.25L12 21.75L9 14.25L9.75 12.75L12 13.875L14.25 12.75Z" fill="#C7C7C5"/>
<path d="M9 14.25L7.125 14.625L10.5 22.875H12V21.75L9 14.25Z" fill="#4C5D72"/>
<path d="M15 14.25L16.875 14.625L13.5 22.875H12V21.75L15 14.25Z" fill="#4C5D72"/>
<path d="M12 13.875L11.25 18.375L9.75 18L10.5 14.625L12 13.875Z" fill="#D6D6D4"/>
<path d="M12 13.875L12.75 18.375L14.25 18L13.5 14.625L12 13.875Z" fill="#D6D6D4"/>
<path d="M12 13.875L10.5 14.625L9.75 12.75L12 13.875Z" fill="#E0E0DE"/>
<path d="M14.25 12.75L12 13.875L13.5 14.625L14.25 12.75Z" fill="#E0E0DE"/>
<path d="M3.49213 9.70996L1.13455 10.0234L2.88585 20.7426C2.93322 21.05 3.09918 21.3266 3.34813 21.513C3.59708 21.6995 3.9092 21.781 4.21752 21.74C4.37436 21.7191 4.52545 21.6672 4.66196 21.5872C4.79846 21.5072 4.91762 21.4007 5.01247 21.2741C5.10731 21.1475 5.17592 21.0032 5.21429 20.8497C5.25265 20.6962 5.25999 20.5366 5.23588 20.3802L3.49213 9.70996Z" fill="#E0E0DE"/>
<path d="M3.49225 9.70959C3.40937 9.02962 2.81444 8.54849 2.16344 8.63507C1.51244 8.72165 1.0518 9.34288 1.13467 10.023C1.21755 10.7031 1.81244 11.1841 2.46348 11.0976C3.11453 11.011 3.57512 10.3896 3.49225 9.70959Z" fill="#BFBFBD"/>
<path d="M5.70703 20.972L3.46734 22.8752H1.125V18.6569C1.12516 18.5499 1.1566 18.4453 1.21547 18.3559C1.27516 18.2659 1.35943 18.1948 1.45828 18.1511C1.53362 18.117 1.61546 18.0997 1.69815 18.1003C1.78083 18.101 1.8624 18.1196 1.93719 18.1548C2.01199 18.1901 2.07823 18.2412 2.13135 18.3046C2.18447 18.3679 2.22319 18.4421 2.24484 18.5219L2.46984 19.4008L3.8775 18.1905C3.96763 18.1132 4.07401 18.0572 4.18875 18.0266C4.30349 17.9961 4.42364 17.9918 4.54027 18.014C4.65691 18.0362 4.76703 18.0845 4.86247 18.1551C4.95791 18.2258 5.03621 18.317 5.09156 18.422L5.55375 19.3248L5.9175 20.0355C5.9972 20.1916 6.01979 20.3707 5.98135 20.5418C5.94292 20.7128 5.84587 20.865 5.70703 20.972Z" fill="#FEC9A3"/>
<path d="M5.70703 20.9719L3.46734 22.875H1.125V22.6922C2.76076 21.7966 4.25349 20.6616 5.55375 19.3247L5.9175 20.0353C5.9972 20.1915 6.01979 20.3706 5.98135 20.5416C5.94292 20.7127 5.84587 20.8649 5.70703 20.9719Z" fill="#FEC093"/>
<path d="M22.125 13.5V20.625C22.125 20.8239 22.046 21.0147 21.9053 21.1553C21.7647 21.296 21.5739 21.375 21.375 21.375H15.75V14.25C15.8485 14.1515 15.9267 14.0346 15.98 13.9059C16.0333 13.7772 16.0608 13.6393 16.0608 13.5C16.0608 13.3607 16.0333 13.2228 15.98 13.0941C15.9267 12.9654 15.8485 12.8485 15.75 12.75H21.375C21.4044 12.7501 21.4339 12.7518 21.4631 12.7552C21.6455 12.7767 21.8136 12.8645 21.9356 13.0018C22.0576 13.1391 22.125 13.3163 22.125 13.5Z" fill="#95573A"/>
<path d="M22.125 13.5002V20.6252C22.125 20.8241 22.0459 21.0149 21.9053 21.1555C21.7646 21.2962 21.5739 21.3752 21.375 21.3752H17.7468C19.0003 19.8822 20.5982 17.2137 21.4631 12.7554C21.6455 12.777 21.8136 12.8647 21.9356 13.002C22.0576 13.1393 22.125 13.3166 22.125 13.5002Z" fill="#8F4D2E"/>
<path d="M21.375 12.75H15.75C15.8485 12.8485 15.9266 12.9654 15.9799 13.0941C16.0332 13.2228 16.0607 13.3607 16.0607 13.5C16.0607 13.6393 16.0332 13.7772 15.9799 13.9059C15.9266 14.0346 15.8485 14.1515 15.75 14.25H21.375C21.5739 14.25 21.7647 14.171 21.9053 14.0303C22.046 13.8897 22.125 13.6989 22.125 13.5C22.125 13.3011 22.046 13.1103 21.9053 12.9697C21.7647 12.829 21.5739 12.75 21.375 12.75Z" fill="#E0E0DE"/>
<path d="M22.875 18.6569V22.8752H20.5326L20.2008 22.5934L18.2929 20.972C18.1541 20.865 18.0571 20.7128 18.0186 20.5418C17.9802 20.3707 18.0028 20.1916 18.0825 20.0355L18.9084 18.422C18.9638 18.317 19.0421 18.2258 19.1375 18.1551C19.2329 18.0845 19.3431 18.0362 19.4597 18.014C19.5763 17.9918 19.6965 17.9961 19.8112 18.0266C19.926 18.0572 20.0323 18.1132 20.1225 18.1905L21.5301 19.4008L21.7551 18.5219C21.7768 18.4421 21.8155 18.3679 21.8686 18.3046C21.9217 18.2412 21.988 18.1901 22.0628 18.1548C22.1376 18.1196 22.2191 18.101 22.3018 18.1003C22.3845 18.0997 22.4664 18.117 22.5417 18.1511C22.6406 18.1948 22.7248 18.2659 22.7845 18.3559C22.8434 18.4453 22.8748 18.5499 22.875 18.6569Z" fill="#FEC9A3"/>
<path d="M22.875 18.9971V22.875H20.5327L20.2008 22.5933C21.075 21.7252 22.0257 20.5514 22.875 18.9971Z" fill="#FEC093"/>
<path d="M10.3125 7.5C10.6232 7.5 10.875 7.24816 10.875 6.9375C10.875 6.62684 10.6232 6.375 10.3125 6.375C10.0018 6.375 9.75 6.62684 9.75 6.9375C9.75 7.24816 10.0018 7.5 10.3125 7.5Z" fill="black"/>
<path d="M13.6875 7.5C13.9982 7.5 14.25 7.24816 14.25 6.9375C14.25 6.62684 13.9982 6.375 13.6875 6.375C13.3768 6.375 13.125 6.62684 13.125 6.9375C13.125 7.24816 13.3768 7.5 13.6875 7.5Z" fill="black"/>
<path d="M10.875 9.75018H11.573C12.2246 9.75018 12.8429 9.59886 13.314 9.32408L12.936 8.67627C12.5831 8.8821 12.0863 9.00018 11.573 9.00018H10.875V9.75018Z" fill="black"/>
<path d="M22.6937 17.8082C22.6315 17.7807 22.5666 17.7598 22.5 17.746V13.5001C22.4997 13.2019 22.381 12.9159 22.1701 12.705C21.9592 12.4941 21.6733 12.3755 21.375 12.3751H15.75C15.6758 12.3751 15.6033 12.3971 15.5417 12.4384C15.48 12.4796 15.4319 12.5381 15.4036 12.6067C15.3752 12.6752 15.3678 12.7506 15.3822 12.8233C15.3967 12.8961 15.4324 12.9629 15.4849 13.0153C15.6107 13.141 15.6827 13.3106 15.6856 13.4884C15.6885 13.6662 15.6221 13.8381 15.5004 13.9678L15.2534 13.9184L14.5854 12.5824C14.5542 12.5202 14.5064 12.4678 14.4471 12.4313C14.3879 12.3947 14.3196 12.3754 14.25 12.3755V11.6248C14.716 11.2758 15.0941 10.8229 15.3545 10.3022C15.6149 9.78154 15.7503 9.20731 15.75 8.62514V8.18564C15.9855 8.26913 16.2421 8.27178 16.4793 8.19318C16.7165 8.11458 16.9208 7.9592 17.0598 7.75159C17.1989 7.54397 17.2648 7.29595 17.2472 7.0467C17.2296 6.79744 17.1295 6.56115 16.9626 6.37514C17.1476 6.16915 17.25 5.90204 17.25 5.62514C17.25 5.34825 17.1476 5.08113 16.9626 4.87514C17.1294 4.68911 17.2294 4.45284 17.247 4.20362C17.2646 3.95441 17.1986 3.70644 17.0596 3.49886C16.9206 3.29128 16.7164 3.13592 16.4792 3.05729C16.2421 2.97866 15.9855 2.98125 15.75 3.06464V2.62514C15.7501 2.47737 15.7211 2.33102 15.6646 2.19447C15.6082 2.05791 15.5253 1.93384 15.4208 1.82935C15.3163 1.72485 15.1922 1.64199 15.0557 1.5855C14.9191 1.52902 14.7728 1.50001 14.625 1.50014C14.6039 1.50014 14.5828 1.50104 14.5619 1.50221C14.5006 1.32772 14.3973 1.17104 14.261 1.04603C14.1248 0.921015 13.9598 0.831539 13.7807 0.785522C13.6016 0.739505 13.4139 0.738368 13.2342 0.782212C13.0546 0.826056 12.8885 0.913528 12.7507 1.03688C12.5446 0.852251 12.2775 0.750164 12.0007 0.750164C11.724 0.750164 11.4569 0.852251 11.2508 1.03688C11.1129 0.913476 10.9468 0.825963 10.7671 0.782092C10.5874 0.738221 10.3996 0.739346 10.2204 0.785367C10.0413 0.831387 9.87619 0.920883 9.73986 1.04593C9.60353 1.17097 9.50014 1.32771 9.43884 1.50225C9.41761 1.50104 9.39638 1.50014 9.37505 1.50014C9.07678 1.50048 8.79083 1.61911 8.57992 1.83002C8.36902 2.04093 8.25038 2.32688 8.25005 2.62514V3.06464C8.01453 2.98114 7.7579 2.97848 7.52069 3.05707C7.28349 3.13567 7.07923 3.29104 6.94017 3.49866C6.8011 3.70628 6.73517 3.95431 6.75278 4.20357C6.77038 4.45284 6.87053 4.68913 7.03739 4.87514C6.85236 5.08113 6.75 5.34825 6.75 5.62514C6.75 5.90204 6.85236 6.16915 7.03739 6.37514C6.87063 6.56117 6.77057 6.79745 6.75301 7.04666C6.73545 7.29588 6.80138 7.54385 6.94041 7.75143C7.07944 7.95901 7.28364 8.11437 7.52078 8.193C7.75792 8.27163 8.01449 8.26904 8.25 8.18564V8.62514C8.24969 9.20731 8.38511 9.78154 8.64549 10.3022C8.90587 10.8229 9.28405 11.2758 9.75 11.6248V12.3755C9.68039 12.3754 9.61214 12.3947 9.5529 12.4313C9.49366 12.4678 9.44577 12.5202 9.41461 12.5824L8.74664 13.9184L6.20072 14.3786C5.65511 14.4553 5.14766 14.7023 4.75078 15.0845L3.8625 9.64936C3.83642 9.43841 3.76892 9.2347 3.66389 9.0499C3.55886 8.86511 3.41835 8.70289 3.25045 8.57255C3.09121 8.44792 2.90866 8.35638 2.71353 8.30331C2.5184 8.25023 2.31464 8.2367 2.1142 8.2635C1.26145 8.37685 0.655172 9.18657 0.762609 10.0685C0.767531 10.109 0.774328 10.1489 0.782016 10.1884C0.782438 10.1907 0.782672 10.1931 0.783141 10.1954L2.02312 17.7851C1.79028 17.6992 1.53309 17.7075 1.30627 17.8082C1.14145 17.8807 1.00118 17.9995 0.902453 18.15C0.803724 18.3006 0.750769 18.4766 0.75 18.6566V22.8754C0.75 22.9748 0.789509 23.0702 0.859835 23.1405C0.930161 23.2109 1.02554 23.2504 1.125 23.2504H3.4672C3.55613 23.2504 3.64217 23.2188 3.70997 23.1613L5.25 21.8525V23.2501H6V21.2143C6.18434 21.0482 6.30883 20.826 6.35425 20.5821C6.39968 20.3381 6.36349 20.086 6.2513 19.8647L6 19.3736V16.8751H5.25V17.9991C5.24062 17.989 5.23125 17.9791 5.22188 17.9694L4.91625 16.0971C5.05423 15.8359 5.25223 15.6113 5.49396 15.4416C5.7357 15.2719 6.01427 15.1621 6.30675 15.1211L6.75 15.0576V23.2501H7.5V16.5322L10.1531 23.0171L10.8472 22.7332L7.64414 14.9038L8.76764 14.679L9.62658 16.8269L9.38391 17.9188C9.36266 18.0143 9.37953 18.1142 9.43093 18.1974C9.48233 18.2806 9.56419 18.3404 9.65906 18.3641L10.3064 18.526L11.625 21.8224V22.8751H12.375V21.8224L13.6936 18.5258L14.3409 18.3639C14.4358 18.3402 14.5177 18.2804 14.5691 18.1972C14.6205 18.114 14.6373 18.0141 14.6161 17.9186L14.3734 16.8267L15.2324 14.6789L15.375 14.7074V17.3017L13.1531 22.7332L13.8472 23.0171L15.375 19.2823V21.3751C15.375 21.4746 15.4145 21.57 15.4848 21.6403C15.5552 21.7106 15.6505 21.7501 15.75 21.7501H16.5V23.2501H17.25V21.7501H18V23.2501H18.75V21.8525L20.29 23.1611C20.3578 23.2186 20.4439 23.2502 20.5328 23.2501H22.875C22.9745 23.2501 23.0698 23.2106 23.1402 23.1403C23.2105 23.07 23.25 22.9746 23.25 22.8751V18.6566C23.2492 18.4766 23.1963 18.3006 23.0975 18.15C22.9988 17.9994 22.8585 17.8807 22.6937 17.8082ZM16.125 3.75014C16.1992 3.75014 16.2717 3.77214 16.3333 3.81334C16.395 3.85455 16.4431 3.91312 16.4715 3.98164C16.4998 4.05016 16.5073 4.12556 16.4928 4.1983C16.4783 4.27105 16.4426 4.33786 16.3902 4.39031C16.3377 4.44275 16.2709 4.47847 16.1982 4.49294C16.1254 4.50741 16.05 4.49998 15.9815 4.4716C15.913 4.44322 15.8544 4.39515 15.8132 4.33348C15.772 4.27181 15.75 4.19931 15.75 4.12514C15.7501 4.02572 15.7897 3.9304 15.86 3.8601C15.9303 3.7898 16.0256 3.75026 16.125 3.75014ZM16.125 5.25014C16.1992 5.25014 16.2717 5.27214 16.3333 5.31334C16.395 5.35455 16.4431 5.41312 16.4715 5.48164C16.4998 5.55016 16.5073 5.62556 16.4928 5.6983C16.4783 5.77105 16.4426 5.83786 16.3902 5.89031C16.3377 5.94275 16.2709 5.97847 16.1982 5.99294C16.1254 6.00741 16.05 5.99998 15.9815 5.9716C15.913 5.94322 15.8544 5.89515 15.8132 5.83348C15.772 5.77181 15.75 5.69931 15.75 5.62514C15.7501 5.52572 15.7897 5.4304 15.86 5.3601C15.9303 5.2898 16.0256 5.25026 16.125 5.25014ZM16.125 6.75014C16.1992 6.75014 16.2717 6.77214 16.3333 6.81334C16.395 6.85455 16.4431 6.91312 16.4715 6.98164C16.4998 7.05016 16.5073 7.12556 16.4928 7.1983C16.4783 7.27105 16.4426 7.33786 16.3902 7.39031C16.3377 7.44275 16.2709 7.47847 16.1982 7.49294C16.1254 7.50741 16.05 7.49998 15.9815 7.4716C15.913 7.44322 15.8544 7.39515 15.8132 7.33348C15.772 7.27181 15.75 7.19931 15.75 7.12514C15.7501 7.02572 15.7897 6.9304 15.86 6.8601C15.9303 6.7898 16.0256 6.75026 16.125 6.75014ZM7.875 7.50014C7.80083 7.50014 7.72833 7.47815 7.66666 7.43695C7.60499 7.39574 7.55693 7.33717 7.52855 7.26865C7.50016 7.20013 7.49274 7.12473 7.50721 7.05198C7.52168 6.97924 7.55739 6.91242 7.60983 6.85998C7.66228 6.80753 7.7291 6.77182 7.80184 6.75735C7.87458 6.74288 7.94998 6.75031 8.01851 6.77869C8.08703 6.80707 8.1456 6.85514 8.1868 6.9168C8.22801 6.97847 8.25 7.05098 8.25 7.12514C8.24989 7.22457 8.21034 7.31988 8.14004 7.39019C8.06974 7.46049 7.97442 7.50003 7.875 7.50014ZM7.875 6.00014C7.80083 6.00014 7.72833 5.97815 7.66666 5.93694C7.60499 5.89574 7.55693 5.83717 7.52855 5.76865C7.50016 5.70013 7.49274 5.62473 7.50721 5.55199C7.52168 5.47924 7.55739 5.41242 7.60983 5.35998C7.66228 5.30753 7.7291 5.27182 7.80184 5.25735C7.87458 5.24288 7.94998 5.25031 8.01851 5.27869C8.08703 5.30707 8.1456 5.35514 8.1868 5.41681C8.22801 5.47847 8.25 5.55098 8.25 5.62514C8.24989 5.72457 8.21034 5.81988 8.14004 5.89019C8.06974 5.96049 7.97442 6.00003 7.875 6.00014ZM7.875 4.50014C7.80083 4.50014 7.72833 4.47815 7.66666 4.43695C7.60499 4.39574 7.55693 4.33717 7.52855 4.26865C7.50016 4.20013 7.49274 4.12473 7.50721 4.05199C7.52168 3.97924 7.55739 3.91242 7.60983 3.85998C7.66228 3.80753 7.7291 3.77182 7.80184 3.75735C7.87458 3.74288 7.94998 3.75031 8.01851 3.77869C8.08703 3.80707 8.1456 3.85514 8.1868 3.91681C8.22801 3.97847 8.25 4.05098 8.25 4.12514C8.24989 4.22457 8.21034 4.31988 8.14004 4.39019C8.06974 4.46049 7.97442 4.50003 7.875 4.50014ZM4.40573 17.6251C4.12235 17.6211 3.84732 17.7212 3.63281 17.9064L2.90513 18.532L2.439 15.6795L4.04433 15.412L4.40573 17.6251ZM1.50647 9.97186C1.45181 9.49842 1.76747 9.06614 2.21283 9.00694C2.31495 8.99332 2.41877 9.00036 2.51813 9.02762C2.61748 9.05489 2.71035 9.10183 2.79122 9.16566C2.88251 9.23707 2.95862 9.326 3.01508 9.42722C3.07153 9.52844 3.10721 9.63992 3.12 9.75511C3.17798 10.231 2.8613 10.6665 2.41406 10.726C2.31192 10.7394 2.20812 10.7323 2.10877 10.705C2.00942 10.6778 1.91652 10.6309 1.83553 10.5672C1.67333 10.4407 1.56167 10.2604 1.52067 10.0588L1.50647 9.97186ZM1.73438 11.3673C1.9171 11.4434 2.11302 11.4827 2.31094 11.4829C2.6904 11.4829 3.05627 11.3417 3.33727 11.0866L3.92344 14.672L2.31806 14.9392L1.73438 11.3673ZM5.5837 20.2065C5.62396 20.2851 5.63522 20.3753 5.6155 20.4613C5.59578 20.5474 5.54634 20.6237 5.47589 20.6768C5.47186 20.68 5.46788 20.6832 5.46398 20.6865L3.32939 22.5001H1.5V18.6566C1.50072 18.6217 1.51153 18.5878 1.53113 18.5589C1.55072 18.53 1.57827 18.5074 1.61044 18.4938C1.63761 18.4817 1.6671 18.4757 1.69684 18.4762C1.72658 18.4767 1.75585 18.4837 1.78261 18.4966C1.80678 18.5079 1.82818 18.5243 1.84531 18.5448C1.86243 18.5652 1.87486 18.5891 1.8817 18.6149L2.1067 19.4938C2.12252 19.5556 2.15385 19.6124 2.19771 19.6587C2.24158 19.705 2.29653 19.7394 2.35738 19.7585C2.41823 19.7777 2.48296 19.781 2.54545 19.7682C2.60793 19.7553 2.66611 19.7267 2.71448 19.6852L4.12209 18.4748C4.17007 18.4337 4.22681 18.404 4.28798 18.3882C4.34915 18.3723 4.41314 18.3706 4.47506 18.3832C4.53505 18.3943 4.59172 18.419 4.64074 18.4553C4.68977 18.4916 4.72985 18.5386 4.75795 18.5928L5.5837 20.2065ZM14.625 2.25014C14.6743 2.25001 14.7231 2.25963 14.7687 2.27842C14.8142 2.29722 14.8556 2.32484 14.8905 2.35969C14.9253 2.39454 14.9529 2.43593 14.9717 2.48148C14.9905 2.52704 15.0001 2.57586 15 2.62514V3.06394C14.8795 3.02157 14.7527 3 14.625 3.00014V2.25014ZM14.625 3.75014C14.6743 3.75001 14.7231 3.75963 14.7687 3.77842C14.8142 3.79722 14.8556 3.82484 14.8905 3.85969C14.9253 3.89454 14.9529 3.93593 14.9717 3.98148C14.9905 4.02704 15.0001 4.07586 15 4.12514V4.50103C14.8839 4.41372 14.7581 4.34018 14.625 4.28189V3.75014ZM13.125 1.87514C13.125 1.77569 13.1645 1.68031 13.2348 1.60998C13.3052 1.53965 13.4005 1.50014 13.5 1.50014C13.5995 1.50014 13.6948 1.53965 13.7652 1.60998C13.8355 1.68031 13.875 1.77569 13.875 1.87514V2.31464C13.6324 2.22865 13.3676 2.22865 13.125 2.31464V1.87514ZM13.125 3.37514C13.125 3.27569 13.1645 3.18031 13.2348 3.10998C13.3052 3.03965 13.4005 3.00014 13.5 3.00014C13.5995 3.00014 13.6948 3.03965 13.7652 3.10998C13.8355 3.18031 13.875 3.27569 13.875 3.37514V4.12514H13.125V3.37514ZM11.625 1.87514C11.625 1.77569 11.6645 1.68031 11.7348 1.60998C11.8052 1.53965 11.9005 1.50014 12 1.50014C12.0995 1.50014 12.1948 1.53965 12.2652 1.60998C12.3355 1.68031 12.375 1.77569 12.375 1.87514V2.31464C12.1324 2.22865 11.8676 2.22865 11.625 2.31464V1.87514ZM11.625 3.37514C11.625 3.27569 11.6645 3.18031 11.7348 3.10998C11.8052 3.03965 11.9005 3.00014 12 3.00014C12.0995 3.00014 12.1948 3.03965 12.2652 3.10998C12.3355 3.18031 12.375 3.27569 12.375 3.37514V4.12514H11.625V3.37514ZM10.125 1.87514C10.125 1.77569 10.1645 1.68031 10.2348 1.60998C10.3052 1.53965 10.4005 1.50014 10.5 1.50014C10.5995 1.50014 10.6948 1.53965 10.7652 1.60998C10.8355 1.68031 10.875 1.77569 10.875 1.87514V2.31464C10.6324 2.22865 10.3676 2.22865 10.125 2.31464V1.87514ZM10.125 3.37514C10.125 3.27569 10.1645 3.18031 10.2348 3.10998C10.3052 3.03965 10.4005 3.00014 10.5 3.00014C10.5995 3.00014 10.6948 3.03965 10.7652 3.10998C10.8355 3.18031 10.875 3.27569 10.875 3.37514V4.12514H10.125V3.37514ZM9 2.62514C9.00011 2.52572 9.03966 2.4304 9.10996 2.3601C9.18026 2.2898 9.27558 2.25026 9.375 2.25014V3.00014C9.24724 3.00009 9.12041 3.02191 9 3.06464V2.62514ZM9 4.12514C9.00011 4.02572 9.03966 3.9304 9.10996 3.8601C9.18026 3.7898 9.27558 3.75026 9.375 3.75014V4.28189C9.24194 4.34018 9.1161 4.41372 9 4.50103V4.12514ZM9 8.62514V6.00014C9.00035 5.70188 9.11899 5.41594 9.32989 5.20503C9.54079 4.99413 9.82674 4.87549 10.125 4.87514H13.875C14.1733 4.87548 14.4592 4.99411 14.6701 5.20502C14.881 5.41593 14.9997 5.70188 15 6.00014V8.62514C15 9.42079 14.6839 10.1839 14.1213 10.7465C13.5587 11.3091 12.7956 11.6251 12 11.6251C11.2044 11.6251 10.4413 11.3091 9.87868 10.7465C9.31607 10.1839 9 9.42079 9 8.62514ZM10.5 12.7059V12.0625C10.9732 12.2687 11.4838 12.3751 12 12.3751C12.5162 12.3751 13.0268 12.2687 13.5 12.0625V12.7059L12 13.4559L10.5 12.7059ZM11.1615 13.8751L10.6968 14.1075L10.4645 13.5266L11.1615 13.8751ZM13.5355 13.5266L13.3031 14.1075L12.8385 13.8751L13.5355 13.5266ZM9.91509 15.5286L9.41067 14.2673L9.71194 13.6648L10.1088 14.6569L9.91509 15.5286ZM10.1953 17.7249L10.8273 14.8808L11.509 14.5399L10.9469 17.9128L10.1953 17.7249ZM12 20.7404L11.2027 18.747C11.2988 18.7593 11.396 18.7338 11.4737 18.676C11.5515 18.6181 11.6039 18.5324 11.6198 18.4368L12 16.1563L12.3801 18.4368C12.3958 18.5325 12.4482 18.6183 12.526 18.6762C12.6038 18.7341 12.7011 18.7595 12.7972 18.747L12 20.7404ZM13.0531 17.9128L12.491 14.5399L13.1727 14.8808L13.8047 17.7249L13.0531 17.9128ZM14.0849 15.5286L13.8912 14.6567L14.2881 13.6646L14.5893 14.2671L14.0849 15.5286ZM16.3865 13.1251H21.375C21.4745 13.1251 21.5698 13.1647 21.6402 13.235C21.7105 13.3053 21.75 13.4007 21.75 13.5001C21.75 13.5996 21.7105 13.695 21.6402 13.7653C21.5698 13.8356 21.4745 13.8751 21.375 13.8751H16.3865C16.4521 13.6295 16.4521 13.3708 16.3865 13.1251ZM17.8158 21.0001H16.125V14.6251H21.375C21.5028 14.6252 21.6296 14.6034 21.75 14.5606V17.9056C21.5728 18.0325 21.446 18.2178 21.3917 18.429L21.3167 18.7226L20.3672 17.9064C20.2333 17.791 20.0749 17.7077 19.904 17.6628C19.733 17.618 19.5541 17.6127 19.3808 17.6475C19.2094 17.6801 19.0476 17.7515 18.9078 17.8561C18.7681 17.9607 18.6541 18.0959 18.5746 18.2513L17.7487 19.8649C17.6582 20.0431 17.6168 20.2421 17.6286 20.4416C17.6404 20.6411 17.705 20.8339 17.8158 21.0001ZM22.5 22.5001H20.6706L18.5359 20.6865C18.532 20.6831 18.528 20.6799 18.524 20.6768C18.4535 20.6236 18.4041 20.5473 18.3844 20.4612C18.3646 20.3752 18.3759 20.285 18.4162 20.2064L19.2422 18.5928C19.2703 18.5386 19.3104 18.4916 19.3594 18.4553C19.4084 18.419 19.4651 18.3943 19.5251 18.3832C19.587 18.3706 19.651 18.3723 19.7122 18.3882C19.7733 18.404 19.8301 18.4337 19.878 18.4748L21.2857 19.6852C21.334 19.7267 21.3922 19.7553 21.4547 19.7682C21.5172 19.781 21.5819 19.7777 21.6428 19.7585C21.7036 19.7394 21.7586 19.705 21.8024 19.6587C21.8463 19.6124 21.8776 19.5556 21.8934 19.4938L22.1184 18.6149C22.1253 18.5891 22.1377 18.5652 22.1548 18.5448C22.172 18.5243 22.1934 18.5079 22.2175 18.4966C22.2443 18.4836 22.2735 18.4767 22.3033 18.4762C22.333 18.4757 22.3625 18.4817 22.3897 18.4938C22.4218 18.5074 22.4493 18.53 22.4689 18.5589C22.4885 18.5878 22.4993 18.6217 22.5 18.6566V22.5001Z" fill="black"/>
</svg>
