<svg width="24" height="24" viewBox="0 0 24 24" fill="none" xmlns="http://www.w3.org/2000/svg">
<path d="M22.9071 21.5698L21.8192 19.6879C21.7644 19.593 21.6928 19.5126 21.6124 19.4426C21.8663 18.6658 22.0031 17.8472 21.9092 17.0601C22.146 17.002 22.3228 16.7895 22.3228 16.5351V16.3731C22.3228 16.0742 22.0796 15.831 21.7808 15.831H19.6123L20.1424 14.6162L20.1624 14.6276C20.2384 14.671 20.3213 14.6918 20.403 14.6918C20.5714 14.6918 20.7354 14.604 20.8253 14.4475L20.8928 14.3295C21.0257 14.0972 20.9451 13.7998 20.7128 13.6667L19.0391 12.7084C18.9264 12.6435 18.7956 12.6266 18.6705 12.661C18.5453 12.6951 18.4408 12.7757 18.3765 12.8882L18.3088 13.0063C18.1759 13.2386 18.2565 13.536 18.4888 13.6691L18.5089 13.6806L16.9449 15.831H14.5043C14.0087 14.9905 13.3018 14.2896 12.4566 13.8011C13.1539 13.6354 13.737 13.4676 14.1047 13.3558C14.3968 13.2666 14.5652 12.9557 14.4803 12.6626C14.2843 11.985 13.8287 10.3305 13.8287 9.60114V7.05208C13.8287 4.11227 11.4371 1.7207 8.49732 1.7207C5.55751 1.7207 3.16614 4.11245 3.16614 7.05208V9.60114C3.16614 10.497 2.71839 12.0345 2.52601 12.6538C2.48139 12.798 2.49545 12.9506 2.56595 13.0836C2.63664 13.2171 2.75532 13.3146 2.90007 13.3588C3.2657 13.47 3.84507 13.6365 4.53826 13.8013C2.85114 14.7763 1.71245 16.599 1.71245 18.6838V22.4663C1.71245 22.7764 1.96482 23.0288 2.27495 23.0288H21.0049C21.2016 23.0288 21.3844 22.9691 21.5376 22.8683C21.6223 22.9232 21.7136 22.9688 21.8141 22.9956C21.8978 23.0179 21.9825 23.0291 22.0669 23.0291C22.2354 23.0291 22.4019 22.9849 22.5519 22.8981C23.0162 22.6298 23.1756 22.0339 22.9071 21.5698Z" fill="#E6E7E8"/>
<path d="M2.20477 12.4297C2.63471 12.5606 3.41077 12.7816 4.3284 12.9809C5.0199 12.6635 5.78846 12.485 6.59921 12.485H8.8959C9.70665 12.485 10.4752 12.6633 11.1667 12.9809C12.0913 12.7801 12.8722 12.557 13.3001 12.4267C13.496 12.3671 13.6072 12.1616 13.5504 11.9651C13.3419 11.2445 12.8915 9.6005 12.8915 8.85144V6.30238C12.8915 3.46157 10.5886 1.15869 7.74784 1.15869C4.90702 1.15869 2.60415 3.46157 2.60415 6.30238V8.85125C2.60415 9.761 2.16821 11.2753 1.95559 11.9598C1.89334 12.1589 2.00527 12.3691 2.20477 12.4297Z" fill="#FA759E"/>
<path d="M13.5345 21.6191V21.4033C13.5345 21.1423 13.7462 20.9306 14.0072 20.9306H14.1255C13.1966 19.4135 12.5083 17.6572 12.7706 16.1402H12.6879C12.4922 16.1402 12.3334 15.9813 12.3334 15.7856V15.6238C12.3334 15.428 12.4922 15.2692 12.6879 15.2692H13.6492C12.8091 13.7747 11.2843 12.7164 9.49987 12.5195C8.96568 12.7625 8.37262 12.8988 7.74749 12.8988C7.12237 12.8988 6.5293 12.7623 5.99512 12.5195C3.26999 12.8203 1.15012 15.1293 1.15012 17.9345V21.7168C1.15012 21.924 1.31793 22.0918 1.52512 22.0918H13.9701C13.9764 22.0918 13.9824 22.0903 13.9886 22.0899C13.7362 22.08 13.5345 21.8739 13.5345 21.6191Z" fill="#D4FBFF"/>
<path d="M6.09749 13.1978L4.49474 14.9404C4.36781 15.0784 4.36237 15.2888 4.48162 15.4331L5.10468 16.1869C5.23106 16.3399 5.21643 16.5649 5.07131 16.7003L4.46456 17.2656C4.34962 17.3726 4.31362 17.5401 4.37437 17.6848L6.09749 21.7969V13.1978Z" fill="#6DC9F7"/>
<path d="M9.39752 13.1978L11.0003 14.9404C11.1272 15.0784 11.1327 15.2888 11.0134 15.4331L10.3903 16.1869C10.264 16.3399 10.2786 16.5649 10.4237 16.7003L11.0305 17.2656C11.1454 17.3726 11.1814 17.5401 11.1207 17.6848L9.39752 21.7969V13.1978Z" fill="#6DC9F7"/>
<path d="M7.74257 15.0643C7.74613 15.0602 7.74932 15.0559 7.75288 15.0518C7.74932 15.0559 7.74557 15.0598 7.742 15.0639C7.74219 15.0639 7.74238 15.0641 7.74257 15.0643Z" fill="#6DC9F7"/>
<path d="M7.74743 12.8984C7.16224 12.8984 6.60461 12.7797 6.09743 12.5654V15.2964C6.09743 16.2076 6.83618 16.9462 7.74743 16.9462C8.65868 16.9462 9.39743 16.2076 9.39743 15.2964V12.5654C8.89024 12.7797 8.33261 12.8984 7.74743 12.8984Z" fill="white"/>
<path d="M12.2359 7.70361C12.1472 7.70361 12.063 7.72986 11.9865 7.77636V8.6593C11.9865 8.90099 11.9651 9.1378 11.9263 9.36843C12.0182 9.44193 12.1228 9.4873 12.2359 9.4873C12.5848 9.4873 12.8676 9.08793 12.8676 8.59536C12.8676 8.1028 12.5848 7.70361 12.2359 7.70361Z" fill="white"/>
<path d="M3.50833 8.6593V7.77636C3.43183 7.72986 3.34765 7.70361 3.25896 7.70361C2.91002 7.70361 2.62727 8.10299 2.62727 8.59555C2.62727 9.08811 2.91002 9.48749 3.25896 9.48749C3.37202 9.48749 3.47665 9.44211 3.56852 9.36861C3.52971 9.13761 3.50833 8.90099 3.50833 8.6593Z" fill="white"/>
<path d="M7.74748 12.8984C5.40636 12.8984 3.50848 11.0006 3.50848 8.65943V6.07324C3.50848 6.07324 5.59592 6.40905 7.26542 5.81543C8.93492 5.2218 9.52067 4.01074 9.52067 4.01074C9.52067 4.01074 9.7753 4.75287 10.3438 5.25293C10.9123 5.75299 11.9867 6.07324 11.9867 6.07324V8.65924C11.9865 11.0006 10.0886 12.8984 7.74748 12.8984Z" fill="white"/>
<path d="M10.1652 9.39516C10.3731 9.39516 10.5417 9.28888 10.5417 9.15778C10.5417 9.02669 10.3731 8.92041 10.1652 8.92041C9.95722 8.92041 9.78865 9.02669 9.78865 9.15778C9.78865 9.28888 9.95722 9.39516 10.1652 9.39516Z" fill="#FFD7E5"/>
<path d="M5.32987 9.34243C5.5378 9.34243 5.70637 9.23615 5.70637 9.10505C5.70637 8.97395 5.5378 8.86768 5.32987 8.86768C5.12193 8.86768 4.95337 8.97395 4.95337 9.10505C4.95337 9.23615 5.12193 9.34243 5.32987 9.34243Z" fill="#FFD7E5"/>
<path d="M7.74744 11.2487C7.10188 11.2487 6.77338 10.8037 6.75969 10.7846C6.69912 10.7006 6.71806 10.5834 6.80206 10.5229C6.88569 10.4623 7.00213 10.4811 7.06306 10.5641C7.07413 10.5789 7.30081 10.8735 7.74744 10.8735C8.19238 10.8735 8.43125 10.5649 8.43369 10.5617C8.49613 10.4792 8.6135 10.4627 8.69638 10.5255C8.77888 10.5879 8.795 10.7055 8.73257 10.788C8.71832 10.8071 8.3765 11.2487 7.74744 11.2487Z" fill="#FA759E"/>
<path d="M9.39727 15.0518V15.2964C9.39727 16.2077 8.65852 16.9464 7.74727 16.9464C6.83602 16.9464 6.09727 16.2077 6.09727 15.2964V22.0916H9.39746L9.39727 15.0518Z" fill="#0089EF"/>
<path d="M18.5758 15.2684L19.3041 13.5993L18.0334 12.8716L16.2902 15.2684H18.5758Z" fill="#6DC9F7"/>
<path d="M19.5056 13.715L17.832 12.7565C17.6891 12.6748 17.6396 12.4925 17.7216 12.3497L17.7893 12.2315C17.871 12.0887 18.0533 12.0392 18.1961 12.1211L19.8697 13.0796C20.0126 13.1613 20.0621 13.3436 19.9802 13.4865L19.9125 13.6046C19.8306 13.7473 19.6485 13.7968 19.5056 13.715Z" fill="#0089EF"/>
<path d="M18.0812 20.5214H19.8328C19.8531 20.4856 19.8733 20.45 19.8934 20.414L19.5482 19.8168C19.3313 19.4416 19.4597 18.9614 19.8349 18.7445C20.095 18.5941 20.4034 18.6128 20.6417 18.7613C20.95 17.8679 21.0915 16.9679 20.9483 16.1392C18.2224 16.1392 15.4965 16.1392 12.7707 16.1392C12.5083 17.6562 13.1967 19.4125 14.1255 20.9296H17.3967C17.5302 20.6875 17.785 20.5214 18.0812 20.5214Z" fill="#FFD7E5"/>
<path d="M13.3332 16.1396C13.1457 16.1396 12.9582 16.1396 12.7707 16.1396C12.5083 17.6567 13.1967 19.413 14.1255 20.9301H14.688C13.759 19.413 13.0708 17.6567 13.3332 16.1396Z" fill="white"/>
<path d="M21.0308 16.1395H12.6879C12.4922 16.1395 12.3334 15.9807 12.3334 15.7849V15.6231C12.3334 15.4274 12.4922 15.2686 12.6879 15.2686H21.0308C21.2265 15.2686 21.3853 15.4274 21.3853 15.6231V15.7849C21.3853 15.9807 21.2267 16.1395 21.0308 16.1395Z" fill="#FA759E"/>
<path d="M18.0812 22.0911C17.6477 22.0911 17.2963 21.7397 17.2963 21.3062C17.2963 21.1689 17.3346 21.042 17.3965 20.9297H14.0072C13.7462 20.9297 13.5345 21.1414 13.5345 21.4024V21.6182C13.5345 21.8792 13.7462 22.0909 14.0072 22.0909H19.7117H19.7119H18.0812V22.0911Z" fill="#FA759E"/>
<path d="M21.9949 20.9135L20.907 19.0313C20.6901 18.6561 20.2101 18.5277 19.8347 18.7446C19.4595 18.9616 19.3311 19.4416 19.548 19.817L19.9553 20.5216H20.2549C20.6884 20.5216 21.0398 20.873 21.0398 21.3065C21.0398 21.5343 20.9411 21.7377 20.7861 21.881C21.0321 22.1073 21.4033 22.1618 21.708 21.9858C22.0834 21.7688 22.2118 21.2888 21.9949 20.9135Z" fill="#FA759E"/>
<path d="M21.9949 20.9137L21.4517 19.9741L20.4597 20.5522C20.7932 20.6427 21.0398 20.9444 21.0398 21.3067C21.0398 21.5345 20.9412 21.7378 20.7863 21.8812C21.0323 22.1075 21.4035 22.1621 21.7082 21.986C22.0834 21.7691 22.2119 21.2891 21.9949 20.9137Z" fill="#0089EF"/>
<path d="M20.2551 22.0912H18.0812C17.6477 22.0912 17.2963 21.7399 17.2963 21.3064C17.2963 20.8729 17.6477 20.5215 18.0812 20.5215H20.2551C20.6886 20.5215 21.04 20.8729 21.04 21.3064C21.0398 21.7399 20.6884 22.0912 20.2551 22.0912Z" fill="#0089EF"/>
<path d="M20.2551 20.522H19.1698L19.1753 22.0915H20.2551C20.6886 22.0915 21.04 21.7402 21.04 21.3067C21.0398 20.8733 20.6884 20.522 20.2551 20.522Z" fill="#FA759E"/>
<path d="M3.3954 20.8467C3.4989 20.8467 3.5829 20.7629 3.5829 20.6592V19.5811C3.5829 19.4774 3.4989 19.3936 3.3954 19.3936C3.2919 19.3936 3.2079 19.4774 3.2079 19.5811V20.6592C3.2079 20.7627 3.2919 20.8467 3.3954 20.8467Z" fill="#3A2C60"/>
<path d="M5.8774 7.64209C5.64321 7.64209 5.45346 7.83184 5.45346 8.06603C5.45346 8.30021 5.64321 8.48996 5.8774 8.48996C6.11159 8.48996 6.30134 8.30021 6.30134 8.06603C6.30115 7.83184 6.1114 7.64209 5.8774 7.64209Z" fill="#3A2C60"/>
<path d="M9.61766 7.64209C9.38348 7.64209 9.19373 7.83184 9.19373 8.06603C9.19373 8.30021 9.38348 8.48996 9.61766 8.48996C9.85185 8.48996 10.0416 8.30021 10.0416 8.06603C10.0416 7.83184 9.85185 7.64209 9.61766 7.64209Z" fill="#3A2C60"/>
<path d="M8.22958 9.00049C8.12608 9.00049 8.04208 9.0843 8.04208 9.18799V9.47055C8.04208 9.63293 7.90989 9.76511 7.74752 9.76511C7.58514 9.76511 7.45296 9.63293 7.45296 9.47055V9.18799C7.45296 9.0843 7.36896 9.00049 7.26546 9.00049C7.16196 9.00049 7.07796 9.0843 7.07796 9.18799V9.47055C7.07796 9.83974 7.37833 10.1401 7.74752 10.1401C8.11671 10.1401 8.41708 9.83955 8.41708 9.47055V9.18799C8.41708 9.0843 8.33308 9.00049 8.22958 9.00049Z" fill="#3A2C60"/>
<path d="M9.29519 7.24482L10.1252 7.38938C10.1361 7.39125 10.147 7.39219 10.1577 7.39219C10.2471 7.39219 10.3262 7.32788 10.3422 7.23694C10.36 7.13494 10.2916 7.03763 10.1897 7.02L9.35969 6.87544C9.25769 6.85932 9.16056 6.92625 9.14275 7.02788C9.12494 7.12969 9.19319 7.227 9.29519 7.24482Z" fill="#3A2C60"/>
<path d="M6.13542 6.87545L5.30535 7.02001C5.20335 7.03782 5.1351 7.13495 5.15291 7.23695C5.16885 7.32789 5.24797 7.3922 5.33741 7.3922C5.3481 7.3922 5.35897 7.39126 5.36985 7.38939L6.19992 7.24482C6.30192 7.22701 6.37017 7.12988 6.35235 7.02788C6.33473 6.92607 6.23835 6.85932 6.13542 6.87545Z" fill="#3A2C60"/>
<path d="M5.32972 5.28421C5.3346 5.28421 5.33966 5.28403 5.34454 5.28365C5.36197 5.28215 5.77766 5.24859 6.34578 5.10946C6.44647 5.08471 6.50797 4.98327 6.48322 4.88259C6.45847 4.78209 6.35609 4.72059 6.25653 4.74515C5.71991 4.87659 5.31904 4.9094 5.3151 4.90977C5.21197 4.91802 5.13491 5.00821 5.14297 5.11134C5.15085 5.20959 5.23297 5.28421 5.32972 5.28421Z" fill="#3A2C60"/>
<path d="M17.4754 19.1324L18.0799 18.4088C18.1164 18.3661 18.1348 18.3192 18.1348 18.2684C18.1348 18.2093 18.1119 18.1579 18.066 18.1143C18.0203 18.0706 17.9689 18.0486 17.9119 18.0486C17.8509 18.0486 17.7979 18.0753 17.7533 18.1281L17.2005 18.8029L16.8709 18.4049C16.9588 18.3754 17.0348 18.3327 17.0981 18.2751C17.2283 18.157 17.2935 17.9922 17.2935 17.7805C17.2935 17.5688 17.2283 17.404 17.0981 17.2859C16.9678 17.1679 16.7858 17.1089 16.5516 17.1089H15.7853C15.714 17.1089 15.6591 17.1284 15.6204 17.1668C15.5818 17.2056 15.5623 17.2606 15.5623 17.3316V19.0413C15.5623 19.1146 15.5837 19.1725 15.6264 19.2153C15.6692 19.258 15.7271 19.2794 15.8004 19.2794C15.8738 19.2794 15.9317 19.258 15.9744 19.2153C16.0172 19.1725 16.0386 19.1146 16.0386 19.0413V18.4519H16.3539L16.9224 19.1324L16.2966 19.8773C16.26 19.9201 16.2416 19.9669 16.2416 20.0178C16.2416 20.0768 16.2645 20.1282 16.3103 20.1719C16.356 20.2158 16.4074 20.2375 16.4646 20.2375C16.5236 20.2375 16.5756 20.212 16.6204 20.1612L17.2003 19.459L17.7744 20.1612C17.8172 20.212 17.8691 20.2375 17.9301 20.2375C17.9891 20.2375 18.0416 20.2156 18.0874 20.1719C18.1331 20.1282 18.156 20.0768 18.156 20.0178C18.156 19.9688 18.1367 19.9221 18.0979 19.8773L17.4754 19.1324ZM16.4906 18.0916H16.0388V17.4719H16.4906C16.7288 17.4719 16.848 17.5758 16.848 17.7833C16.8478 17.9888 16.7288 18.0916 16.4906 18.0916Z" fill="#3A2C60"/>
<path d="M22.1571 20.8198L21.0692 18.9379C21.0139 18.8421 20.9415 18.7607 20.8601 18.6906C21.1138 17.9143 21.2524 17.0972 21.1586 16.3105C21.3958 16.2525 21.5728 16.0399 21.5728 15.7853V15.6233C21.5728 15.3244 21.3296 15.0812 21.0308 15.0812H18.8623L19.3924 13.8662L19.4124 13.8776C19.4869 13.9206 19.5694 13.9423 19.653 13.9423C19.6958 13.9423 19.7387 13.9367 19.7811 13.9251C19.9063 13.891 20.0108 13.8103 20.0751 13.6978L20.1428 13.5797C20.2757 13.3474 20.1951 13.05 19.9628 12.9169L18.2891 11.9586C18.1766 11.8937 18.0456 11.877 17.9205 11.9111C17.7953 11.9453 17.6908 12.0259 17.6265 12.1384L17.5588 12.2565C17.4259 12.4888 17.5065 12.7862 17.7388 12.9193L17.7589 12.9308L16.1949 15.0812H13.7529C13.257 14.2401 12.5494 13.5394 11.703 13.0517C12.4013 12.8858 12.9868 12.718 13.3547 12.606C13.6468 12.5168 13.8152 12.2059 13.7303 11.9128C13.5343 11.2352 13.0787 9.5807 13.0787 8.85133V6.30208C13.0787 3.36227 10.6871 0.970703 7.74732 0.970703C4.80751 0.970703 2.41614 3.36245 2.41614 6.30208V8.85114C2.41614 9.74701 1.96839 11.2845 1.77601 11.9038C1.73139 12.048 1.74545 12.2006 1.81595 12.3336C1.88664 12.4671 2.00532 12.5646 2.15007 12.6088C2.51551 12.72 3.09601 12.8861 3.78882 13.051C2.10132 14.0256 0.962448 15.8488 0.962448 17.9338V21.7163C0.962448 22.0264 1.21482 22.2788 1.52495 22.2788H20.2549C20.4518 22.2788 20.6344 22.2191 20.7876 22.1183C20.8716 22.1741 20.9634 22.2188 21.0639 22.2458C21.1476 22.2681 21.2323 22.2793 21.3167 22.2793C21.4853 22.2793 21.6518 22.2351 21.8018 22.1483C22.2662 21.8798 22.4256 21.2839 22.1571 20.8198ZM21.1959 19.9061L20.4308 20.352C20.3736 20.3415 20.3153 20.3342 20.2551 20.3342H20.0634L19.7104 19.7233C19.5456 19.4381 19.6434 19.072 19.9286 18.907C20.0207 18.8539 20.1231 18.8265 20.2266 18.8265C20.2783 18.8265 20.3304 18.8333 20.3818 18.847C20.5359 18.8882 20.6648 18.987 20.7446 19.125L21.1959 19.9061ZM20.4786 18.4851C20.2275 18.418 19.9656 18.4525 19.7408 18.5828C19.2767 18.8511 19.1173 19.447 19.3856 19.911L19.6303 20.3344H18.081C17.7555 20.3344 17.4686 20.4966 17.292 20.7428H14.2318C13.5109 19.546 12.7404 17.8545 12.9354 16.3273H20.7834C20.8742 17.0395 20.7555 17.7866 20.5286 18.5038C20.5116 18.4982 20.496 18.4898 20.4786 18.4851ZM18.0812 21.9038C17.7519 21.9038 17.4838 21.6358 17.4838 21.3064C17.4838 20.977 17.7518 20.709 18.0812 20.709H18.9829L18.987 21.9036H18.0812V21.9038ZM12.5381 16.3035C12.5453 16.3056 12.5522 16.3084 12.5595 16.3101C12.3737 17.865 13.0961 19.545 13.8141 20.7746C13.5446 20.8579 13.347 21.1063 13.347 21.4028V21.6184C13.347 21.721 13.3725 21.817 13.4145 21.9036H12.2869V17.4216C12.2869 17.0261 12.3756 16.6463 12.5381 16.3035ZM14.0072 21.9038C13.8499 21.9038 13.722 21.7757 13.722 21.6186V21.403C13.722 21.2456 13.8499 21.1178 14.0072 21.1178H17.1279C17.1158 21.1789 17.1088 21.2421 17.1088 21.3068C17.1088 21.5331 17.1896 21.7388 17.3198 21.9041H14.0072V21.9038ZM21.1978 15.6231V15.7851C21.1978 15.8771 21.1228 15.9521 21.0308 15.9521H12.6879C12.5959 15.9521 12.5209 15.8773 12.5209 15.7851V15.6231C12.5209 15.531 12.5959 15.456 12.6879 15.456H21.0308C21.1228 15.4562 21.1978 15.531 21.1978 15.6231ZM17.8841 12.4427L17.9518 12.3246C17.9664 12.2989 17.9903 12.2807 18.0188 12.273C18.0283 12.2702 18.0383 12.2691 18.0478 12.2691C18.0669 12.2691 18.0857 12.274 18.1026 12.2839L19.7762 13.2422C19.8291 13.2726 19.8474 13.3403 19.8173 13.3933L19.7496 13.5115C19.7349 13.5371 19.7111 13.5553 19.6826 13.563C19.6539 13.5711 19.6243 13.567 19.5986 13.5523V13.5521L17.925 12.5938C17.8721 12.5635 17.8538 12.4958 17.8841 12.4427ZM18.0861 13.1181L18.5754 13.3984L19.0648 13.6787L18.453 15.081H16.6583L18.0861 13.1181ZM13.2276 14.9546C13.1668 14.9957 13.1063 15.0364 13.0493 15.0812H12.6879C12.3891 15.0812 12.1459 15.3244 12.1459 15.6233V15.7853C12.1459 15.8927 12.1783 15.9923 12.2323 16.0766C12.0253 16.4858 11.9119 16.9436 11.9119 17.4216V21.9038H9.58501V21.8342L11.2937 17.757C11.3843 17.5408 11.3299 17.2881 11.1583 17.1281L10.5516 16.5628C10.479 16.4953 10.4717 16.3825 10.5349 16.3061L11.1578 15.5524C11.3361 15.3368 11.3276 15.019 11.1383 14.8133L9.58501 13.1245V12.723C11.0929 12.9214 12.4014 13.7576 13.2276 14.9546ZM5.91001 20.8639L4.54726 17.6119C4.51707 17.5397 4.53526 17.4555 4.59245 17.4023L5.1992 16.837C5.41689 16.6343 5.43882 16.296 5.24945 16.0673L4.62639 15.3133C4.56695 15.2415 4.56976 15.1358 4.63295 15.0671L5.91039 13.6785V20.8639H5.91001ZM9.49126 4.41358C9.62907 4.69033 9.86664 5.08295 10.2199 5.39364C10.6963 5.8127 11.4848 6.10464 11.799 6.21002V8.65933C11.799 10.8934 9.98157 12.7108 7.74751 12.7108C5.51345 12.7108 3.69601 10.8934 3.69601 8.65933V6.28764C4.28251 6.35758 5.93157 6.48883 7.32826 5.99195C8.53051 5.56445 9.19238 4.83358 9.49126 4.41358ZM6.28501 15.2961V12.8387C6.28501 12.8387 6.28314 12.8363 6.28257 12.8357C6.74139 12.9971 7.23414 13.0858 7.74732 13.0858C8.25957 13.0858 8.7512 12.9973 9.20926 12.8366L9.20982 12.8387V15.2961V15.2963C9.20982 16.1025 8.55376 16.7586 7.74732 16.7586C6.94089 16.7586 6.28501 16.1025 6.28501 15.2961ZM9.58501 13.6783L10.8624 15.067C10.9254 15.1356 10.9284 15.2415 10.8688 15.3133L10.2459 16.0671C10.0564 16.2962 10.0783 16.6343 10.296 16.837L10.9026 17.4023C10.9599 17.4555 10.9779 17.5399 10.9478 17.6119L9.58501 20.8639V13.6783ZM13.3701 12.0169C13.3701 12.0171 13.3701 12.0171 13.3701 12.0169C13.3982 12.1144 13.3423 12.2175 13.2452 12.2471C13.1327 12.2815 12.9975 12.3214 12.8469 12.3645L12.6461 11.6668C12.6176 11.5675 12.5136 11.5101 12.4142 11.5384C12.3146 11.5669 12.2573 11.671 12.2858 11.7703L12.4856 12.4652C12.1104 12.5672 11.6661 12.6797 11.1803 12.7864C10.8278 12.6295 10.4569 12.507 10.0708 12.4247C11.0614 11.8112 11.7923 10.818 12.0606 9.64989C12.1168 9.66564 12.1751 9.67464 12.2355 9.67464C12.4352 9.67464 12.6159 9.58483 12.7566 9.43408C12.8768 10.24 13.1749 11.3417 13.3701 12.0169ZM12.174 7.89901C12.1943 7.89433 12.2149 7.89114 12.2359 7.89114C12.4766 7.89114 12.6801 8.21364 12.6801 8.59539C12.6801 8.97714 12.4766 9.29983 12.2359 9.29983C12.1993 9.29983 12.1643 9.2897 12.1303 9.27527C12.1584 9.07389 12.1742 8.86839 12.1742 8.65933V7.89901H12.174ZM12.7037 6.30208V7.70458C12.5719 7.58552 12.4112 7.51595 12.2357 7.51595C12.2147 7.51595 12.1944 7.52008 12.1738 7.52195V6.07295C12.1738 5.99008 12.1193 5.91695 12.0399 5.89333C12.0296 5.89014 10.9976 5.57814 10.4672 5.11164C9.99995 4.70064 9.75545 4.10214 9.70707 3.97502V1.7507C11.4683 2.51177 12.7037 4.26527 12.7037 6.30208ZM7.74751 1.34589C8.30176 1.34589 8.83445 1.4387 9.33245 1.60727V2.73658C9.19257 2.93064 8.59051 3.71458 7.65807 4.22102C7.50657 4.30314 7.34382 4.38002 7.17451 4.44958C7.0787 4.48877 7.03295 4.59827 7.07213 4.69408C7.10195 4.76683 7.17189 4.81052 7.24576 4.81052C7.26939 4.81052 7.29357 4.8062 7.31682 4.79645C7.49851 4.72202 7.67345 4.63933 7.83676 4.55064C8.5157 4.1822 9.02382 3.68833 9.33226 3.33677V3.96527C9.22576 4.15745 8.62876 5.13152 7.20245 5.6387C5.59895 6.20889 3.55839 5.89145 3.53814 5.88827C3.48395 5.87889 3.42864 5.8952 3.38682 5.93083C3.34501 5.96627 3.32082 6.01858 3.32082 6.07352V7.52252C3.3002 7.52045 3.27995 7.51633 3.25895 7.51633C3.08364 7.51633 2.92295 7.5857 2.79114 7.70477V6.30227C2.79114 3.56927 5.01451 1.34589 7.74751 1.34589ZM3.3647 9.27527C3.33057 9.2897 3.29551 9.29983 3.25895 9.29983C3.0182 9.29983 2.81476 8.97714 2.81476 8.59539C2.81476 8.21364 3.0182 7.89114 3.25895 7.89114C3.27995 7.89114 3.30057 7.89433 3.32082 7.89901V8.65933C3.32082 8.86839 3.33657 9.07389 3.3647 9.27527ZM4.03539 12.7234L4.15445 12.2717C4.18089 12.1716 4.12107 12.069 4.02095 12.0426C3.92064 12.0161 3.81826 12.0761 3.79182 12.1761L3.67051 12.6364C3.52989 12.6017 3.3932 12.5674 3.26457 12.5336L3.61614 11.1992C3.64257 11.0991 3.58276 10.9965 3.48264 10.9701C3.38176 10.9433 3.27995 11.0036 3.25351 11.1036L2.90232 12.436C2.64864 12.3658 2.42926 12.3015 2.25901 12.2498C2.21045 12.2351 2.1707 12.2023 2.14707 12.1579C2.12364 12.1138 2.11895 12.063 2.13395 12.015C2.3312 11.3803 2.63532 10.3123 2.74726 9.44326C2.88657 9.5882 3.06339 9.67445 3.25876 9.67445C3.31914 9.67445 3.37764 9.66564 3.43389 9.6497C3.70182 10.8167 4.43157 11.8088 5.42064 12.4225C5.03401 12.505 4.6622 12.6276 4.30914 12.7851C4.21614 12.765 4.12557 12.7442 4.03539 12.7234ZM1.33745 21.7163V17.9338C1.33745 16.9611 1.60295 16.0495 2.06495 15.2672C2.78195 15.7525 3.20795 16.5497 3.20795 17.4216V18.8779C3.20795 18.9816 3.29195 19.0654 3.39545 19.0654C3.49895 19.0654 3.58295 18.9816 3.58295 18.8779V17.4216C3.58295 16.4213 3.09282 15.5068 2.26801 14.9522C3.09451 13.7561 4.40232 12.9175 5.91001 12.7193V13.1245L4.35676 14.8133C4.16739 15.0191 4.15895 15.3368 4.33726 15.5522L4.96032 16.3061C5.02351 16.3823 5.01601 16.4951 4.94364 16.5626L4.33689 17.128C4.16514 17.2879 4.11076 17.5405 4.20151 17.7568L5.9102 21.834V21.9036H3.58295V21.3306C3.58295 21.2269 3.49895 21.1431 3.39545 21.1431C3.29195 21.1431 3.20795 21.2269 3.20795 21.3306V21.9036H1.52495C1.42164 21.9038 1.33745 21.8198 1.33745 21.7163ZM6.28501 21.7965V16.404C6.62082 16.8461 7.15051 17.1336 7.74751 17.1336C8.34451 17.1336 8.8742 16.8463 9.21001 16.404V21.7965V21.9038H6.28501V21.7965ZM19.362 21.9038L19.3579 20.7092H20.2551C20.5845 20.7092 20.8524 20.9771 20.8524 21.3066C20.8524 21.636 20.5845 21.904 20.2551 21.904H19.362V21.9038ZM21.6143 21.8237C21.4763 21.9032 21.315 21.9248 21.1611 21.8835C21.1268 21.8743 21.0958 21.8586 21.0645 21.8436C21.1671 21.6895 21.2274 21.5051 21.2274 21.3066C21.2274 20.9951 21.0776 20.7205 20.8491 20.5425L21.3838 20.2309L21.8327 21.0073C21.9973 21.2927 21.8994 21.6587 21.6143 21.8237Z" fill="#3A2C60"/>
</svg>
