<svg width="24" height="24" viewBox="0 0 24 24" fill="none" xmlns="http://www.w3.org/2000/svg">
<path d="M22.125 20.625H17.625C17.2108 20.625 16.875 20.9608 16.875 21.375V22.125C16.875 22.5392 17.2108 22.875 17.625 22.875H22.125C22.5392 22.875 22.875 22.5392 22.875 22.125V21.375C22.875 20.9608 22.5392 20.625 22.125 20.625Z" fill="#E0E0E2"/>
<path d="M22.125 18.375H17.625C17.2108 18.375 16.875 18.7108 16.875 19.125V19.875C16.875 20.2892 17.2108 20.625 17.625 20.625H22.125C22.5392 20.625 22.875 20.2892 22.875 19.875V19.125C22.875 18.7108 22.5392 18.375 22.125 18.375Z" fill="#FFE477"/>
<path d="M22.875 19.125V19.875C22.8744 19.6763 22.7952 19.4858 22.6547 19.3453C22.5142 19.2048 22.3237 19.1256 22.125 19.125H17.625C17.4263 19.1256 17.2358 19.2048 17.0953 19.3453C16.9548 19.4858 16.8756 19.6763 16.875 19.875V19.125C16.8756 18.9263 16.9548 18.7358 17.0953 18.5953C17.2358 18.4548 17.4263 18.3756 17.625 18.375H22.125C22.3237 18.3756 22.5142 18.4548 22.6547 18.5953C22.7952 18.7358 22.8744 18.9263 22.875 19.125Z" fill="#EBBF00"/>
<path d="M16.125 21.3751V22.1251C16.1244 22.3238 16.0452 22.5142 15.9047 22.6548C15.7642 22.7953 15.5737 22.8745 15.375 22.8751H10.875C10.6763 22.8745 10.4858 22.7953 10.3453 22.6548C10.2048 22.5142 10.1256 22.3238 10.125 22.1251V21.6901C10.3672 21.3776 10.5549 21.0264 10.68 20.6513C10.7433 20.6329 10.8091 20.6241 10.875 20.6251H15.375C15.5737 20.6257 15.7642 20.7049 15.9047 20.8454C16.0452 20.9859 16.1244 21.1763 16.125 21.3751Z" fill="#E0E0E2"/>
<path d="M16.125 19.125V19.875C16.1244 20.0737 16.0452 20.2641 15.9047 20.4047C15.7641 20.5452 15.5737 20.6244 15.375 20.625H10.875C10.8155 20.6251 10.7563 20.6176 10.6988 20.6025C10.8141 20.2463 10.8735 19.8744 10.875 19.5V18.375H15.375C15.5737 18.3756 15.7641 18.4548 15.9047 18.5953C16.0452 18.7358 16.1244 18.9263 16.125 19.125Z" fill="#FFE477"/>
<path d="M16.125 16.875V17.625C16.1245 17.8237 16.0452 18.0142 15.9047 18.1547C15.7642 18.2952 15.5738 18.3744 15.375 18.375H10.875V18C10.8647 17.3838 10.7649 16.7725 10.5788 16.185C10.6726 16.1457 10.7733 16.1253 10.875 16.125H15.375C15.5738 16.1256 15.7642 16.2048 15.9047 16.3453C16.0452 16.4858 16.1245 16.6763 16.125 16.875Z" fill="#E0E0E2"/>
<path d="M16.125 14.625V15.375C16.1244 15.5737 16.0452 15.7642 15.9047 15.9047C15.7642 16.0452 15.5737 16.1244 15.375 16.125H10.875C10.7563 16.1253 10.6392 16.097 10.5338 16.0425C10.4184 15.6847 10.2819 15.3341 10.125 14.9925V14.625C10.1256 14.4263 10.2048 14.2359 10.3453 14.0953C10.4858 13.9548 10.6763 13.8756 10.875 13.875H15.375C15.5737 13.8756 15.7642 13.9548 15.9047 14.0953C16.0452 14.2359 16.1244 14.4263 16.125 14.625Z" fill="#FFE477"/>
<path d="M19.125 8.625C21.1961 8.625 22.875 6.94607 22.875 4.875C22.875 2.80393 21.1961 1.125 19.125 1.125C17.0539 1.125 15.375 2.80393 15.375 4.875C15.375 6.94607 17.0539 8.625 19.125 8.625Z" fill="#FFE477"/>
<path d="M22.875 4.87543C22.875 5.6855 22.6126 6.47378 22.1272 7.12232C21.6418 7.77085 20.9595 8.24478 20.1823 8.47317C19.4051 8.70156 18.5748 8.67214 17.8157 8.38931C17.0566 8.10648 16.4095 7.58545 15.9713 6.90418C16.6915 7.36739 17.5485 7.57016 18.4 7.47878C19.2514 7.38739 20.0459 7.00735 20.6514 6.40184C21.2569 5.79633 21.637 5.00182 21.7283 4.15039C21.8197 3.29896 21.617 2.4419 21.1538 1.72168C21.6819 2.06108 22.1163 2.52774 22.417 3.0788C22.7178 3.62985 22.8753 4.24764 22.875 4.87543Z" fill="#EBBF00"/>
<path d="M8.625 7.875L7.92 10.5V10.5037C7.90521 10.5006 7.8901 10.4994 7.875 10.5H4.125C4.1099 10.4994 4.09479 10.5006 4.08 10.5037V10.5L3.375 7.875L3.5325 7.8975L6 8.25L8.625 7.875Z" fill="#FFE477"/>
<path d="M8.62504 7.875L7.92004 10.5V10.5037C7.90526 10.5006 7.89014 10.4994 7.87504 10.5H6.79504L7.50004 7.875H8.62504Z" fill="#EBBF00"/>
<path d="M6.795 10.5002V10.5039C6.78021 10.5008 6.7651 10.4995 6.75 10.5002H6.795Z" fill="#EBBF00"/>
<path d="M7.92002 10.5039C8.11038 10.5153 8.28924 10.5989 8.4202 10.7375C8.55117 10.8761 8.62441 11.0594 8.62502 11.2502C8.62355 11.4486 8.54405 11.6385 8.40372 11.7789C8.26339 11.9192 8.07347 11.9987 7.87502 12.0002H4.12501C3.92628 11.9996 3.73586 11.9204 3.59534 11.7798C3.45481 11.6393 3.3756 11.4489 3.37501 11.2502C3.37449 11.1517 3.39381 11.0541 3.43182 10.9633C3.46983 10.8724 3.52576 10.7902 3.59626 10.7214C3.72378 10.5897 3.89689 10.5119 4.08001 10.5039C4.0948 10.5008 4.10991 10.4995 4.12501 10.5002H7.87502C7.89011 10.4995 7.90523 10.5008 7.92002 10.5039Z" fill="#FF7956"/>
<path d="M8.625 11.2502C8.62353 11.4486 8.54404 11.6385 8.4037 11.7789C8.26337 11.9192 8.07346 11.9987 7.875 12.0002H6.75C6.94846 11.9987 7.13837 11.9192 7.2787 11.7789C7.41904 11.6385 7.49853 11.4486 7.5 11.2502C7.49939 11.0594 7.42615 10.8761 7.29519 10.7375C7.16422 10.5989 6.98537 10.5153 6.795 10.5039C6.78021 10.5008 6.7651 10.4995 6.75 10.5002H7.875C7.8901 10.4995 7.90521 10.5008 7.92 10.5039C8.11037 10.5153 8.28922 10.5989 8.42019 10.7375C8.55115 10.8761 8.62439 11.0594 8.625 11.2502Z" fill="#FF5023"/>
<path d="M16.125 14.625V15.375C16.1244 15.1763 16.0452 14.9858 15.9047 14.8453C15.7642 14.7048 15.5737 14.6256 15.375 14.625H10.875C10.6763 14.6256 10.4858 14.7048 10.3453 14.8453C10.2048 14.9858 10.1256 15.1763 10.125 15.375V14.625C10.1256 14.4263 10.2048 14.2358 10.3453 14.0953C10.4858 13.9548 10.6763 13.8756 10.875 13.875H15.375C15.5737 13.8756 15.7642 13.9548 15.9047 14.0953C16.0452 14.2358 16.1244 14.4263 16.125 14.625Z" fill="#EBBF00"/>
<path d="M16.125 19.125V19.875C16.1244 19.6763 16.0452 19.4858 15.9047 19.3453C15.7642 19.2048 15.5737 19.1256 15.375 19.125H10.875C10.6763 19.1256 10.4858 19.2048 10.3453 19.3453C10.2048 19.4858 10.1256 19.6763 10.125 19.875V19.125C10.1256 18.9263 10.2048 18.7358 10.3453 18.5953C10.4858 18.4548 10.6763 18.3756 10.875 18.375H15.375C15.5737 18.3756 15.7642 18.4548 15.9047 18.5953C16.0452 18.7358 16.1244 18.9263 16.125 19.125Z" fill="#EBBF00"/>
<path d="M16.125 16.875V17.625C16.1244 17.4263 16.0452 17.2358 15.9047 17.0953C15.7642 16.9548 15.5737 16.8756 15.375 16.875H10.875C10.6763 16.8756 10.4858 16.9548 10.3453 17.0953C10.2048 17.2358 10.1256 17.4263 10.125 17.625V16.875C10.1256 16.6763 10.2048 16.4858 10.3453 16.3453C10.4858 16.2048 10.6763 16.1256 10.875 16.125H15.375C15.5737 16.1256 15.7642 16.2048 15.9047 16.3453C16.0452 16.4858 16.1244 16.6763 16.125 16.875Z" fill="#898890"/>
<path d="M16.125 21.375V22.125C16.1244 21.9263 16.0452 21.7358 15.9047 21.5953C15.7642 21.4548 15.5737 21.3756 15.375 21.375H10.875C10.6763 21.3756 10.4858 21.4548 10.3453 21.5953C10.2048 21.7358 10.1256 21.9263 10.125 22.125V21.375C10.1256 21.1763 10.2048 20.9858 10.3453 20.8453C10.4858 20.7048 10.6763 20.6256 10.875 20.625H15.375C15.5737 20.6256 15.7642 20.7048 15.9047 20.8453C16.0452 20.9858 16.1244 21.1763 16.125 21.375Z" fill="#898890"/>
<path d="M22.875 21.375V22.125C22.8744 21.9263 22.7952 21.7358 22.6547 21.5953C22.5142 21.4548 22.3237 21.3756 22.125 21.375H17.625C17.4263 21.3756 17.2358 21.4548 17.0953 21.5953C16.9548 21.7358 16.8756 21.9263 16.875 22.125V21.375C16.8756 21.1763 16.9548 20.9858 17.0953 20.8453C17.2358 20.7048 17.4263 20.6256 17.625 20.625H22.125C22.3237 20.6256 22.5142 20.7048 22.6547 20.8453C22.7952 20.9858 22.8744 21.1763 22.875 21.375Z" fill="#898890"/>
<path d="M10.875 18V19.5C10.875 21.2362 9.555 22.875 7.875 22.875H4.125C2.445 22.875 1.125 21.2362 1.125 19.5V18C1.12772 17.622 1.16792 17.2451 1.245 16.875C1.6125 15.0675 2.76375 13.035 4.125 12H7.875C9.52875 13.26 10.875 15.9862 10.875 18Z" fill="#FFE477"/>
<path d="M10.8751 18V19.5C10.8751 21.2362 9.5551 22.875 7.8751 22.875H4.1251C3.62129 22.8589 3.13016 22.7131 2.69921 22.4516C2.26825 22.1902 1.91207 21.8219 1.6651 21.3825C2.06973 21.621 2.53042 21.7478 3.0001 21.75H6.7501C8.4301 21.75 9.7501 20.1112 9.7501 18.375V16.875C9.7501 15.3412 8.9701 13.3988 7.8676 12H7.8751C9.52885 13.26 10.8751 15.9862 10.8751 18Z" fill="#EBBF00"/>
<path d="M21.285 8.38139C21.8968 8.00428 22.3993 7.4738 22.7428 6.84255C23.0863 6.2113 23.2587 5.50122 23.2431 4.78275C23.2274 4.06429 23.0242 3.36239 22.6536 2.74669C22.283 2.13099 21.7578 1.62289 21.1302 1.27277C20.5027 0.922657 19.7944 0.742702 19.0759 0.750755C18.3573 0.758809 17.6533 0.954591 17.0337 1.31868C16.4141 1.68277 15.9005 2.20252 15.5437 2.82637C15.187 3.45022 14.9996 4.1565 15 4.87514C14.9981 5.56335 15.171 6.24077 15.5025 6.84389L13.5 8.84639L8.14129 3.48389C8.07049 3.41363 7.97479 3.37421 7.87504 3.37421C7.7753 3.37421 7.6796 3.41363 7.6088 3.48389L5.81255 5.28389L1.0163 0.483887L0.483795 1.01639L5.5463 6.07889C5.6171 6.14914 5.7128 6.18857 5.81255 6.18857C5.91229 6.18857 6.00799 6.14914 6.07879 6.07889L7.87504 4.27889L13.2338 9.64139C13.3049 9.7111 13.4005 9.75016 13.5 9.75016C13.5996 9.75016 13.6952 9.7111 13.7663 9.64139L15.9263 7.47764C16.3129 7.95307 16.8006 8.3364 17.3539 8.59976C17.9072 8.86312 18.5123 8.99989 19.125 9.00014C19.6212 8.99933 20.113 8.90782 20.5763 8.73014L22.9838 11.1414L23.5163 10.6089L21.285 8.38139ZM19.125 8.25014C18.4575 8.25014 17.805 8.0522 17.25 7.68135C16.695 7.3105 16.2624 6.78339 16.007 6.16669C15.7515 5.54999 15.6847 4.87139 15.8149 4.21671C15.9451 3.56202 16.2666 2.96065 16.7386 2.48865C17.2106 2.01665 17.8119 1.69521 18.4666 1.56499C19.1213 1.43476 19.7999 1.5016 20.4166 1.75704C21.0333 2.01249 21.5604 2.44507 21.9313 3.00009C22.3021 3.5551 22.5 4.20762 22.5 4.87514C22.4987 5.76982 22.1426 6.62745 21.51 7.26009C20.8774 7.89272 20.0197 8.24875 19.125 8.25014Z" fill="black"/>
<path d="M18.75 7.5H19.5V6.75C19.6989 6.75 19.8897 6.67098 20.0303 6.53033C20.171 6.38968 20.25 6.19891 20.25 6V5.25C20.25 5.05109 20.171 4.86032 20.0303 4.71967C19.8897 4.57902 19.6989 4.5 19.5 4.5H18.75V3.75H20.25V3H19.5V2.25H18.75V3C18.5511 3 18.3603 3.07902 18.2197 3.21967C18.079 3.36032 18 3.55109 18 3.75V4.5C18 4.69891 18.079 4.88968 18.2197 5.03033C18.3603 5.17098 18.5511 5.25 18.75 5.25H19.5V6H18V6.75H18.75V7.5Z" fill="black"/>
<path d="M6.375 16.875H5.625C5.32663 16.875 5.04048 16.7565 4.8295 16.5455C4.61853 16.3345 4.5 16.0484 4.5 15.75C4.5 15.4516 4.61853 15.1655 4.8295 14.9545C5.04048 14.7435 5.32663 14.625 5.625 14.625H7.875V13.875H6.375V13.125H5.625V13.875C5.12772 13.875 4.65081 14.0725 4.29917 14.4242C3.94754 14.7758 3.75 15.2527 3.75 15.75C3.75 16.2473 3.94754 16.7242 4.29917 17.0758C4.65081 17.4275 5.12772 17.625 5.625 17.625H6.375C6.67337 17.625 6.95952 17.7435 7.1705 17.9545C7.38147 18.1655 7.5 18.4516 7.5 18.75C7.5 19.0484 7.38147 19.3345 7.1705 19.5455C6.95952 19.7565 6.67337 19.875 6.375 19.875H4.125V20.625H5.625V21.375H6.375V20.625C6.87228 20.625 7.34919 20.4275 7.70083 20.0758C8.05246 19.7242 8.25 19.2473 8.25 18.75C8.25 18.2527 8.05246 17.7758 7.70083 17.4242C7.34919 17.0725 6.87228 16.875 6.375 16.875Z" fill="black"/>
<path d="M23.25 19.1254C23.2491 18.8273 23.1303 18.5417 22.9195 18.3309C22.7087 18.1201 22.4231 18.0013 22.125 18.0004H17.625C17.3269 18.0013 17.0413 18.1201 16.8305 18.3309C16.6197 18.5417 16.5009 18.8273 16.5 19.1254C16.4993 18.8477 16.395 18.5802 16.2075 18.3754C16.395 18.1705 16.4993 17.9031 16.5 17.6254V16.8754C16.4993 16.5977 16.395 16.3302 16.2075 16.1254C16.395 15.9205 16.4993 15.6531 16.5 15.3754V14.6254C16.4991 14.3273 16.3803 14.0417 16.1695 13.8309C15.9587 13.6201 15.6731 13.5013 15.375 13.5004H10.875C10.7047 13.5009 10.5367 13.5404 10.384 13.6158C10.2313 13.6912 10.0978 13.8005 9.99375 13.9354C9.60764 13.2685 9.13336 12.6567 8.58375 12.1166C8.72983 11.9993 8.84395 11.8471 8.91554 11.674C8.98713 11.5008 9.01389 11.3125 8.99332 11.1263C8.97276 10.94 8.90554 10.762 8.79789 10.6087C8.69025 10.4554 8.54565 10.3317 8.3775 10.2491L8.98875 7.97288C9.00391 7.91299 9.00433 7.85031 8.98996 7.79022C8.97559 7.73014 8.94687 7.67443 8.90625 7.62788C8.86522 7.58122 8.81325 7.54548 8.75499 7.52388C8.69674 7.50228 8.63403 7.49549 8.5725 7.50413L6 7.87163L3.4275 7.50413C3.36597 7.49549 3.30326 7.50228 3.24501 7.52388C3.18675 7.54548 3.13477 7.58122 3.09375 7.62788C3.05313 7.67443 3.02441 7.73014 3.01004 7.79022C2.99567 7.85031 2.99609 7.91299 3.01125 7.97288L3.6225 10.2491C3.45435 10.3317 3.30975 10.4554 3.20211 10.6087C3.09446 10.762 3.02724 10.94 3.00668 11.1263C2.98611 11.3125 3.01287 11.5008 3.08446 11.674C3.15605 11.8471 3.27017 11.9993 3.41625 12.1166C1.90875 13.5566 0.75 16.0541 0.75 18.0004V19.5004C0.75 21.5329 2.295 23.2504 4.125 23.2504H7.875C8.58983 23.243 9.28011 22.9887 9.82875 22.5304C9.91055 22.7417 10.0541 22.9234 10.2408 23.0518C10.4274 23.1803 10.6484 23.2495 10.875 23.2504H15.375C15.6731 23.2495 15.9587 23.1307 16.1695 22.9199C16.3803 22.7091 16.4991 22.4235 16.5 22.1254C16.5009 22.4235 16.6197 22.7091 16.8305 22.9199C17.0413 23.1307 17.3269 23.2495 17.625 23.2504H22.125C22.4231 23.2495 22.7087 23.1307 22.9195 22.9199C23.1303 22.7091 23.2491 22.4235 23.25 22.1254V21.3754C23.2493 21.0977 23.145 20.8302 22.9575 20.6254C23.145 20.4205 23.2493 20.1531 23.25 19.8754V19.1254ZM5.9475 8.62163C5.9824 8.62538 6.0176 8.62538 6.0525 8.62163L8.115 8.32538L7.63125 10.1254H4.36875L3.885 8.32538L5.9475 8.62163ZM4.125 10.8754H7.875C7.97446 10.8754 8.06984 10.9149 8.14017 10.9852C8.21049 11.0555 8.25 11.1509 8.25 11.2504C8.25 11.3498 8.21049 11.4452 8.14017 11.5155C8.06984 11.5859 7.97446 11.6254 7.875 11.6254H4.125C4.02554 11.6254 3.93016 11.5859 3.85984 11.5155C3.78951 11.4452 3.75 11.3498 3.75 11.2504C3.75 11.1509 3.78951 11.0555 3.85984 10.9852C3.93016 10.9149 4.02554 10.8754 4.125 10.8754ZM7.875 22.5004H4.125C2.72625 22.5004 1.5 21.0979 1.5 19.5004V18.0004C1.5 16.1254 2.75625 13.5866 4.26 12.3754H7.74C9.24375 13.5866 10.5 16.1254 10.5 18.0004V19.5004C10.5 21.0979 9.27375 22.5004 7.875 22.5004ZM15.75 22.1254C15.75 22.2248 15.7105 22.3202 15.6402 22.3905C15.5698 22.4609 15.4745 22.5004 15.375 22.5004H10.875C10.7755 22.5004 10.6802 22.4609 10.6098 22.3905C10.5395 22.3202 10.5 22.2248 10.5 22.1254V21.8216C10.6832 21.5668 10.8355 21.2911 10.9537 21.0004H15.375C15.4745 21.0004 15.5698 21.0399 15.6402 21.1102C15.7105 21.1805 15.75 21.2759 15.75 21.3754V22.1254ZM15.75 19.8754C15.75 19.9748 15.7105 20.0702 15.6402 20.1405C15.5698 20.2109 15.4745 20.2504 15.375 20.2504H11.1788C11.2253 20.0031 11.2491 19.752 11.25 19.5004V18.7504H15.375C15.4745 18.7504 15.5698 18.7899 15.6402 18.8602C15.7105 18.9305 15.75 19.0259 15.75 19.1254V19.8754ZM15.75 17.6254C15.75 17.7248 15.7105 17.8202 15.6402 17.8905C15.5698 17.9609 15.4745 18.0004 15.375 18.0004H11.25C11.244 17.4942 11.1773 16.9906 11.0512 16.5004H15.375C15.4745 16.5004 15.5698 16.5399 15.6402 16.6102C15.7105 16.6805 15.75 16.7759 15.75 16.8754V17.6254ZM15.75 15.3754C15.75 15.4748 15.7105 15.5702 15.6402 15.6405C15.5698 15.7109 15.4745 15.7504 15.375 15.7504H10.875C10.8596 15.7484 10.8445 15.7446 10.83 15.7391C10.7325 15.4616 10.6237 15.1841 10.5 14.9066V14.6254C10.5 14.5259 10.5395 14.4305 10.6098 14.3602C10.6802 14.2899 10.7755 14.2504 10.875 14.2504H15.375C15.4745 14.2504 15.5698 14.2899 15.6402 14.3602C15.7105 14.4305 15.75 14.5259 15.75 14.6254V15.3754ZM16.5 21.3754C16.4993 21.0977 16.395 20.8302 16.2075 20.6254C16.395 20.4205 16.4993 20.1531 16.5 19.8754C16.5007 20.1531 16.605 20.4205 16.7925 20.6254C16.605 20.8302 16.5007 21.0977 16.5 21.3754ZM22.5 22.1254C22.5 22.2248 22.4605 22.3202 22.3902 22.3905C22.3198 22.4609 22.2245 22.5004 22.125 22.5004H17.625C17.5255 22.5004 17.4302 22.4609 17.3598 22.3905C17.2895 22.3202 17.25 22.2248 17.25 22.1254V21.3754C17.25 21.2759 17.2895 21.1805 17.3598 21.1102C17.4302 21.0399 17.5255 21.0004 17.625 21.0004H22.125C22.2245 21.0004 22.3198 21.0399 22.3902 21.1102C22.4605 21.1805 22.5 21.2759 22.5 21.3754V22.1254ZM22.5 19.8754C22.5 19.9748 22.4605 20.0702 22.3902 20.1405C22.3198 20.2109 22.2245 20.2504 22.125 20.2504H17.625C17.5255 20.2504 17.4302 20.2109 17.3598 20.1405C17.2895 20.0702 17.25 19.9748 17.25 19.8754V19.1254C17.25 19.0259 17.2895 18.9305 17.3598 18.8602C17.4302 18.7899 17.5255 18.7504 17.625 18.7504H22.125C22.2245 18.7504 22.3198 18.7899 22.3902 18.8602C22.4605 18.9305 22.5 19.0259 22.5 19.1254V19.8754Z" fill="black"/>
</svg>
