<svg width="24" height="24" viewBox="0 0 24 24" fill="none" xmlns="http://www.w3.org/2000/svg">
<path d="M6.51282 22.8127H10.7631L10.4829 19.768C10.408 18.9536 9.91273 18.2376 9.17701 17.8802L6.98359 16.8147L5.03388 14.7544C4.84858 14.5627 4.55231 14.5166 4.32636 14.6579C4.07422 14.8157 3.99109 15.1406 4.13172 15.3988L4.75611 16.3687L4.42872 16.209C3.72248 15.8648 3.10486 15.363 2.62311 14.7425C2.37794 14.4265 2.17048 14.0831 2.00513 13.7191L1.54682 12.7106C1.44337 12.4832 1.19453 12.3594 0.950812 12.4143C0.656744 12.4806 0.478033 12.7794 0.5586 13.0698L1.04072 14.8051C1.24433 15.4469 2.01118 16.9497 2.49055 17.4224C3.53846 18.4561 5.43287 19.4855 5.98255 20.0797C6.57233 20.7172 6.51282 22.8127 6.51282 22.8127Z" fill="#FCD7C3"/>
<path d="M10.4829 19.7676C10.4081 18.9532 9.91276 18.2372 9.17704 17.8798L6.98362 16.8143L5.03391 14.754C4.84861 14.5623 4.55234 14.5162 4.32639 14.6575C4.07425 14.8154 3.99112 15.1402 4.13175 15.3984L4.75614 16.3683L6.24387 17.8798C6.24387 17.8798 7.51444 19.3842 7.58951 20.1985L7.82993 22.8123H10.7631L10.4829 19.7676Z" fill="#F9C7AC"/>
<path d="M6.45081 21.5264H10.7562C11.0121 21.5264 11.2196 21.7338 11.2196 21.9898V23.1848C11.2196 23.4407 11.0121 23.6482 10.7562 23.6482H6.45081C6.19501 23.6482 5.98755 23.4407 5.98755 23.1848V21.9898C5.98755 21.7338 6.19501 21.5264 6.45081 21.5264Z" fill="#0D6E9A"/>
<path d="M17.4836 22.8127H13.2334L13.5135 19.768C13.5884 18.9536 14.0837 18.2376 14.8195 17.8802L17.0129 16.8147L18.9626 14.7544C19.1479 14.5627 19.4441 14.5166 19.6701 14.6579C19.9222 14.8157 20.0054 15.1406 19.8647 15.3988L19.2405 16.3687L19.5677 16.209C20.274 15.8648 20.8916 15.363 21.3733 14.7425C21.6185 14.4265 21.826 14.0831 21.9913 13.7191L22.4496 12.7106C22.5531 12.4832 22.8019 12.3594 23.0456 12.4143C23.3397 12.4806 23.5184 12.7794 23.4378 13.0698L22.9557 14.8051C22.7521 15.4469 21.9853 16.9497 21.5059 17.4224C20.458 18.4561 18.5636 19.4855 18.0139 20.0797C17.4241 20.7172 17.4836 22.8127 17.4836 22.8127Z" fill="#FCD7C3"/>
<path d="M23.0457 12.4141L21.7601 15.5902C20.4459 17.3737 15.6114 19.4852 15.0617 20.0794C14.4719 20.717 14.5313 22.8124 14.5313 22.8124H17.4837C17.4837 22.8124 17.4241 20.717 18.0141 20.0794C18.5638 19.4852 20.4582 18.4556 21.5061 17.4222C21.9855 16.9494 22.7523 15.4467 22.9559 14.8049L23.4381 13.0696C23.5186 12.7792 23.3397 12.4802 23.0457 12.4141Z" fill="#F9C7AC"/>
<path d="M17.5457 21.5264H13.2404C12.9844 21.5264 12.7769 21.7338 12.7769 21.9898V23.1848C12.7769 23.4407 12.9844 23.6482 13.2404 23.6482H17.5457C17.8015 23.6482 18.009 23.4407 18.009 23.1848V21.9898C18.009 21.7338 17.8015 21.5264 17.5457 21.5264Z" fill="#0D6E9A"/>
<path d="M13.7427 0.551574C9.56237 -0.411561 5.39288 2.19659 4.42974 6.37689C3.46679 10.5572 6.07494 14.7267 10.2552 15.6898C14.4355 16.6528 18.605 14.0446 19.568 9.86432C20.5311 5.68402 17.923 1.51453 13.7427 0.551574Z" fill="#69E6ED"/>
<path d="M13.7417 0.551303C12.6432 0.298251 11.5457 0.292209 10.5066 0.496005C10.5941 0.513034 10.6816 0.531161 10.7693 0.551303C14.9496 1.51407 17.5578 5.68357 16.5948 9.86368C15.8851 12.9455 13.4324 15.1725 10.5174 15.7445C14.6083 16.5415 18.6246 13.9563 19.5672 9.86368C20.5301 5.68357 17.922 1.51407 13.7417 0.551303Z" fill="#33D8DD"/>
<path d="M12.4909 10.6599C11.5944 10.4314 10.9893 7.55845 9.03296 8.04387C8.40692 8.19914 6.69873 6.78062 6.87854 6.37376C7.31488 5.38627 6.42133 5.04167 6.88495 4.46104C7.13709 4.14537 7.45001 3.79655 7.85651 4.14043C8.26282 4.48411 8.1134 5.19896 8.47742 5.26817C8.84125 5.3372 9.08954 4.49217 9.30798 4.01463C10.0946 2.29472 12.3127 2.85246 13.0349 2.16582C13.5839 1.6436 13.8078 1.01134 13.7192 0.546798C9.58283 -0.393266 5.46332 2.15977 4.45569 6.26903C5.15039 7.41453 6.76831 8.37401 7.2898 8.73033C7.46045 8.84697 7.51282 9.07512 7.4079 9.25328C7.11053 9.7581 6.70203 10.771 7.61279 11.5227C8.87402 12.5636 8.87311 13.0463 8.36041 14.123C8.23077 14.3951 8.13336 14.6234 8.05939 14.8171C8.61603 15.1443 9.22156 15.4065 9.86829 15.5904C10.3586 14.8686 11.2374 14.2493 11.6748 14.0554C12.4285 13.7214 13.9263 13.8196 14.2941 12.2229C14.4688 11.4643 13.3874 10.8884 12.4909 10.6599Z" fill="#8FD143"/>
<path d="M10.7693 0.551136C11.746 0.775989 12.6368 1.17626 13.4165 1.71056C13.6833 1.30461 13.7831 0.881641 13.7192 0.546192C12.6284 0.298267 11.5388 0.293506 10.5071 0.496021C10.5945 0.512867 10.682 0.530994 10.7693 0.551136Z" fill="#7BB72E"/>
<path d="M19.5672 9.86371C20.3503 6.46362 18.7711 3.07104 15.9051 1.40479C15.4222 2.62921 16.9036 3.13293 16.7465 3.53632C16.6815 3.70312 16.7225 3.91534 16.7904 4.10358C16.8917 4.38391 16.8111 4.69757 16.5795 4.88544C16.181 5.20862 15.6407 5.73541 15.5358 6.28345C15.2779 7.62872 15.7381 8.19232 16.2372 8.60431C17.0103 9.24243 17.5957 9.01886 17.9106 9.48743C18.5931 10.5024 15.4297 13.1902 16.4943 14.4532C17.9929 13.3903 19.1224 11.7951 19.5672 9.86371Z" fill="#8FD143"/>
<path d="M19.5672 9.86371C20.3503 6.46362 18.771 3.07104 15.9051 1.40479C15.4222 2.62921 16.9035 3.13293 16.7464 3.53632C16.6814 3.70312 16.7224 3.91534 16.7904 4.10358C16.8916 4.38391 16.8111 4.69757 16.5794 4.88544C16.4679 4.97589 16.3452 5.08282 16.224 5.20129C16.6931 6.35559 16.8893 7.63147 16.751 8.9317C17.2708 9.17505 17.6698 9.12927 17.9106 9.48743C18.5931 10.5024 15.4297 13.1902 16.4943 14.4534C17.9928 13.3905 19.1224 11.7951 19.5672 9.86371Z" fill="#7BB72E"/>
<path d="M16.7362 14.7088C21.511 11.2818 21.1555 4.07789 16.1078 1.11341C16.0924 1.10261 16.0757 1.09309 16.0582 1.08485C13.0596 -0.647698 9.21515 -0.298149 6.56561 2.08405C6.42114 2.21387 6.40924 2.43616 6.53906 2.58045C6.66888 2.72492 6.89117 2.73664 7.03564 2.60682C8.76251 1.05427 11.1167 0.401863 13.3848 0.83271C13.3524 1.21577 13.0856 1.6305 12.7941 1.90772C12.2216 2.45228 9.85052 1.98243 8.98938 3.8653C8.86908 4.12788 8.70319 4.59425 8.55414 4.82789C8.47851 4.56422 8.41681 4.15003 8.08447 3.86897C7.88507 3.70033 7.67175 3.6258 7.45038 3.64722C7.05231 3.68623 6.77618 4.03211 6.61102 4.23866C6.26221 4.67554 6.41748 5.06776 6.53064 5.35432C6.63556 5.61927 6.72601 5.84797 6.55756 6.22901C6.39606 6.59467 6.73151 6.99384 6.84173 7.12495C7.29364 7.66254 8.42761 8.5539 9.11865 8.3827C10.8052 7.96339 11.2828 10.7122 12.4056 10.9985C13.2464 11.213 14.0552 11.6993 13.9532 12.1422C13.639 13.506 12.345 13.3727 11.5336 13.7323C11.0869 13.9304 10.2777 14.4927 9.73462 15.1807C9.30579 15.0439 8.8938 14.8701 8.5025 14.6618C8.5556 14.538 8.61401 14.4085 8.67865 14.2725C9.26623 13.0391 9.22742 12.3969 7.83746 11.2496C7.17132 10.6997 7.40131 9.95612 7.71167 9.42933C7.90942 9.0937 7.81164 8.65809 7.48901 8.43781C6.98767 8.09486 5.51953 7.21595 4.83453 6.20448C5.08685 5.25544 5.5155 4.38203 6.11169 3.60529C6.22998 3.45112 6.20087 3.23048 6.04687 3.11219C5.8927 2.9939 5.67206 3.02302 5.55395 3.17701C3.58942 5.73664 3.23511 9.41816 5.11578 12.4246C7.59393 16.3861 12.8575 17.4241 16.6567 14.7648C16.6928 14.7463 16.7144 14.7291 16.7362 14.7088ZM16.6342 13.9044C16.5742 13.3615 17.0662 12.5471 17.5102 11.8123C18.0923 10.8491 18.642 9.93946 18.2049 9.28925C17.7905 8.6731 17.179 8.92176 16.4632 8.33106C16.0437 7.98481 15.6533 7.54646 15.8831 6.3473C15.9481 6.00745 16.275 5.5843 16.8032 5.15583C17.1475 4.87659 17.2762 4.40455 17.1233 3.98139C17.0623 3.81257 17.0598 3.70344 17.0762 3.66114C17.3286 3.0135 16.2599 2.66486 16.1673 1.9784C20.3115 4.78944 20.5146 10.803 16.6342 13.9044ZM4.65271 7.10517C5.45434 7.9925 6.55499 8.65076 7.09241 9.01844C7.1109 9.03089 7.11658 9.05415 7.10596 9.07246C6.4801 10.135 6.58356 11.1264 7.38995 11.7919C8.72388 12.893 8.40729 13.1297 7.89368 14.2987C5.60925 12.7824 4.24603 10.0167 4.65271 7.10517ZM10.4912 15.3795C10.9274 14.9137 11.4915 14.5202 11.8187 14.3752C12.4887 14.0784 14.2202 14.1165 14.6385 12.2999C14.8577 11.3486 13.7624 10.6186 12.5795 10.317C11.9348 10.1526 11.1465 7.15479 8.94946 7.70008C8.90515 7.71052 8.6878 7.68452 8.28094 7.43147C7.71387 7.07862 7.30188 6.62434 7.22681 6.45203C7.47656 5.83405 7.3017 5.39149 7.18469 5.09559C7.07721 4.82368 7.07501 4.78468 7.16052 4.67756C7.22388 4.59827 7.4165 4.35712 7.51886 4.34705C7.54248 4.34431 7.58423 4.36665 7.63037 4.40583C7.92041 4.65119 7.77246 5.4889 8.41278 5.61066C9.09759 5.74067 9.37006 4.7237 9.62878 4.15772C10.3295 2.62568 12.4268 3.22755 13.2788 2.41712C13.7214 1.99616 14.0008 1.48493 14.0726 0.997139C14.5682 1.14088 15.0425 1.33332 15.49 1.57099C15.275 2.59492 16.1633 3.18287 16.3947 3.48591C16.3383 3.69392 16.3608 3.94056 16.4619 4.22016C16.5132 4.36225 16.4724 4.51881 16.3603 4.60963C15.8956 4.98646 15.3159 5.57093 15.1924 6.21491C14.9041 7.72077 15.4468 8.40376 16.0155 8.87342C17.3375 9.96455 18.4695 8.86518 16.9083 11.4484C16.3228 12.4174 15.6689 13.4999 16.0223 14.3444C14.4382 15.3676 12.4693 15.7911 10.4912 15.3795Z" fill="black"/>
<path d="M5.76548 20.3671C5.83414 20.4623 5.94162 20.5128 6.05075 20.5128C6.332 20.5128 6.50559 20.1909 6.33548 19.9555C5.87387 19.3159 3.82914 18.2473 2.73764 17.1708C2.3143 16.7531 1.57236 15.3108 1.37772 14.7029L0.897433 12.9738C0.842136 12.7746 1.13254 12.647 1.23398 12.87C1.79373 14.0635 1.84171 14.3068 2.12241 14.6684C2.76767 15.4999 3.60538 16.1855 4.54727 16.6553L6.04453 18.1608C6.11319 18.23 6.20346 18.2645 6.29373 18.2645C6.60428 18.2645 6.76377 17.8869 6.54312 17.665L5.03214 16.1456L4.4365 15.2201C4.33615 15.0136 4.60294 14.812 4.77927 14.9942C6.82328 17.1431 6.7255 17.0783 6.83097 17.1296L9.02475 18.1953C10.2223 18.777 10.1366 20.0454 10.1651 20.1356C10.1829 20.329 10.3535 20.4709 10.5475 20.4535C10.741 20.4357 10.8833 20.2645 10.8655 20.0712L10.8346 19.7346C10.7489 18.8035 10.173 17.9711 9.332 17.5626L7.1959 16.525L5.28739 14.508C4.98435 14.1948 4.50205 14.1316 4.14041 14.3579C3.81412 14.5621 3.65995 14.9424 3.72916 15.3024C3.33841 14.99 2.9841 14.6316 2.67777 14.2372C2.47599 13.9772 2.46976 13.8589 1.87412 12.5788C1.69889 12.1932 1.27884 11.9788 0.875278 12.0687C0.384738 12.1782 0.0851776 12.6775 0.21976 13.1619C0.866855 15.491 0.661411 14.7693 0.705539 14.9096C0.92728 15.6085 1.72123 17.1561 2.24381 17.6712C2.83908 18.2584 3.67478 18.829 4.41196 19.3323C4.71775 19.5411 5.58567 20.1182 5.76548 20.3671Z" fill="black"/>
<path d="M23.2138 12.0937C22.7846 11.9496 22.3199 12.1515 22.1327 12.563C21.5311 13.8566 21.5245 13.9766 21.3219 14.2373C21.0156 14.6319 20.6613 14.9902 20.2706 15.3026C20.3398 14.9426 20.1854 14.5621 19.8593 14.3581C19.4978 14.1318 19.0154 14.1948 18.7098 14.5109L16.8038 16.525L14.6679 17.5627C13.0741 18.3368 13.1651 19.9875 13.1329 20.0858C13.1151 20.2794 13.2574 20.4504 13.4508 20.4682C13.6438 20.4861 13.8153 20.3437 13.8331 20.1503C13.8615 20.0604 13.7752 18.7779 14.9751 18.1953C17.2709 17.0714 17.1876 17.1426 17.2705 17.0551L19.2179 14.997C19.3988 14.81 19.663 15.0148 19.563 15.2202L18.9676 16.1456L17.4566 17.665C17.2358 17.8869 17.3956 18.2645 17.706 18.2645C17.9729 18.2645 17.9839 18.0821 19.4524 16.6552C20.8191 15.9737 21.8669 14.8476 22.1639 14.1943L22.7731 12.8539C22.8608 12.6608 23.1623 12.758 23.0979 12.9902L22.622 14.7027C22.4274 15.3108 21.6854 16.7532 21.2623 17.1706C20.1735 18.2445 18.1324 19.3115 17.6673 19.9511C17.4971 20.1847 17.6675 20.5097 17.9513 20.5097C18.0599 20.5097 18.167 20.4596 18.2359 20.3649C18.5896 19.8791 20.6382 18.7739 21.7559 17.6714C22.2783 17.1562 23.0724 15.6086 23.2942 14.9097C23.3385 14.769 23.1569 15.4044 23.7754 13.1784C23.903 12.7188 23.6564 12.2424 23.2138 12.0937Z" fill="black"/>
<path d="M10.7576 21.1743H6.45172C6.0022 21.1743 5.63654 21.54 5.63654 21.9895V23.1846C5.63654 23.634 6.0022 23.9996 6.45172 23.9996H10.7576C11.207 23.9996 11.5726 23.634 11.5726 23.1846V21.9895C11.5726 21.54 11.207 21.1743 10.7576 21.1743ZM10.8695 23.1846C10.8695 23.2463 10.8193 23.2965 10.7576 23.2965H6.45172C6.39001 23.2965 6.33984 23.2463 6.33984 23.1846V21.9895C6.33984 21.9278 6.39001 21.8776 6.45172 21.8776H10.7576C10.8193 21.8776 10.8695 21.9278 10.8695 21.9895V23.1846Z" fill="black"/>
<path d="M17.5481 21.1743H13.242C12.7927 21.1743 12.427 21.54 12.427 21.9895V23.1846C12.427 23.634 12.7927 23.9996 13.242 23.9996H17.5481C17.9974 23.9996 18.3631 23.634 18.3631 23.1846V21.9895C18.3631 21.54 17.9974 21.1743 17.5481 21.1743ZM17.6598 23.1846C17.6598 23.2463 17.6098 23.2965 17.5481 23.2965H13.242C13.1805 23.2965 13.1303 23.2463 13.1303 23.1846V21.9895C13.1303 21.9278 13.1805 21.8776 13.242 21.8776H17.5481C17.6098 21.8776 17.6598 21.9278 17.6598 21.9895V23.1846Z" fill="black"/>
</svg>
