<svg width="24" height="24" viewBox="0 0 24 24" fill="none" xmlns="http://www.w3.org/2000/svg">
<path d="M9.75 21.75V23.25H6.75V21.6562C6.99 21.7162 7.24125 21.75 7.5 21.75H9.75Z" fill="#4FC1E9"/>
<path d="M17.25 21.6562V23.25H14.25V21.75H16.125H16.5C16.7587 21.75 17.01 21.7162 17.25 21.6562Z" fill="#4FC1E9"/>
<path d="M18.2812 14.745C19.0462 15.7537 19.5 17.01 19.5 18.375V18.75C19.5 20.1487 18.5437 21.3225 17.25 21.6562C17.01 21.7162 16.7587 21.75 16.5 21.75H16.125V19.5L15.5963 18.9712C15.4538 18.8287 15.2625 18.75 15.0637 18.75H15C14.5875 18.75 14.25 19.0875 14.25 19.5V15.75H13.5L13.8375 12.3862C15.075 12.4537 16.2113 12.8962 17.1375 13.6012C17.5688 13.9312 17.9513 14.3137 18.2812 14.745Z" fill="#4FC1E9"/>
<path d="M12 13.875L13.5 15.75H10.5L12 13.875Z" fill="#4FC1E9"/>
<path d="M9.75 19.5H7.875C7.2525 19.5 6.75 18.9975 6.75 18.375V15.75C6.75 15.9487 6.82875 16.14 6.97125 16.2787L9.75 19.0613V19.5Z" fill="#4FC1E9"/>
<path d="M5.71875 14.745C6.04875 14.3137 6.43125 13.9312 6.8625 13.6012C7.78875 12.8962 8.925 12.4537 10.1625 12.3862L10.5 15.75H9.75V16.9387L8.02875 15.2212C7.89 15.0787 7.69875 15 7.5 15C7.30125 15 7.11 15.0787 6.97125 15.2212C6.82875 15.36 6.75 15.5512 6.75 15.75V18.375C6.75 18.9975 7.2525 19.5 7.875 19.5H9.75V21.75H7.5C7.24125 21.75 6.99 21.7162 6.75 21.6562C5.45625 21.3225 4.5 20.1487 4.5 18.75V18.375C4.5 17.01 4.95375 15.7537 5.71875 14.745Z" fill="#4FC1E9"/>
<path d="M13.8375 12.3862L13.5 15.75L12 13.875L13.5 12.375C13.6125 12.375 13.725 12.3787 13.8375 12.3862Z" fill="#3BAFDA"/>
<path d="M11.9999 13.875L10.5 15.75L10.1625 12.3862C10.275 12.3787 10.3875 12.375 10.5 12.375L11.9999 13.875Z" fill="#3BAFDA"/>
<path d="M18.3675 5.89874C18.2438 6.10499 18.255 6.35999 18.3787 6.56249C18.795 7.23749 19.1063 7.97999 19.2938 8.77124C19.35 9.00374 19.5225 9.19124 19.755 9.25124L19.7738 9.25499C20.055 9.32624 20.25 9.57749 20.25 9.86249V11.1375C20.25 11.4225 20.055 11.6737 19.7738 11.745L19.755 11.7487C19.5225 11.8087 19.35 11.9962 19.2938 12.2287C19.1063 13.02 18.795 13.7625 18.3787 14.4375C18.3225 14.5313 18.285 14.6363 18.2813 14.745C17.9513 14.3138 17.5688 13.9312 17.1375 13.6012C17.685 12.6975 18 11.6362 18 10.5C18 9.07124 17.5013 7.76249 16.6688 6.73124C16.8075 6.69749 16.9313 6.62999 17.0288 6.52874C17.1675 6.39374 17.25 6.20624 17.25 5.99999C17.25 5.58749 16.9125 5.24999 16.5 5.24999C16.5 4.90874 16.4625 4.57874 16.3913 4.25999L16.62 4.12124C16.8638 3.97499 17.1825 4.01249 17.385 4.21499L18.285 5.11499C18.4875 5.31749 18.525 5.63624 18.3787 5.87999L18.3675 5.89874Z" fill="#FCD770"/>
<path d="M7.60875 4.25999C7.5375 4.57874 7.5 4.90874 7.5 5.24999C7.29375 5.24999 7.10625 5.33249 6.97125 5.47124C6.8325 5.60624 6.75 5.79374 6.75 5.99999C6.75 6.35249 6.9975 6.65249 7.33125 6.73124C6.49875 7.76249 6 9.07124 6 10.5C6 11.6362 6.315 12.6975 6.8625 13.6012C6.43125 13.9312 6.04875 14.3138 5.71875 14.745C5.715 14.6363 5.6775 14.5313 5.62125 14.4375C5.205 13.7625 4.89375 13.02 4.70625 12.2287C4.65 11.9962 4.4775 11.8087 4.245 11.7487L4.22625 11.745C3.945 11.6737 3.75 11.4225 3.75 11.1375V9.86249C3.75 9.57749 3.945 9.32624 4.22625 9.25499L4.245 9.25124C4.4775 9.19124 4.65 9.00374 4.70625 8.77124C4.89375 7.97999 5.205 7.23749 5.62125 6.56249C5.745 6.35999 5.75625 6.10499 5.6325 5.89874L5.62125 5.87999C5.475 5.63624 5.5125 5.31749 5.715 5.11499L6.615 4.21499C6.8175 4.01249 7.13625 3.97499 7.38 4.12124L7.60875 4.25999Z" fill="#FCD770"/>
<path d="M16.5 6.75V9C16.5 8.68875 16.3725 8.4075 16.17 8.205C15.9675 8.0025 15.6862 7.875 15.375 7.875H15V6.75H16.5Z" fill="#656D78"/>
<path d="M7.5 6.75H9V7.875H8.625C8.0025 7.875 7.5 8.3775 7.5 9V6.75Z" fill="#656D78"/>
<path d="M14.25 5.25021H12.75V0.817715V0.813965C14.5538 1.11396 15.9937 2.49021 16.3912 4.26021C16.4625 4.57896 16.5 4.90896 16.5 5.25021H14.25Z" fill="#FF826E"/>
<path d="M9.75 5.25021H7.5C7.5 4.90896 7.5375 4.57896 7.60875 4.26021C7.8 3.41271 8.2275 2.65896 8.81625 2.06646C9.46125 1.42146 10.305 0.971465 11.25 0.813965V0.817715V5.25021H9.75Z" fill="#FF826E"/>
<path d="M12.75 0.8175V5.25H11.25V0.8175V0.81375C11.4937 0.7725 11.745 0.75 12 0.75C12.255 0.75 12.5063 0.7725 12.75 0.81375V0.8175Z" fill="#FC6E51"/>
<path d="M17.25 6C17.25 6.20625 17.1675 6.39375 17.0287 6.52875C16.9312 6.63 16.8075 6.6975 16.6688 6.73125C16.6163 6.7425 16.56 6.75 16.5 6.75H15H9H7.5C7.44 6.75 7.38375 6.7425 7.33125 6.73125C6.9975 6.6525 6.75 6.3525 6.75 6C6.75 5.79375 6.8325 5.60625 6.97125 5.47125C7.10625 5.3325 7.29375 5.25 7.5 5.25H9.75H11.25H12.75H14.25H16.5C16.9125 5.25 17.25 5.5875 17.25 6Z" fill="#FC6E51"/>
<path d="M14.25 21.75V23.25H9.75V21.75V19.5V19.0613V16.9387V15.75H10.5H13.5H14.25V19.5C13.9387 19.5 13.6575 19.6275 13.455 19.83C13.2525 20.0325 13.125 20.3137 13.125 20.625C13.125 20.9363 13.2525 21.2175 13.455 21.42C13.6575 21.6225 13.9387 21.75 14.25 21.75Z" fill="#E6E9ED"/>
<path d="M9.75 16.9387V19.0613L6.97125 16.2787C6.82875 16.14 6.75 15.9488 6.75 15.75C6.75 15.5512 6.82875 15.36 6.97125 15.2213C7.11 15.0788 7.30125 15 7.5 15C7.69875 15 7.89 15.0788 8.02875 15.2213L9.75 16.9387Z" fill="#AAB2BD"/>
<path d="M16.125 19.5V21.75H14.25C13.9388 21.75 13.6575 21.6225 13.455 21.42C13.2525 21.2175 13.125 20.9362 13.125 20.625C13.125 20.3138 13.2525 20.0325 13.455 19.83C13.6575 19.6275 13.9388 19.5 14.25 19.5C14.25 19.0875 14.5875 18.75 15 18.75H15.0637C15.2625 18.75 15.4538 18.8288 15.5963 18.9713L16.125 19.5Z" fill="#F0D0B4"/>
<path d="M13.125 12.375H13.5L12 13.875L10.5 12.375H10.875H13.125Z" fill="#F0D0B4"/>
<path d="M16.17 8.205C16.3725 8.4075 16.5 8.68875 16.5 9C16.5 9.6225 15.9975 10.125 15.375 10.125H15V7.875H15.375C15.6862 7.875 15.9675 8.0025 16.17 8.205Z" fill="#F0D0B4"/>
<path d="M9 10.125V7.875V6.75H15V7.875V10.125V10.5C15 11.535 14.16 12.375 13.125 12.375H10.875C9.84 12.375 9 11.535 9 10.5V10.125Z" fill="#F0D0B4"/>
<path d="M9 7.875V10.125H8.625C8.31375 10.125 8.0325 9.9975 7.83 9.795C7.6275 9.5925 7.5 9.31125 7.5 9C7.5 8.3775 8.0025 7.875 8.625 7.875H9Z" fill="#F0D0B4"/>
<path d="M10.5 8.625C10.7071 8.625 10.875 8.45711 10.875 8.25C10.875 8.04289 10.7071 7.875 10.5 7.875C10.2929 7.875 10.125 8.04289 10.125 8.25C10.125 8.45711 10.2929 8.625 10.5 8.625Z" fill="black"/>
<path d="M13.5 8.625C13.7071 8.625 13.875 8.45711 13.875 8.25C13.875 8.04289 13.7071 7.875 13.5 7.875C13.2929 7.875 13.125 8.04289 13.125 8.25C13.125 8.45711 13.2929 8.625 13.5 8.625Z" fill="black"/>
<path d="M12.75 10.5H10.5V11.25H12.75C13.3702 11.25 13.875 10.7452 13.875 10.125H13.125C13.125 10.3316 12.957 10.5 12.75 10.5Z" fill="black"/>
<path d="M19.845 8.88713C19.7539 8.86425 19.6819 8.787 19.6583 8.68538C19.4644 7.86337 19.1423 7.08337 18.6994 6.366C18.6446 6.27712 18.6405 6.17138 18.699 6.07388C18.936 5.679 18.8741 5.17613 18.5486 4.85063L17.6494 3.95138C17.376 3.678 16.9777 3.59287 16.623 3.7125C15.9769 1.77637 14.1506 0.375 12 0.375C9.84937 0.375 8.02313 1.77638 7.37738 3.71287C7.02263 3.59325 6.62438 3.67838 6.351 3.95175L5.45175 4.851C5.12625 5.1765 5.06437 5.67938 5.3115 6.09113C5.35987 6.17212 5.35575 6.2775 5.301 6.36675C4.85812 7.08375 4.536 7.86413 4.34213 8.68612C4.3185 8.78775 4.2465 8.865 4.134 8.89313C3.687 9.00412 3.375 9.40388 3.375 9.864V11.136C3.375 11.5965 3.687 11.9959 4.155 12.1129C4.24612 12.1357 4.31813 12.213 4.34175 12.3146C4.53562 13.1366 4.85775 13.9166 5.30025 14.6336C5.30925 14.6482 5.30887 14.6648 5.31525 14.6801C4.569 15.7234 4.125 16.9969 4.125 18.375V18.75C4.125 20.2159 5.06625 21.4631 6.375 21.9281V23.625H17.625V21.9281C18.9338 21.4635 19.875 20.2162 19.875 18.75V18.375C19.875 16.9969 19.431 15.7234 18.6847 14.6794C18.6911 14.6644 18.6908 14.6479 18.6994 14.6336C19.1423 13.9166 19.4644 13.1363 19.6583 12.3143C19.6819 12.2126 19.7539 12.1354 19.8664 12.1073C20.313 11.9959 20.625 11.5961 20.625 11.136V9.864C20.625 9.40388 20.313 9.00412 19.845 8.88713ZM14.688 12.1151C15.1106 11.706 15.375 11.1337 15.375 10.5C16.2023 10.5 16.875 9.82725 16.875 9V7.69875C17.3614 8.54625 17.625 9.5145 17.625 10.5C17.625 11.394 17.4131 12.2704 17.01 13.0586C16.3181 12.6004 15.5321 12.2752 14.688 12.1151ZM15.75 21.375H14.25C13.8364 21.375 13.5 21.0386 13.5 20.625C13.5 20.2114 13.8364 19.875 14.25 19.875H14.625V19.5C14.625 19.2934 14.793 19.125 15 19.125H15.0645C15.1631 19.125 15.2599 19.1651 15.3296 19.2349L15.75 19.6553V21.375ZM13.875 19.1764C13.2296 19.3436 12.75 19.9279 12.75 20.625C12.75 21.3218 13.2296 21.9041 13.875 22.0718V22.875H10.125V16.125H13.875V19.1764ZM9.375 18.1553L7.23487 16.0151C7.16325 15.9431 7.125 15.8516 7.125 15.75C7.125 15.6484 7.16325 15.5569 7.23487 15.4849C7.3785 15.3412 7.6215 15.3412 7.76513 15.4849L9.375 17.0947V18.1553ZM7.125 16.9657L9.28425 19.125H7.875C7.46137 19.125 7.125 18.7886 7.125 18.375V16.9657ZM6.99 13.0586C6.58687 12.2704 6.375 11.394 6.375 10.5C6.375 9.51412 6.63862 8.54625 7.125 7.69875V9C7.125 9.82725 7.79775 10.5 8.625 10.5C8.625 11.1337 8.88938 11.706 9.312 12.1151C8.46788 12.2752 7.68187 12.6004 6.99 13.0586ZM7.5 5.625H16.5C16.707 5.625 16.875 5.79338 16.875 6C16.875 6.20662 16.707 6.375 16.5 6.375H7.5C7.293 6.375 7.125 6.20662 7.125 6C7.125 5.79338 7.293 5.625 7.5 5.625ZM12 14.4754L12.7196 15.375H11.28L12 14.4754ZM12 13.3447L11.4052 12.75H12.5947L12 13.3447ZM13.125 12H10.875C10.0477 12 9.375 11.3273 9.375 10.5V7.125H14.625V10.5C14.625 11.3273 13.9523 12 13.125 12ZM8.625 9.75C8.21137 9.75 7.875 9.41362 7.875 9C7.875 8.58638 8.21137 8.25 8.625 8.25V9.75ZM8.625 7.5C8.3505 7.5 8.09662 7.5795 7.875 7.7085V7.125H8.625V7.5ZM15.375 8.25C15.7886 8.25 16.125 8.58638 16.125 9C16.125 9.41362 15.7886 9.75 15.375 9.75V8.25ZM16.125 7.7085C15.9034 7.5795 15.6495 7.5 15.375 7.5V7.125H16.125V7.7085ZM11.4975 13.9028L10.7816 14.7975L10.6027 13.008L11.4975 13.9028ZM12.5025 13.9028L13.3973 13.008L13.2184 14.7975L12.5025 13.9028ZM16.1059 4.875H14.625V3.375H13.875V4.875H13.125V1.28475C14.7375 1.74338 15.9503 3.15712 16.1059 4.875ZM12.375 1.14413V4.875H11.625V1.14413C11.7487 1.13288 11.8733 1.125 12 1.125C12.1267 1.125 12.2513 1.13288 12.375 1.14413ZM10.875 1.28475V4.875H10.125V3.375H9.375V4.875H7.89412C8.04975 3.15712 9.2625 1.74338 10.875 1.28475ZM5.07187 12.1425C4.98337 11.7668 4.70175 11.4765 4.31512 11.3798C4.20337 11.3516 4.125 11.2515 4.125 11.136V9.864C4.125 9.7485 4.20338 9.648 4.3365 9.61462C4.70175 9.52312 4.98337 9.23287 5.07187 8.85712C5.24662 8.11387 5.53838 7.4085 5.9385 6.7605C6.14138 6.432 6.14775 6.02775 5.94412 5.688C5.88487 5.589 5.90025 5.46263 5.982 5.38088L6.88125 4.48163C6.963 4.39988 7.089 4.38413 7.18838 4.44375L7.19662 4.44863C7.17 4.6095 7.15125 4.773 7.14075 4.93875C6.69712 5.08988 6.375 5.50612 6.375 6C6.375 6.34275 6.5325 6.6465 6.77512 6.85312C6.03262 7.91775 5.625 9.195 5.625 10.5C5.625 11.5568 5.88862 12.591 6.38475 13.5142C6.18862 13.6804 6.00563 13.8604 5.83125 14.0486C5.4885 13.4531 5.22975 12.8145 5.07187 12.1425ZM4.875 18.75V18.375C4.875 15.5014 7.04213 13.128 9.82763 12.7943L10.0856 15.375H9.375V16.0343L8.29537 14.9546C7.8705 14.5294 7.1295 14.5294 6.70462 14.9546C6.49237 15.1669 6.375 15.4496 6.375 15.75V18.375C6.375 19.2022 7.04775 19.875 7.875 19.875H9.375V21.375H7.5C6.05288 21.375 4.875 20.1975 4.875 18.75ZM7.125 22.1029C7.24837 22.1168 7.37325 22.125 7.5 22.125H9.375V22.875H7.125V22.1029ZM16.875 22.875H14.625V22.125H16.5C16.6267 22.125 16.7516 22.1168 16.875 22.1029V22.875ZM19.125 18.75C19.125 20.1975 17.9471 21.375 16.5 21.375V19.8218C17.1454 19.6541 17.625 19.0718 17.625 18.375V15.75H16.875V18.375C16.875 18.7402 16.6129 19.0451 16.2667 19.1115L15.8599 18.7046C15.6476 18.492 15.3649 18.375 15.0645 18.375H15C14.8684 18.375 14.7424 18.399 14.625 18.4406V15.375H13.9144L14.1724 12.7943C16.9579 13.128 19.125 15.5014 19.125 18.375V18.75ZM19.875 11.136C19.875 11.2515 19.7966 11.352 19.6635 11.3854C19.2983 11.4769 19.0166 11.7671 18.9281 12.1429C18.7702 12.8145 18.5119 13.4531 18.1691 14.049C17.9944 13.8608 17.8114 13.6808 17.6156 13.5146C18.1114 12.591 18.375 11.5568 18.375 10.5C18.375 9.195 17.9674 7.91775 17.2249 6.85312C17.4675 6.6465 17.625 6.34275 17.625 6C17.625 5.50612 17.3029 5.08987 16.8593 4.93913C16.8488 4.77338 16.83 4.60988 16.8034 4.449L16.8116 4.44413C16.9114 4.38487 17.0374 4.40025 17.1188 4.482L18.018 5.38125C18.0998 5.463 18.1151 5.58938 18.0454 5.70525C17.8519 6.02775 17.8582 6.432 18.0611 6.7605C18.4609 7.40887 18.753 8.11425 18.9277 8.8575C19.0162 9.23325 19.2979 9.5235 19.6845 9.62025C19.7966 9.64837 19.875 9.7485 19.875 9.864V11.136Z" fill="black"/>
</svg>
