<svg width="16" height="16" viewBox="0 0 16 16" fill="none" xmlns="http://www.w3.org/2000/svg">
<path d="M3.75 8.00012C3.75 7.2074 3.96841 6.46481 4.34784 5.82896V3.13184H1.65072C0.58025 4.52209 0 6.21643 0 8.00012C0 9.78381 0.58025 11.4781 1.65072 12.8684H4.34784V10.1713C3.96841 9.53543 3.75 8.79284 3.75 8.00012Z" fill="#FBBD00"/>
<path d="M8 12.2502L6.125 14.1252L8 16.0002C9.78372 16.0002 11.478 15.42 12.8683 14.3495V11.6553H10.174C9.53262 12.0361 8.78691 12.2502 8 12.2502Z" fill="#0F9D58"/>
<path d="M4.34752 10.1714L1.65039 12.8685C1.86233 13.1438 2.09311 13.4074 2.34283 13.6571C3.85383 15.1681 5.8628 16.0002 7.99967 16.0002V12.2502C6.44892 12.2502 5.08977 11.4152 4.34752 10.1714Z" fill="#31AA52"/>
<path d="M16 8.00013C16 7.51341 15.9559 7.02579 15.869 6.55085L15.7987 6.1665H8V9.9165H11.7954C11.4268 10.6497 10.8601 11.2478 10.174 11.6552L12.8682 14.3494C13.1435 14.1375 13.4071 13.9067 13.6568 13.657C15.1678 12.146 16 10.137 16 8.00013Z" fill="#3C79E6"/>
<path d="M11.0052 4.99478L11.3367 5.32622L13.9883 2.67459L13.6569 2.34316C12.1459 0.832156 10.1369 0 8 0L6.125 1.875L8 3.75C9.13519 3.75 10.2025 4.19206 11.0052 4.99478Z" fill="#CF2D48"/>
<path d="M8.00019 3.75V0C5.86332 0 3.85435 0.832156 2.34332 2.34313C2.0936 2.59284 1.86282 2.85644 1.65088 3.13172L4.348 5.82884C5.09029 4.585 6.44944 3.75 8.00019 3.75Z" fill="#EB4132"/>
</svg>
