<svg width="16" height="16" viewBox="0 0 16 16" fill="none" xmlns="http://www.w3.org/2000/svg">
<path d="M15.8908 7.60843C14.9196 6.12549 13.7532 4.83099 12.4348 3.77301L14.6896 1.14503C14.9167 0.889506 14.9229 0.467905 14.7037 0.203332C14.4845 -0.0612421 14.1227 -0.0685785 13.8957 0.186942C13.891 0.192288 13.8863 0.197751 13.8817 0.203332L11.4183 3.07173C10.3697 2.39914 9.19665 2.03346 8.00001 2.00614C3.65718 2.00614 0.252076 7.37932 0.109209 7.60839C-0.0364031 7.84186 -0.0364031 8.1581 0.109209 8.39157C1.08038 9.87451 2.24679 11.169 3.56517 12.227L1.31034 14.855C1.08333 15.1105 1.07704 15.5321 1.29627 15.7967C1.51551 16.0612 1.87725 16.0686 2.10426 15.8131C2.10901 15.8077 2.1137 15.8022 2.11832 15.7967L4.58171 12.9283C5.63026 13.6009 6.80333 13.9665 7.99997 13.9939C12.3428 13.9939 15.7479 8.62068 15.8908 8.39157C16.0364 8.15814 16.0364 7.8419 15.8908 7.60843ZM4.39602 11.2607C3.23196 10.3571 2.18853 9.25838 1.29949 8.00002C2.14062 6.81256 4.86859 3.3381 8.00001 3.3381C8.89093 3.35909 9.76684 3.60927 10.5651 4.07067L9.57312 5.22683C8.26063 4.21127 6.49024 4.62803 5.61888 6.15772C4.98413 7.27201 4.98413 8.72116 5.61888 9.83545L4.39602 11.2607ZM9.54285 7.14421C9.65468 7.41074 9.71331 7.70333 9.71428 8.00002C9.71428 9.10346 8.94677 9.99798 8.00001 9.99798C7.74545 9.99685 7.4944 9.92852 7.26572 9.79818L9.54285 7.14421ZM6.45716 8.85579C6.34534 8.58926 6.28671 8.29667 6.28574 7.99998C6.28574 6.89654 7.05324 6.00202 8.00001 6.00202C8.25457 6.00315 8.50562 6.07148 8.7343 6.20182L6.45716 8.85579ZM8.00001 12.6619C7.10909 12.6409 6.2332 12.3907 5.4349 11.9293L6.4269 10.7732C7.73939 11.7887 9.50977 11.372 10.3811 9.84228C11.0159 8.72799 11.0159 7.27884 10.3811 6.16455L11.604 4.73933C12.7681 5.64293 13.8115 6.74166 14.7005 7.99998C13.8594 9.18748 11.1314 12.6619 8.00001 12.6619Z" fill="black"/>
</svg>
